<svg width="1028" height="1001" viewBox="0 0 1028 1001" fill="none" xmlns="http://www.w3.org/2000/svg">
<g clip-path="url(#clip0_487_27611)">
<path opacity="0.31194" d="M1027.62 -0.00012207H0V328.087H1027.62V-0.00012207Z" fill="url(#paint0_linear_487_27611)"/>
<path d="M0 250.552L206.292 176.686L359.864 213.619L513.437 250.552C602.612 261.343 691.787 271.617 780.961 269.821C796.228 270.387 1042.91 173.797 1026.87 178.292V1000.38H0V250.552Z" fill="#FAF0DE"/>
<path opacity="0.261194" d="M351.862 118.07C380.041 118.07 402.885 95.2263 402.885 67.0467C402.885 38.8671 380.041 16.0231 351.862 16.0231C323.682 16.0231 300.838 38.8671 300.838 67.0467C300.838 95.2263 323.682 118.07 351.862 118.07Z" fill="#EEC426" stroke="#F6FCF8" stroke-width="1.13386"/>
<path fill-rule="evenodd" clip-rule="evenodd" d="M705.054 102.362H707.409C707.88 95.7412 713.642 90.5321 720.679 90.5321C721.399 90.5321 722.092 90.587 722.757 90.6981C725.444 83.0791 733.09 77.5941 742.122 77.5941C749.159 77.5941 755.365 80.9461 759.022 86.0441C760.296 85.7391 761.598 85.601 762.956 85.601C772.043 85.601 779.385 92.4161 779.385 100.811C779.385 101.337 779.347 101.836 779.302 102.362H779.525C785.426 102.362 790.274 107.183 790.274 113.111C790.274 119.012 785.426 123.86 779.525 123.86H705.055C699.126 123.86 694.277 119.012 694.277 113.111C694.277 107.183 699.124 102.362 705.054 102.362Z" fill="#F2F2F2"/>
<mask id="mask0_487_27611" style="mask-type:luminance" maskUnits="userSpaceOnUse" x="0" y="-1" width="1028" height="330">
<path d="M1027.62 -0.00012207H0V328.087H1027.62V-0.00012207Z" fill="white"/>
</mask>
<g mask="url(#mask0_487_27611)">
<path fill-rule="evenodd" clip-rule="evenodd" d="M-58.9659 106.909H-44.5599C-44.2008 101.119 -39.379 96.5198 -33.4781 96.5198C-31.4281 96.5198 -29.5159 97.0739 -27.854 98.0159C-26.081 91.6988 -20.2632 87.0728 -13.3652 87.0728C-11.4259 87.0728 -9.57024 87.4327 -7.85207 88.0978C-4.44407 81.5869 2.37088 77.1268 10.2391 77.1268C19.991 77.1268 28.1638 83.9979 30.1859 93.1679C36.4471 94.1649 41.2119 99.5679 41.2119 106.106C41.2119 106.383 41.2119 106.66 41.1741 106.909H52.5332C56.883 106.909 60.4293 110.455 60.4293 114.805C60.4293 119.155 56.883 122.701 52.5332 122.701H-58.9758C-63.2978 122.701 -66.8438 119.155 -66.8438 114.805C-66.8438 110.455 -63.2978 106.909 -58.9758 106.909H-58.9659Z" fill="#F2F2F2"/>
</g>
<path fill-rule="evenodd" clip-rule="evenodd" d="M327.655 91.4341C334.803 91.4341 341.064 95.3132 344.444 101.047C346.079 100.438 347.824 100.133 349.653 100.133C355.249 100.133 360.152 103.181 362.785 107.696C364.53 106.699 366.579 106.117 368.768 106.117C374.475 106.117 379.24 110.051 380.57 115.343C380.627 115.343 380.71 115.343 380.763 115.343C384.946 115.343 388.326 118.723 388.326 122.879C388.326 127.062 384.946 130.442 380.763 130.442C356.854 130.442 333.499 130.442 308.898 130.442C301.307 130.442 295.157 124.264 295.157 116.673C295.157 109.082 301.307 102.931 308.898 102.931C309.231 102.931 309.535 102.957 309.84 102.987C312.887 96.172 319.731 91.4341 327.655 91.4341Z" fill="#F2F2F2"/>
<path fill-rule="evenodd" clip-rule="evenodd" d="M794.47 46.8474C799.817 46.8474 804.361 50.3385 805.967 55.1585C811.646 56.0725 816.328 60.0064 818.295 65.2704C819.209 65.0765 820.179 64.9934 821.15 64.9934C829.46 64.9934 836.22 71.7534 836.22 80.0924C836.22 88.4314 829.46 95.1634 821.15 95.1634C799.928 95.1634 779.649 95.1634 758.261 95.1634C753.69 95.1634 750.004 91.4784 750.004 86.9074C750.004 83.4724 752.082 80.5354 755.046 79.2884C756.265 74.4404 760.283 70.6724 765.297 69.8414C766.433 63.2204 772.224 58.1775 779.178 58.1775C780.257 58.1775 781.338 58.2885 782.335 58.5103C782.585 52.0283 787.904 46.8474 794.47 46.8474Z" fill="#F2F2F2"/>
<path fill-rule="evenodd" clip-rule="evenodd" d="M461.268 107.203C460.992 107.187 460.714 107.176 460.433 107.176C460.127 107.176 459.851 107.176 459.547 107.203C459.879 106.261 460.073 105.236 460.073 104.183C460.073 99.0576 455.834 94.9016 450.626 94.9016C450.21 94.9016 449.85 94.9016 449.462 94.9564C449.5 94.5134 449.515 94.0695 449.515 93.6265C449.515 85.6755 442.949 79.1925 434.859 79.1925C432.726 79.1925 430.703 79.6634 428.875 80.4664C426.326 76.1994 421.532 73.3185 416.02 73.3185C414.967 73.3185 413.942 73.4295 412.945 73.6234C410.867 68.8584 405.853 65.5065 400.007 65.5065C392.919 65.5065 387.059 70.4344 386.135 76.8304C383.388 73.7404 379.394 71.7825 374.934 71.7825C366.65 71.7825 359.934 78.4985 359.934 86.7825C359.934 87.4774 359.998 88.1554 360.089 88.8254C352.2 89.2654 345.934 95.7835 345.934 103.782C345.934 111.855 352.673 118.739 360.75 118.822C371.329 118.931 381.933 118.782 392.52 118.782C404.533 118.782 416.546 118.782 428.56 118.782C437.623 118.782 446.685 118.782 455.746 118.782C457.405 118.782 459.063 118.782 460.722 118.782C468.105 118.782 468.637 107.666 461.268 107.203Z" fill="#F2F2F2"/>
<path fill-rule="evenodd" clip-rule="evenodd" d="M140.95 175.937H135.121C135.253 175.305 135.336 174.653 135.336 173.987C135.336 168.751 131.098 164.511 125.862 164.511C125.142 164.511 124.449 164.595 123.755 164.733C122.122 160.743 118.131 157.918 113.449 157.918C112.285 157.918 111.151 158.084 110.098 158.417C107.383 153.403 102.035 149.967 95.8574 149.967C88.2115 149.967 81.8116 155.231 80.1497 162.295C78.9867 161.907 77.7113 161.713 76.3812 161.713C71.2834 161.713 66.9896 164.733 65.5765 168.916C65.4102 168.916 65.2702 168.916 65.1054 168.916C59.9396 168.916 55.4113 171.74 53.0245 175.937H40.9496C37.0835 175.937 33.9492 179.071 33.9492 182.937C33.9492 186.803 37.0835 189.937 40.9496 189.937H140.95C144.815 189.937 147.95 186.803 147.95 182.937C147.95 179.071 144.816 175.937 140.95 175.937Z" fill="#F2F2F2"/>
<mask id="mask1_487_27611" style="mask-type:luminance" maskUnits="userSpaceOnUse" x="0" y="-1" width="1028" height="330">
<path d="M1027.62 -0.00012207H0V328.087H1027.62V-0.00012207Z" fill="white"/>
</mask>
<g mask="url(#mask1_487_27611)">
<path fill-rule="evenodd" clip-rule="evenodd" d="M961.169 153.738H963.238C963.651 147.924 968.711 143.35 974.89 143.35C975.522 143.35 976.131 143.398 976.715 143.496C979.074 136.806 985.789 131.989 993.719 131.989C999.898 131.989 1005.35 134.933 1008.56 139.409C1009.68 139.141 1010.82 139.02 1012.01 139.02C1019.99 139.02 1026.44 145.005 1026.44 152.376C1026.44 152.838 1026.4 153.276 1026.37 153.738H1026.57C1031.75 153.738 1036 157.972 1036 163.177C1036 168.359 1031.75 172.616 1026.57 172.616H961.173C955.966 172.616 951.709 168.359 951.709 163.177C951.709 157.972 955.963 153.738 961.169 153.738Z" fill="#F2F2F2"/>
</g>
</g>
<defs>
<linearGradient id="paint0_linear_487_27611" x1="620.866" y1="6.8293" x2="620.696" y2="329.083" gradientUnits="userSpaceOnUse">
<stop stop-color="#BEE0F2"/>
<stop offset="1" stop-color="#E9EFED" stop-opacity="0"/>
</linearGradient>
<clipPath id="clip0_487_27611">
<rect width="1027.62" height="1000.39" fill="white"/>
</clipPath>
</defs>
</svg>
