<svg width="310" height="34" viewBox="0 0 310 34" fill="none" xmlns="http://www.w3.org/2000/svg">
<path d="M35.2373 0.00566484C34.8255 0.0802855 34.4582 0.275626 34.2004 0.557116C33.9426 0.838606 33.811 1.1881 33.8288 1.54373V31.7019C33.7869 31.9177 33.8011 32.1386 33.8704 32.3493C33.9396 32.5599 34.0622 32.7554 34.2297 32.922C34.3972 33.0886 34.6056 33.2225 34.8404 33.3143C35.0751 33.4061 35.3308 33.4537 35.5895 33.4537C35.8482 33.4537 36.1038 33.4061 36.3386 33.3143C36.5734 33.2225 36.7817 33.0886 36.9492 32.922C37.1167 32.7554 37.2393 32.5599 37.3086 32.3493C37.3778 32.1386 37.392 31.9177 37.3502 31.7019V1.54373C37.3561 1.33175 37.3091 1.12108 37.2122 0.925488C37.1153 0.729897 36.9707 0.553779 36.7878 0.408631C36.6049 0.263484 36.3878 0.152572 36.1507 0.0831363C35.9137 0.0137004 35.6619 -0.012698 35.412 0.00566484C35.3538 0.00337555 35.2955 0.00337555 35.2373 0.00566484ZM12.7005 1.59294C12.2887 1.66756 11.9214 1.8629 11.6636 2.14439C11.4058 2.42588 11.2741 2.77537 11.2919 3.13101V30.1147C11.2501 30.3304 11.2643 30.5513 11.3335 30.762C11.4027 30.9727 11.5253 31.1681 11.6928 31.3347C11.8603 31.5014 12.0687 31.6352 12.3035 31.727C12.5383 31.8188 12.7939 31.8664 13.0526 31.8664C13.3113 31.8664 13.5669 31.8188 13.8017 31.727C14.0365 31.6352 14.2449 31.5014 14.4124 31.3347C14.5799 31.1681 14.7025 30.9727 14.7717 30.762C14.8409 30.5513 14.8551 30.3304 14.8133 30.1147V3.13101C14.8193 2.91902 14.7722 2.70835 14.6753 2.51276C14.5784 2.31717 14.4338 2.14105 14.2509 1.99591C14.068 1.85076 13.8509 1.73985 13.6139 1.67041C13.3768 1.60097 13.1251 1.57458 12.8751 1.59294C12.8169 1.59065 12.7587 1.59065 12.7005 1.59294ZM29.6031 6.35476C29.1913 6.42938 28.824 6.62472 28.5662 6.90621C28.3084 7.1877 28.1768 7.53719 28.1946 7.89283V25.3528C28.1518 25.5689 28.1653 25.7902 28.2341 26.0014C28.3028 26.2127 28.4252 26.4087 28.5927 26.5758C28.7602 26.743 28.9687 26.8774 29.2039 26.9695C29.439 27.0616 29.6951 27.1094 29.9543 27.1094C30.2135 27.1094 30.4696 27.0616 30.7047 26.9695C30.9399 26.8774 31.1485 26.743 31.3159 26.5758C31.4834 26.4087 31.6058 26.2127 31.6746 26.0014C31.7433 25.7902 31.7568 25.5689 31.7141 25.3528V7.89283C31.72 7.68113 31.6731 7.47076 31.5764 7.2754C31.4797 7.08005 31.3354 6.9041 31.1529 6.759C30.9704 6.6139 30.7538 6.50292 30.5172 6.43327C30.2806 6.36362 30.0293 6.33687 29.7797 6.35476C29.7202 6.35237 29.6626 6.35237 29.6031 6.35476ZM7.06625 7.94203C6.65444 8.01666 6.28714 8.212 6.02935 8.49349C5.77156 8.77497 5.63991 9.12446 5.65769 9.4801V23.7656C5.61496 23.9816 5.62844 24.203 5.6972 24.4142C5.76595 24.6254 5.88833 24.8214 6.05582 24.9886C6.2233 25.1558 6.43188 25.2901 6.66703 25.3822C6.90218 25.4744 7.15826 25.5221 7.41745 25.5221C7.67664 25.5221 7.93272 25.4744 8.16786 25.3822C8.40302 25.2901 8.61159 25.1558 8.77908 24.9886C8.94656 24.8214 9.06894 24.6254 9.1377 24.4142C9.20645 24.203 9.21993 23.9816 9.1772 23.7656V9.4801C9.18311 9.26841 9.13619 9.05803 9.03951 8.86268C8.94283 8.66732 8.79854 8.49137 8.61606 8.34627C8.43357 8.20118 8.21697 8.09019 7.98036 8.02054C7.74375 7.95089 7.49244 7.92414 7.24279 7.94203C7.18335 7.93965 7.12569 7.93965 7.06625 7.94203ZM18.3347 9.52931C17.9229 9.60393 17.5556 9.79927 17.2978 10.0808C17.04 10.3622 16.9083 10.7117 16.9261 11.0674V22.1783C16.8834 22.3944 16.8969 22.6157 16.9656 22.8269C17.0344 23.0381 17.1568 23.2341 17.3242 23.4013C17.4917 23.5685 17.7003 23.7028 17.9355 23.7949C18.1706 23.8871 18.4267 23.9348 18.6859 23.9348C18.9451 23.9348 19.2011 23.8871 19.4363 23.7949C19.6714 23.7028 19.88 23.5685 20.0475 23.4013C20.215 23.2341 20.3374 23.0381 20.4061 22.8269C20.4749 22.6157 20.4884 22.3944 20.4456 22.1783V11.0674C20.4515 10.8557 20.4046 10.6453 20.3079 10.45C20.2113 10.2546 20.067 10.0786 19.8845 9.93355C19.702 9.78845 19.4854 9.67746 19.2488 9.60782C19.0122 9.53817 18.7609 9.51142 18.5112 9.52931C18.4518 9.52692 18.3941 9.52692 18.3347 9.52931ZM40.8715 9.52931C40.4597 9.60393 40.0924 9.79927 39.8346 10.0808C39.5769 10.3622 39.4452 10.7117 39.463 11.0674V22.1783C39.4212 22.3941 39.4354 22.6149 39.5046 22.8256C39.5738 23.0363 39.6964 23.2317 39.8639 23.3984C40.0314 23.565 40.2398 23.6989 40.4746 23.7907C40.7094 23.8825 40.965 23.93 41.2237 23.93C41.4824 23.93 41.738 23.8825 41.9728 23.7907C42.2076 23.6989 42.416 23.565 42.5835 23.3984C42.7509 23.2317 42.8736 23.0363 42.9428 22.8256C43.012 22.6149 43.0262 22.3941 42.9844 22.1783V11.0674C42.9903 10.8554 42.9433 10.6447 42.8464 10.4491C42.7495 10.2535 42.6049 10.0774 42.422 9.93227C42.2391 9.78713 42.022 9.67622 41.7849 9.60678C41.5479 9.53734 41.2962 9.51095 41.0462 9.52931C40.988 9.52702 40.9297 9.52702 40.8715 9.52931ZM1.43203 12.7039C1.02022 12.7785 0.65292 12.9738 0.395133 13.2553C0.137346 13.5368 0.00569414 13.8863 0.023476 14.2419V19.0037C-0.0183533 19.2195 -0.00416154 19.4404 0.0650675 19.6511C0.134297 19.8617 0.256907 20.0572 0.424399 20.2238C0.591891 20.3905 0.800257 20.5243 1.03505 20.6161C1.26985 20.7079 1.52546 20.7555 1.78417 20.7555C2.04287 20.7555 2.29849 20.7079 2.53328 20.6161C2.76808 20.5243 2.97645 20.3905 3.14394 20.2238C3.31143 20.0572 3.43404 19.8617 3.50327 19.6511C3.5725 19.4404 3.58669 19.2195 3.54486 19.0037V14.2419C3.55082 14.0299 3.50381 13.8193 3.40691 13.6237C3.31 13.4281 3.16537 13.252 2.98247 13.1068C2.79956 12.9617 2.58249 12.8508 2.34543 12.7813C2.10837 12.7119 1.85664 12.6855 1.60669 12.7039C1.54788 12.7015 1.48897 12.7015 1.43015 12.7039H1.43203ZM23.9689 12.7039C23.5571 12.7785 23.1898 12.9738 22.932 13.2553C22.6742 13.5368 22.5426 13.8863 22.5603 14.2419V19.0037C22.5176 19.2198 22.5311 19.4411 22.5998 19.6524C22.6686 19.8636 22.791 20.0596 22.9585 20.2268C23.126 20.3939 23.3345 20.5283 23.5697 20.6204C23.8048 20.7125 24.0609 20.7603 24.3201 20.7603C24.5793 20.7603 24.8354 20.7125 25.0705 20.6204C25.3057 20.5283 25.5142 20.3939 25.6817 20.2268C25.8492 20.0596 25.9716 19.8636 26.0403 19.6524C26.1091 19.4411 26.1226 19.2198 26.0799 19.0037V14.2419C26.0858 14.0302 26.0388 13.8199 25.9422 13.6245C25.8455 13.4291 25.7012 13.2532 25.5187 13.1081C25.3362 12.963 25.1196 12.852 24.883 12.7824C24.6464 12.7127 24.3951 12.686 24.1454 12.7039C24.086 12.7015 24.0283 12.7015 23.9689 12.7039ZM46.5058 12.7039C46.094 12.7785 45.7267 12.9738 45.4689 13.2553C45.2111 13.5368 45.0794 13.8863 45.0972 14.2419V19.0037C45.0554 19.2195 45.0696 19.4404 45.1388 19.6511C45.208 19.8617 45.3306 20.0572 45.4981 20.2238C45.6656 20.3905 45.874 20.5243 46.1088 20.6161C46.3436 20.7079 46.5992 20.7555 46.8579 20.7555C47.1166 20.7555 47.3722 20.7079 47.607 20.6161C47.8418 20.5243 48.0502 20.3905 48.2177 20.2238C48.3852 20.0572 48.5078 19.8617 48.577 19.6511C48.6462 19.4404 48.6604 19.2195 48.6186 19.0037V14.2419C48.6246 14.0299 48.5775 13.8193 48.4806 13.6237C48.3837 13.4281 48.2391 13.252 48.0562 13.1068C47.8733 12.9617 47.6562 12.8508 47.4192 12.7813C47.1821 12.7119 46.9304 12.6855 46.6804 12.7039C46.6222 12.7016 46.5639 12.7016 46.5058 12.7039Z" fill="#F98D00"/>
<path d="M80.1972 8.00288C79.7893 8.0408 79.4256 8.14006 79.1703 8.28311C78.915 8.42615 78.7846 8.60375 78.8022 8.78447V24.1098C78.7608 24.2195 78.7748 24.3317 78.8434 24.4388C78.9119 24.5458 79.0334 24.6451 79.1993 24.7298C79.3651 24.8145 79.5715 24.8825 79.804 24.9292C80.0366 24.9758 80.2897 25 80.546 25C80.8022 25 81.0553 24.9758 81.2879 24.9292C81.5204 24.8825 81.7268 24.8145 81.8927 24.7298C82.0585 24.6451 82.18 24.5458 82.2485 24.4388C82.3171 24.3317 82.3312 24.2195 82.2897 24.1098V8.78447C82.2956 8.67675 82.2491 8.56969 82.1531 8.4703C82.0571 8.37091 81.9139 8.28141 81.7327 8.20765C81.5516 8.13389 81.3366 8.07753 81.1018 8.04225C80.867 8.00696 80.6177 7.99355 80.3702 8.00288C80.3126 8.00172 80.2548 8.00172 80.1972 8.00288ZM57.8769 8.80948C57.4691 8.8474 57.1053 8.94666 56.85 9.08971C56.5947 9.23275 56.4643 9.41035 56.4819 9.59107V23.3032C56.4405 23.4129 56.4546 23.5251 56.5231 23.6322C56.5917 23.7392 56.7131 23.8386 56.879 23.9232C57.0449 24.0079 57.2512 24.0759 57.4838 24.1226C57.7163 24.1692 57.9695 24.1934 58.2257 24.1934C58.4819 24.1934 58.7351 24.1692 58.9676 24.1226C59.2002 24.0759 59.4065 24.0079 59.5724 23.9232C59.7383 23.8386 59.8597 23.7392 59.9283 23.6322C59.9968 23.5251 60.0109 23.4129 59.9695 23.3032V9.59107C59.9754 9.48335 59.9288 9.37629 59.8328 9.2769C59.7369 9.17751 59.5936 9.08801 59.4125 9.01425C59.2313 8.94049 59.0164 8.88413 58.7816 8.84885C58.5468 8.81356 58.2975 8.80015 58.0499 8.80948C57.9923 8.80831 57.9346 8.80831 57.8769 8.80948ZM74.6171 11.2293C74.2093 11.2672 73.8455 11.3665 73.5902 11.5095C73.3349 11.6525 73.2045 11.8301 73.2221 12.0109V20.8834C73.1798 20.9932 73.1932 21.1057 73.2612 21.213C73.3293 21.3204 73.4505 21.42 73.6164 21.5049C73.7823 21.5899 73.9889 21.6581 74.2218 21.705C74.4546 21.7518 74.7083 21.776 74.965 21.776C75.2217 21.776 75.4753 21.7518 75.7082 21.705C75.9411 21.6581 76.1476 21.5899 76.3135 21.5049C76.4794 21.42 76.6006 21.3204 76.6687 21.213C76.7368 21.1057 76.7501 20.9932 76.7078 20.8834V12.0109C76.7137 11.9033 76.6672 11.7964 76.5714 11.6971C76.4757 11.5978 76.3328 11.5084 76.1521 11.4347C75.9713 11.361 75.7568 11.3046 75.5225 11.2692C75.2881 11.2338 75.0392 11.2202 74.792 11.2293C74.7331 11.2281 74.676 11.2281 74.6171 11.2293ZM52.2969 12.0359C51.889 12.0738 51.5253 12.1731 51.27 12.3161C51.0146 12.4591 50.8843 12.6367 50.9019 12.8175V20.0768C50.8595 20.1866 50.8729 20.2991 50.941 20.4064C51.0091 20.5138 51.1303 20.6134 51.2962 20.6983C51.462 20.7833 51.6686 20.8516 51.9015 20.8984C52.1344 20.9452 52.388 20.9694 52.6447 20.9694C52.9014 20.9694 53.155 20.9452 53.3879 20.8984C53.6208 20.8516 53.8274 20.7833 53.9932 20.6983C54.1591 20.6134 54.2803 20.5138 54.3484 20.4064C54.4165 20.2991 54.4299 20.1866 54.3875 20.0768V12.8175C54.3934 12.7099 54.3469 12.603 54.2512 12.5037C54.1554 12.4044 54.0125 12.315 53.8318 12.2413C53.6511 12.1676 53.4365 12.1112 53.2022 12.0758C52.9679 12.0404 52.719 12.0268 52.4717 12.0359C52.4129 12.0347 52.3557 12.0347 52.2969 12.0359ZM63.457 12.8425C63.0492 12.8804 62.6854 12.9797 62.4301 13.1227C62.1748 13.2657 62.0444 13.4433 62.062 13.6241V19.2702C62.0197 19.38 62.033 19.4925 62.1011 19.5998C62.1692 19.7072 62.2904 19.8068 62.4563 19.8917C62.6222 19.9767 62.8287 20.045 63.0616 20.0918C63.2945 20.1386 63.5481 20.1628 63.8048 20.1628C64.0615 20.1628 64.3152 20.1386 64.548 20.0918C64.7809 20.045 64.9875 19.9767 65.1534 19.8917C65.3193 19.8068 65.4405 19.7072 65.5086 19.5998C65.5766 19.4925 65.59 19.38 65.5477 19.2702V13.6241C65.5535 13.5165 65.5071 13.4096 65.4113 13.3103C65.3156 13.211 65.1727 13.1216 64.9919 13.0479C64.8112 12.9742 64.5967 12.9178 64.3623 12.8824C64.128 12.847 63.8791 12.8334 63.6319 12.8425C63.573 12.8413 63.5159 12.8413 63.457 12.8425ZM85.7773 12.8425C85.3694 12.8804 85.0056 12.9797 84.7503 13.1227C84.495 13.2657 84.3646 13.4433 84.3822 13.6241V19.2702C84.3408 19.3799 84.3549 19.4921 84.4234 19.5992C84.492 19.7063 84.6134 19.8056 84.7793 19.8902C84.9452 19.9749 85.1516 20.0429 85.3841 20.0896C85.6166 20.1362 85.8698 20.1604 86.126 20.1604C86.3822 20.1604 86.6354 20.1362 86.8679 20.0896C87.1005 20.0429 87.3068 19.9749 87.4727 19.8902C87.6386 19.8056 87.76 19.7063 87.8286 19.5992C87.8972 19.4921 87.9112 19.3799 87.8698 19.2702V13.6241C87.8757 13.5163 87.8291 13.4093 87.7332 13.3099C87.6372 13.2105 87.4939 13.121 87.3128 13.0472C87.1317 12.9735 86.9167 12.9171 86.6819 12.8818C86.4471 12.8465 86.1978 12.8331 85.9502 12.8425C85.8926 12.8413 85.8349 12.8413 85.7773 12.8425ZM69.0371 14.4557C68.6292 14.4936 68.2655 14.5928 68.0101 14.7359C67.7548 14.8789 67.6244 15.0565 67.6421 15.2373V17.6571C67.5997 17.7668 67.6131 17.8793 67.6812 17.9867C67.7493 18.094 67.8705 18.1936 68.0364 18.2785C68.2022 18.3635 68.4088 18.4318 68.6417 18.4786C68.8746 18.5254 69.1282 18.5497 69.3849 18.5497C69.6416 18.5497 69.8952 18.5254 70.1281 18.4786C70.361 18.4318 70.5676 18.3635 70.7334 18.2785C70.8993 18.1936 71.0205 18.094 71.0886 17.9867C71.1567 17.8793 71.1701 17.7668 71.1277 17.6571V15.2373C71.1336 15.1297 71.0871 15.0228 70.9914 14.9235C70.8956 14.8242 70.7527 14.7348 70.572 14.6611C70.3913 14.5874 70.1767 14.531 69.9424 14.4956C69.7081 14.4602 69.4592 14.4466 69.2119 14.4557C69.153 14.4544 69.0959 14.4544 69.0371 14.4557ZM91.3573 14.4557C90.9495 14.4936 90.5857 14.5928 90.3304 14.7359C90.0751 14.8789 89.9447 15.0565 89.9623 15.2373V17.6571C89.9209 17.7667 89.9349 17.8789 90.0035 17.986C90.0721 18.0931 90.1935 18.1924 90.3594 18.277C90.5253 18.3617 90.7316 18.4297 90.9642 18.4764C91.1967 18.5231 91.4499 18.5472 91.7061 18.5472C91.9623 18.5472 92.2155 18.5231 92.448 18.4764C92.6805 18.4297 92.8869 18.3617 93.0528 18.277C93.2187 18.1924 93.3401 18.0931 93.4087 17.986C93.4772 17.8789 93.4913 17.7667 93.4499 17.6571V15.2373C93.4558 15.1295 93.4092 15.0225 93.3132 14.9231C93.2173 14.8237 93.074 14.7342 92.8929 14.6604C92.7117 14.5867 92.4967 14.5303 92.262 14.495C92.0272 14.4597 91.7779 14.4463 91.5303 14.4557C91.4727 14.4545 91.415 14.4545 91.3573 14.4557Z" fill="#F98D00"/>
<path d="M120.569 0.00566484C120.157 0.0802855 119.79 0.275626 119.532 0.557116C119.275 0.838606 119.143 1.18809 119.161 1.54373V31.7019C119.119 31.9177 119.133 32.1386 119.202 32.3493C119.271 32.5599 119.394 32.7554 119.562 32.922C119.729 33.0886 119.937 33.2225 120.172 33.3143C120.407 33.4061 120.663 33.4537 120.921 33.4537C121.18 33.4537 121.436 33.4061 121.67 33.3143C121.905 33.2225 122.114 33.0886 122.281 32.922C122.449 32.7554 122.571 32.5599 122.64 32.3493C122.71 32.1386 122.724 31.9177 122.682 31.7019V1.54373C122.688 1.33175 122.641 1.12108 122.544 0.925488C122.447 0.729897 122.303 0.553779 122.12 0.408631C121.937 0.263484 121.72 0.152572 121.483 0.0831363C121.246 0.0137004 120.994 -0.012698 120.744 0.00566484C120.686 0.00337555 120.627 0.00337555 120.569 0.00566484ZM98.0324 1.59294C97.6206 1.66756 97.2533 1.8629 96.9955 2.14439C96.7377 2.42588 96.606 2.77537 96.6238 3.13101V30.1147C96.582 30.3304 96.5962 30.5513 96.6654 30.762C96.7346 30.9727 96.8572 31.1681 97.0247 31.3347C97.1922 31.5014 97.4006 31.6352 97.6354 31.727C97.8702 31.8188 98.1258 31.8664 98.3845 31.8664C98.6432 31.8664 98.8988 31.8188 99.1336 31.727C99.3684 31.6352 99.5768 31.5014 99.7443 31.3347C99.9118 31.1681 100.034 30.9727 100.104 30.762C100.173 30.5513 100.187 30.3304 100.145 30.1147V3.13101C100.151 2.91902 100.104 2.70835 100.007 2.51276C99.9103 2.31717 99.7657 2.14105 99.5828 1.99591C99.3999 1.85076 99.1828 1.73985 98.9458 1.67041C98.7087 1.60097 98.457 1.57458 98.207 1.59294C98.1488 1.59065 98.0906 1.59065 98.0324 1.59294ZM114.935 6.35476C114.523 6.42938 114.156 6.62472 113.898 6.90621C113.64 7.1877 113.509 7.53719 113.526 7.89283V25.3528C113.484 25.5689 113.497 25.7902 113.566 26.0014C113.635 26.2127 113.757 26.4087 113.925 26.5758C114.092 26.743 114.301 26.8774 114.536 26.9695C114.771 27.0616 115.027 27.1094 115.286 27.1094C115.545 27.1094 115.801 27.0616 116.037 26.9695C116.272 26.8774 116.48 26.743 116.648 26.5758C116.815 26.4087 116.938 26.2127 117.006 26.0014C117.075 25.7902 117.089 25.5689 117.046 25.3528V7.89283C117.052 7.68113 117.005 7.47076 116.908 7.2754C116.812 7.08005 116.667 6.9041 116.485 6.759C116.302 6.6139 116.086 6.50292 115.849 6.43327C115.613 6.36362 115.361 6.33687 115.112 6.35476C115.052 6.35237 114.994 6.35237 114.935 6.35476ZM103.667 9.52931C103.255 9.60393 102.887 9.79927 102.63 10.0808C102.372 10.3622 102.24 10.7117 102.258 11.0674V22.1783C102.215 22.3944 102.229 22.6157 102.298 22.8269C102.366 23.0381 102.489 23.2341 102.656 23.4013C102.824 23.5685 103.032 23.7028 103.267 23.7949C103.503 23.8871 103.759 23.9348 104.018 23.9348C104.277 23.9348 104.533 23.8871 104.768 23.7949C105.003 23.7028 105.212 23.5685 105.379 23.4013C105.547 23.2341 105.669 23.0381 105.738 22.8269C105.807 22.6157 105.82 22.3944 105.778 22.1783V11.0674C105.783 10.8557 105.737 10.6453 105.64 10.45C105.543 10.2546 105.399 10.0786 105.216 9.93355C105.034 9.78845 104.817 9.67746 104.581 9.60782C104.344 9.53817 104.093 9.51142 103.843 9.52931C103.784 9.52692 103.726 9.52692 103.667 9.52931ZM126.203 9.52931C125.792 9.60393 125.424 9.79927 125.167 10.0808C124.909 10.3622 124.777 10.7117 124.795 11.0674V22.1783C124.753 22.3941 124.767 22.6149 124.836 22.8256C124.906 23.0363 125.028 23.2317 125.196 23.3984C125.363 23.565 125.572 23.6989 125.806 23.7907C126.041 23.8825 126.297 23.93 126.556 23.93C126.814 23.93 127.07 23.8825 127.305 23.7907C127.539 23.6989 127.748 23.565 127.915 23.3984C128.083 23.2317 128.205 23.0363 128.275 22.8256C128.344 22.6149 128.358 22.3941 128.316 22.1783V11.0674C128.322 10.8554 128.275 10.6447 128.178 10.4491C128.081 10.2535 127.937 10.0774 127.754 9.93227C127.571 9.78713 127.354 9.67622 127.117 9.60678C126.88 9.53734 126.628 9.51095 126.378 9.52931C126.32 9.52702 126.262 9.52702 126.203 9.52931ZM109.301 12.7039C108.889 12.7785 108.522 12.9738 108.264 13.2553C108.006 13.5368 107.874 13.8863 107.892 14.2419V19.0037C107.85 19.2198 107.863 19.4411 107.932 19.6524C108.001 19.8636 108.123 20.0596 108.29 20.2268C108.458 20.3939 108.666 20.5283 108.902 20.6204C109.137 20.7125 109.393 20.7603 109.652 20.7603C109.911 20.7603 110.167 20.7125 110.402 20.6204C110.638 20.5283 110.846 20.3939 111.014 20.2268C111.181 20.0596 111.303 19.8636 111.372 19.6524C111.441 19.4411 111.454 19.2198 111.412 19.0037V14.2419C111.418 14.0302 111.371 13.8199 111.274 13.6245C111.177 13.4291 111.033 13.2532 110.851 13.1081C110.668 12.963 110.452 12.852 110.215 12.7824C109.978 12.7127 109.727 12.686 109.477 12.7039C109.418 12.7015 109.36 12.7015 109.301 12.7039ZM131.838 12.7039C131.426 12.7785 131.059 12.9738 130.801 13.2553C130.543 13.5368 130.411 13.8863 130.429 14.2419V19.0037C130.387 19.2195 130.401 19.4404 130.471 19.6511C130.54 19.8617 130.663 20.0572 130.83 20.2238C130.998 20.3905 131.206 20.5243 131.441 20.6161C131.675 20.7079 131.931 20.7555 132.19 20.7555C132.449 20.7555 132.704 20.7079 132.939 20.6161C133.174 20.5243 133.382 20.3905 133.55 20.2238C133.717 20.0572 133.84 19.8617 133.909 19.6511C133.978 19.4404 133.992 19.2195 133.95 19.0037V14.2419C133.956 14.0299 133.909 13.8193 133.813 13.6237C133.716 13.4281 133.571 13.252 133.388 13.1068C133.205 12.9617 132.988 12.8508 132.751 12.7813C132.514 12.7119 132.262 12.6855 132.012 12.7039C131.954 12.7016 131.896 12.7016 131.838 12.7039Z" fill="#F98D00"/>
<path d="M165.388 13.0014C164.98 13.0192 164.616 13.0659 164.361 13.1332C164.105 13.2005 163.975 13.2841 163.993 13.3692V20.5811C163.951 20.6327 163.965 20.6855 164.034 20.7359C164.102 20.7863 164.224 20.833 164.39 20.8729C164.556 20.9127 164.762 20.9447 164.994 20.9667C165.227 20.9886 165.48 21 165.736 21C165.993 21 166.246 20.9886 166.478 20.9667C166.711 20.9447 166.917 20.9127 167.083 20.8729C167.249 20.833 167.37 20.7863 167.439 20.7359C167.508 20.6855 167.522 20.6327 167.48 20.5811V13.3692C167.486 13.3185 167.44 13.2681 167.344 13.2213C167.248 13.1745 167.104 13.1324 166.923 13.0977C166.742 13.063 166.527 13.0365 166.292 13.0199C166.057 13.0033 165.808 12.997 165.561 13.0014C165.503 13.0008 165.445 13.0008 165.388 13.0014ZM159.808 14.5197C159.4 14.5375 159.036 14.5842 158.781 14.6515C158.525 14.7188 158.395 14.8024 158.413 14.8875V19.0628C158.37 19.1145 158.384 19.1674 158.452 19.2179C158.52 19.2684 158.641 19.3153 158.807 19.3553C158.973 19.3952 159.179 19.4274 159.412 19.4494C159.645 19.4714 159.899 19.4828 160.155 19.4828C160.412 19.4828 160.666 19.4714 160.899 19.4494C161.131 19.4274 161.338 19.3952 161.504 19.3553C161.67 19.3153 161.791 19.2684 161.859 19.2179C161.927 19.1674 161.941 19.1145 161.898 19.0628V14.8875C161.904 14.8368 161.858 14.7865 161.762 14.7398C161.666 14.6931 161.523 14.651 161.342 14.6163C161.162 14.5816 160.947 14.5551 160.713 14.5384C160.479 14.5218 160.23 14.5154 159.982 14.5197C159.924 14.5191 159.866 14.5191 159.808 14.5197ZM137.487 14.8992C137.079 14.9171 136.716 14.9638 136.46 15.0311C136.205 15.0984 136.075 15.182 136.092 15.267V18.6832C136.05 18.7349 136.063 18.7878 136.131 18.8383C136.2 18.8888 136.321 18.9357 136.487 18.9757C136.652 19.0157 136.859 19.0478 137.092 19.0698C137.325 19.0919 137.578 19.1033 137.835 19.1033C138.092 19.1033 138.345 19.0919 138.578 19.0698C138.811 19.0478 139.018 19.0157 139.184 18.9757C139.35 18.9357 139.471 18.8888 139.539 18.8383C139.607 18.7878 139.62 18.7349 139.578 18.6832V15.267C139.584 15.2164 139.537 15.1661 139.442 15.1194C139.346 15.0727 139.203 15.0306 139.022 14.9959C138.841 14.9612 138.627 14.9347 138.393 14.918C138.158 14.9014 137.909 14.895 137.662 14.8992C137.603 14.8987 137.546 14.8987 137.487 14.8992ZM148.647 15.2788C148.24 15.2967 147.876 15.3434 147.621 15.4107C147.365 15.478 147.235 15.5616 147.252 15.6466V18.3036C147.21 18.3553 147.223 18.4082 147.292 18.4588C147.36 18.5093 147.481 18.5561 147.647 18.5961C147.813 18.6361 148.019 18.6682 148.252 18.6902C148.485 18.7123 148.739 18.7237 148.995 18.7237C149.252 18.7237 149.506 18.7123 149.738 18.6902C149.971 18.6682 150.178 18.6361 150.344 18.5961C150.51 18.5561 150.631 18.5093 150.699 18.4588C150.767 18.4082 150.78 18.3553 150.738 18.3036V15.6466C150.744 15.596 150.697 15.5457 150.602 15.499C150.506 15.4523 150.363 15.4102 150.182 15.3755C150.002 15.3408 149.787 15.3142 149.553 15.2976C149.318 15.2809 149.07 15.2745 148.822 15.2788C148.763 15.2782 148.706 15.2782 148.647 15.2788ZM170.968 15.2788C170.56 15.2967 170.196 15.3434 169.941 15.4107C169.685 15.478 169.555 15.5616 169.573 15.6466V18.3036C169.531 18.3552 169.545 18.4081 169.614 18.4584C169.682 18.5088 169.804 18.5556 169.97 18.5954C170.136 18.6353 170.342 18.6673 170.575 18.6892C170.807 18.7112 171.06 18.7225 171.316 18.7225C171.573 18.7225 171.826 18.7112 172.058 18.6892C172.291 18.6673 172.497 18.6353 172.663 18.5954C172.829 18.5556 172.95 18.5088 173.019 18.4584C173.088 18.4081 173.102 18.3552 173.06 18.3036V15.6466C173.066 15.5959 173.02 15.5455 172.924 15.4988C172.828 15.452 172.684 15.4099 172.503 15.3752C172.322 15.3405 172.107 15.3139 171.872 15.2973C171.638 15.2807 171.388 15.2744 171.141 15.2788C171.083 15.2783 171.025 15.2783 170.968 15.2788ZM154.228 16.038C153.82 16.0558 153.456 16.1025 153.201 16.1698C152.945 16.2371 152.815 16.3207 152.832 16.4058V17.5445C152.79 17.5962 152.804 17.6491 152.872 17.6996C152.94 17.7501 153.061 17.797 153.227 17.837C153.393 17.8769 153.599 17.9091 153.832 17.9311C154.065 17.9531 154.319 17.9645 154.575 17.9645C154.832 17.9645 155.086 17.9531 155.319 17.9311C155.551 17.9091 155.758 17.8769 155.924 17.837C156.09 17.797 156.211 17.7501 156.279 17.6996C156.347 17.6491 156.36 17.5962 156.318 17.5445V16.4058C156.324 16.3551 156.278 16.3048 156.182 16.2581C156.086 16.2114 155.943 16.1693 155.762 16.1346C155.582 16.0999 155.367 16.0734 155.133 16.0567C154.898 16.0401 154.65 16.0337 154.402 16.038C154.343 16.0374 154.286 16.0374 154.228 16.038ZM176.548 16.038C176.14 16.0558 175.776 16.1025 175.521 16.1698C175.266 16.2371 175.135 16.3207 175.153 16.4058V17.5445C175.111 17.5961 175.125 17.6489 175.194 17.6993C175.263 17.7497 175.384 17.7964 175.55 17.8363C175.716 17.8761 175.922 17.9081 176.155 17.9301C176.387 17.952 176.64 17.9634 176.897 17.9634C177.153 17.9634 177.406 17.952 177.638 17.9301C177.871 17.9081 178.077 17.8761 178.243 17.8363C178.409 17.7964 178.531 17.7497 178.599 17.6993C178.668 17.6489 178.682 17.5961 178.64 17.5445V16.4058C178.646 16.3551 178.6 16.3047 178.504 16.2579C178.408 16.2111 178.264 16.169 178.083 16.1343C177.902 16.0996 177.687 16.0731 177.452 16.0565C177.218 16.0399 176.968 16.0336 176.721 16.038C176.663 16.0374 176.605 16.0374 176.548 16.038Z" fill="#F98D00"/>
<path d="M142.356 15.0311C142.611 14.9638 142.975 14.9171 143.383 14.8992C143.442 14.8987 143.499 14.8987 143.558 14.8992C143.805 14.895 144.054 14.9014 144.288 14.918C144.522 14.9347 144.737 14.9612 144.918 14.9959C145.098 15.0306 145.241 15.0727 145.337 15.1194C145.433 15.1661 145.479 15.2164 145.473 15.267V18.6832C145.516 18.7349 145.502 18.7878 145.434 18.8383C145.366 18.8888 145.245 18.9357 145.079 18.9757C144.913 19.0157 144.707 19.0478 144.474 19.0698C144.241 19.0919 143.987 19.1033 143.731 19.1033C143.474 19.1033 143.22 19.0919 142.987 19.0698C142.754 19.0478 142.548 19.0157 142.382 18.9757C142.216 18.9357 142.095 18.8888 142.027 18.8383C141.959 18.7878 141.945 18.7349 141.988 18.6832V15.267C141.97 15.182 142.101 15.0984 142.356 15.0311Z" fill="#F98D00"/>
<path d="M205.635 0.00566484C205.223 0.0802855 204.856 0.275626 204.598 0.557116C204.34 0.838606 204.208 1.18809 204.226 1.54373V31.7019C204.184 31.9177 204.198 32.1386 204.268 32.3493C204.337 32.5599 204.46 32.7554 204.627 32.922C204.795 33.0886 205.003 33.2225 205.238 33.3143C205.472 33.4061 205.728 33.4537 205.987 33.4537C206.246 33.4537 206.501 33.4061 206.736 33.3143C206.971 33.2225 207.179 33.0886 207.347 32.922C207.514 32.7554 207.637 32.5599 207.706 32.3493C207.775 32.1386 207.789 31.9177 207.747 31.7019V1.54373C207.753 1.33175 207.706 1.12108 207.61 0.925488C207.513 0.729897 207.368 0.553779 207.185 0.408631C207.002 0.263484 206.785 0.152572 206.548 0.0831363C206.311 0.0137004 206.059 -0.012698 205.809 0.00566484C205.751 0.00337555 205.693 0.00337555 205.635 0.00566484ZM183.098 1.59294C182.686 1.66756 182.319 1.8629 182.061 2.14439C181.803 2.42588 181.671 2.77537 181.689 3.13101V30.1147C181.647 30.3304 181.662 30.5513 181.731 30.762C181.8 30.9727 181.923 31.1681 182.09 31.3347C182.258 31.5014 182.466 31.6352 182.701 31.727C182.936 31.8188 183.191 31.8664 183.45 31.8664C183.709 31.8664 183.964 31.8188 184.199 31.727C184.434 31.6352 184.642 31.5014 184.81 31.3347C184.977 31.1681 185.1 30.9727 185.169 30.762C185.238 30.5513 185.252 30.3304 185.211 30.1147V3.13101C185.217 2.91902 185.17 2.70835 185.073 2.51276C184.976 2.31717 184.831 2.14105 184.648 1.99591C184.465 1.85076 184.248 1.73985 184.011 1.67041C183.774 1.60097 183.522 1.57458 183.272 1.59294C183.214 1.59065 183.156 1.59065 183.098 1.59294ZM200 6.35476C199.589 6.42938 199.221 6.62472 198.964 6.90621C198.706 7.1877 198.574 7.53719 198.592 7.89283V25.3528C198.549 25.5689 198.563 25.7902 198.631 26.0014C198.7 26.2127 198.823 26.4087 198.99 26.5758C199.158 26.743 199.366 26.8774 199.601 26.9695C199.836 27.0616 200.092 27.1094 200.352 27.1094C200.611 27.1094 200.867 27.0616 201.102 26.9695C201.337 26.8774 201.546 26.743 201.713 26.5758C201.881 26.4087 202.003 26.2127 202.072 26.0014C202.141 25.7902 202.154 25.5689 202.111 25.3528V7.89283C202.117 7.68113 202.07 7.47076 201.974 7.2754C201.877 7.08005 201.733 6.9041 201.55 6.759C201.368 6.6139 201.151 6.50292 200.915 6.43327C200.678 6.36362 200.427 6.33687 200.177 6.35476C200.118 6.35237 200.06 6.35237 200 6.35476ZM188.732 9.52931C188.32 9.60393 187.953 9.79927 187.695 10.0808C187.437 10.3622 187.306 10.7117 187.323 11.0674V22.1783C187.281 22.3944 187.294 22.6157 187.363 22.8269C187.432 23.0381 187.554 23.2341 187.722 23.4013C187.889 23.5685 188.098 23.7028 188.333 23.7949C188.568 23.8871 188.824 23.9348 189.083 23.9348C189.342 23.9348 189.598 23.8871 189.834 23.7949C190.069 23.7028 190.277 23.5685 190.445 23.4013C190.612 23.2341 190.735 23.0381 190.803 22.8269C190.872 22.6157 190.886 22.3944 190.843 22.1783V11.0674C190.849 10.8557 190.802 10.6453 190.705 10.45C190.609 10.2546 190.464 10.0786 190.282 9.93355C190.099 9.78845 189.883 9.67746 189.646 9.60782C189.41 9.53817 189.158 9.51142 188.909 9.52931C188.849 9.52692 188.791 9.52692 188.732 9.52931ZM211.269 9.52931C210.857 9.60393 210.49 9.79927 210.232 10.0808C209.974 10.3622 209.843 10.7117 209.86 11.0674V22.1783C209.818 22.3941 209.833 22.6149 209.902 22.8256C209.971 23.0363 210.094 23.2317 210.261 23.3984C210.429 23.565 210.637 23.6989 210.872 23.7907C211.107 23.8825 211.362 23.93 211.621 23.93C211.88 23.93 212.135 23.8825 212.37 23.7907C212.605 23.6989 212.813 23.565 212.981 23.3984C213.148 23.2317 213.271 23.0363 213.34 22.8256C213.409 22.6149 213.424 22.3941 213.382 22.1783V11.0674C213.388 10.8554 213.341 10.6447 213.244 10.4491C213.147 10.2535 213.002 10.0774 212.819 9.93227C212.636 9.78713 212.419 9.67622 212.182 9.60678C211.945 9.53734 211.693 9.51095 211.444 9.52931C211.385 9.52702 211.327 9.52702 211.269 9.52931ZM194.366 12.7039C193.954 12.7785 193.587 12.9738 193.329 13.2553C193.072 13.5368 192.94 13.8863 192.958 14.2419V19.0037C192.915 19.2198 192.928 19.4411 192.997 19.6524C193.066 19.8636 193.188 20.0596 193.356 20.2268C193.523 20.3939 193.732 20.5283 193.967 20.6204C194.202 20.7125 194.458 20.7603 194.717 20.7603C194.977 20.7603 195.233 20.7125 195.468 20.6204C195.703 20.5283 195.912 20.3939 196.079 20.2268C196.247 20.0596 196.369 19.8636 196.438 19.6524C196.506 19.4411 196.52 19.2198 196.477 19.0037V14.2419C196.483 14.0302 196.436 13.8199 196.339 13.6245C196.243 13.4291 196.099 13.2532 195.916 13.1081C195.734 12.963 195.517 12.852 195.28 12.7824C195.044 12.7127 194.792 12.686 194.543 12.7039C194.483 12.7015 194.426 12.7015 194.366 12.7039ZM216.903 12.7039C216.491 12.7785 216.124 12.9738 215.866 13.2553C215.608 13.5368 215.477 13.8863 215.495 14.2419V19.0037C215.453 19.2195 215.467 19.4404 215.536 19.6511C215.605 19.8617 215.728 20.0572 215.895 20.2238C216.063 20.3905 216.271 20.5243 216.506 20.6161C216.741 20.7079 216.997 20.7555 217.255 20.7555C217.514 20.7555 217.77 20.7079 218.004 20.6161C218.239 20.5243 218.448 20.3905 218.615 20.2238C218.782 20.0572 218.905 19.8617 218.974 19.6511C219.044 19.4404 219.058 19.2195 219.016 19.0037V14.2419C219.022 14.0299 218.975 13.8193 218.878 13.6237C218.781 13.4281 218.636 13.252 218.454 13.1068C218.271 12.9617 218.054 12.8508 217.816 12.7813C217.579 12.7119 217.328 12.6855 217.078 12.7039C217.02 12.7016 216.961 12.7016 216.903 12.7039Z" fill="#F98D00"/>
<path d="M250.578 13.0014C250.17 13.0192 249.806 13.0659 249.551 13.1332C249.296 13.2005 249.165 13.2841 249.183 13.3692V20.5811C249.142 20.6327 249.156 20.6855 249.224 20.7359C249.293 20.7863 249.414 20.833 249.58 20.8729C249.746 20.9127 249.952 20.9447 250.185 20.9667C250.417 20.9886 250.671 21 250.927 21C251.183 21 251.436 20.9886 251.669 20.9667C251.901 20.9447 252.108 20.9127 252.274 20.8729C252.439 20.833 252.561 20.7863 252.629 20.7359C252.698 20.6855 252.712 20.6327 252.671 20.5811V13.3692C252.676 13.3185 252.63 13.2681 252.534 13.2213C252.438 13.1745 252.295 13.1324 252.114 13.0977C251.932 13.063 251.717 13.0365 251.483 13.0199C251.248 13.0033 250.999 12.997 250.751 13.0014C250.693 13.0008 250.636 13.0008 250.578 13.0014ZM228.258 13.3809C227.85 13.3988 227.486 13.4455 227.231 13.5128C226.976 13.5801 226.845 13.6637 226.863 13.7487V20.2015C226.821 20.2531 226.835 20.3059 226.904 20.3563C226.973 20.4067 227.094 20.4534 227.26 20.4933C227.426 20.5331 227.632 20.5651 227.865 20.5871C228.097 20.6091 228.35 20.6204 228.607 20.6204C228.863 20.6204 229.116 20.6091 229.348 20.5871C229.581 20.5651 229.787 20.5331 229.953 20.4933C230.119 20.4534 230.241 20.4067 230.309 20.3563C230.378 20.3059 230.392 20.2531 230.35 20.2015V13.7487C230.356 13.698 230.31 13.6477 230.214 13.6009C230.118 13.5541 229.974 13.512 229.793 13.4773C229.612 13.4426 229.397 13.4161 229.162 13.3995C228.928 13.3829 228.678 13.3765 228.431 13.3809C228.373 13.3804 228.315 13.3804 228.258 13.3809ZM244.998 14.5197C244.59 14.5375 244.226 14.5842 243.971 14.6515C243.716 14.7188 243.585 14.8024 243.603 14.8875V19.0628C243.561 19.1145 243.574 19.1674 243.642 19.2179C243.71 19.2684 243.831 19.3153 243.997 19.3553C244.163 19.3952 244.37 19.4274 244.603 19.4494C244.836 19.4714 245.089 19.4828 245.346 19.4828C245.603 19.4828 245.856 19.4714 246.089 19.4494C246.322 19.4274 246.528 19.3952 246.694 19.3553C246.86 19.3153 246.981 19.2684 247.05 19.2179C247.118 19.1674 247.131 19.1145 247.089 19.0628V14.8875C247.095 14.8368 247.048 14.7865 246.952 14.7398C246.857 14.6931 246.714 14.651 246.533 14.6163C246.352 14.5816 246.138 14.5551 245.903 14.5384C245.669 14.5218 245.42 14.5154 245.173 14.5197C245.114 14.5191 245.057 14.5191 244.998 14.5197ZM222.678 14.8992C222.27 14.9171 221.906 14.9638 221.651 15.0311C221.396 15.0984 221.265 15.182 221.283 15.267V18.6832C221.24 18.7349 221.254 18.7878 221.322 18.8383C221.39 18.8888 221.511 18.9357 221.677 18.9757C221.843 19.0157 222.049 19.0478 222.282 19.0698C222.515 19.0919 222.769 19.1033 223.026 19.1033C223.282 19.1033 223.536 19.0919 223.769 19.0698C224.002 19.0478 224.208 19.0157 224.374 18.9757C224.54 18.9357 224.661 18.8888 224.729 18.8383C224.797 18.7878 224.811 18.7349 224.768 18.6832V15.267C224.774 15.2164 224.728 15.1661 224.632 15.1194C224.536 15.0727 224.393 15.0306 224.213 14.9959C224.032 14.9612 223.817 14.9347 223.583 14.918C223.349 14.9014 223.1 14.895 222.853 14.8992C222.794 14.8987 222.737 14.8987 222.678 14.8992ZM233.838 15.2788C233.43 15.2967 233.066 15.3434 232.811 15.4107C232.556 15.478 232.425 15.5616 232.443 15.6466V18.3036C232.401 18.3553 232.414 18.4082 232.482 18.4588C232.55 18.5093 232.671 18.5561 232.837 18.5961C233.003 18.6361 233.21 18.6682 233.442 18.6902C233.675 18.7123 233.929 18.7237 234.186 18.7237C234.442 18.7237 234.696 18.7123 234.929 18.6902C235.162 18.6682 235.368 18.6361 235.534 18.5961C235.7 18.5561 235.821 18.5093 235.889 18.4588C235.958 18.4082 235.971 18.3553 235.929 18.3036V15.6466C235.934 15.596 235.888 15.5457 235.792 15.499C235.696 15.4523 235.554 15.4102 235.373 15.3755C235.192 15.3408 234.978 15.3142 234.743 15.2976C234.509 15.2809 234.26 15.2745 234.013 15.2788C233.954 15.2782 233.897 15.2782 233.838 15.2788ZM256.158 15.2788C255.75 15.2967 255.387 15.3434 255.131 15.4107C254.876 15.478 254.745 15.5616 254.763 15.6466V18.3036C254.722 18.3552 254.736 18.4081 254.804 18.4584C254.873 18.5088 254.994 18.5556 255.16 18.5954C255.326 18.6353 255.532 18.6673 255.765 18.6892C255.998 18.7112 256.251 18.7225 256.507 18.7225C256.763 18.7225 257.016 18.7112 257.249 18.6892C257.481 18.6673 257.688 18.6353 257.854 18.5954C258.019 18.5556 258.141 18.5088 258.209 18.4584C258.278 18.4081 258.292 18.3552 258.251 18.3036V15.6466C258.257 15.5959 258.21 15.5455 258.114 15.4988C258.018 15.452 257.875 15.4099 257.694 15.3752C257.513 15.3405 257.298 15.3139 257.063 15.2973C256.828 15.2807 256.579 15.2744 256.331 15.2788C256.273 15.2783 256.216 15.2783 256.158 15.2788ZM239.418 16.038C239.01 16.0558 238.646 16.1025 238.391 16.1698C238.136 16.2371 238.005 16.3207 238.023 16.4058V17.5445C237.981 17.5962 237.994 17.6491 238.062 17.6996C238.13 17.7501 238.251 17.797 238.417 17.837C238.583 17.8769 238.79 17.9091 239.023 17.9311C239.255 17.9531 239.509 17.9645 239.766 17.9645C240.022 17.9645 240.276 17.9531 240.509 17.9311C240.742 17.9091 240.948 17.8769 241.114 17.837C241.28 17.797 241.401 17.7501 241.469 17.6996C241.538 17.6491 241.551 17.5962 241.509 17.5445V16.4058C241.514 16.3551 241.468 16.3048 241.372 16.2581C241.276 16.2114 241.134 16.1693 240.953 16.1346C240.772 16.0999 240.558 16.0734 240.323 16.0567C240.089 16.0401 239.84 16.0337 239.593 16.038C239.534 16.0374 239.477 16.0374 239.418 16.038ZM261.738 16.038C261.33 16.0558 260.967 16.1025 260.711 16.1698C260.456 16.2371 260.326 16.3207 260.343 16.4058V17.5445C260.302 17.5961 260.316 17.6489 260.384 17.6993C260.453 17.7497 260.574 17.7964 260.74 17.8363C260.906 17.8761 261.112 17.9081 261.345 17.9301C261.578 17.952 261.831 17.9634 262.087 17.9634C262.343 17.9634 262.596 17.952 262.829 17.9301C263.061 17.9081 263.268 17.8761 263.434 17.8363C263.6 17.7964 263.721 17.7497 263.79 17.6993C263.858 17.6489 263.872 17.5961 263.831 17.5445V16.4058C263.837 16.3551 263.79 16.3047 263.694 16.2579C263.598 16.2111 263.455 16.169 263.274 16.1343C263.093 16.0996 262.878 16.0731 262.643 16.0565C262.408 16.0399 262.159 16.0336 261.911 16.038C261.854 16.0374 261.796 16.0374 261.738 16.038Z" fill="#F98D00"/>
<path d="M296.355 4.00423C295.936 4.06 295.562 4.20598 295.3 4.41633C295.038 4.62669 294.904 4.88787 294.922 5.15364V27.6909C294.879 27.8522 294.893 28.0172 294.964 28.1747C295.034 28.3321 295.159 28.4782 295.33 28.6027C295.5 28.7272 295.712 28.8273 295.951 28.8959C296.19 28.9645 296.45 29 296.714 29C296.977 29 297.237 28.9645 297.476 28.8959C297.715 28.8273 297.927 28.7272 298.098 28.6027C298.268 28.4782 298.393 28.3321 298.464 28.1747C298.534 28.0172 298.549 27.8522 298.506 27.6909V5.15364C298.512 4.99522 298.464 4.83779 298.366 4.69162C298.267 4.54545 298.12 4.41384 297.934 4.30537C297.747 4.1969 297.526 4.11402 297.285 4.06213C297.044 4.01024 296.788 3.99051 296.533 4.00423C296.474 4.00252 296.415 4.00252 296.355 4.00423ZM273.415 5.19041C272.996 5.24617 272.622 5.39215 272.36 5.60251C272.097 5.81287 271.963 6.07404 271.981 6.33981V26.5048C271.939 26.666 271.953 26.8311 272.024 26.9885C272.094 27.1459 272.219 27.292 272.389 27.4165C272.56 27.541 272.772 27.6411 273.011 27.7097C273.25 27.7783 273.51 27.8138 273.774 27.8138C274.037 27.8138 274.297 27.7783 274.536 27.7097C274.775 27.6411 274.987 27.541 275.158 27.4165C275.328 27.292 275.453 27.1459 275.523 26.9885C275.594 26.8311 275.608 26.666 275.566 26.5048V6.33981C275.572 6.18139 275.524 6.02396 275.425 5.87779C275.327 5.73163 275.179 5.60001 274.993 5.49154C274.807 5.38308 274.586 5.30019 274.345 5.2483C274.104 5.19641 273.847 5.17668 273.593 5.19041C273.534 5.1887 273.474 5.1887 273.415 5.19041ZM290.62 8.74893C290.201 8.80469 289.827 8.95067 289.565 9.16103C289.302 9.37139 289.168 9.63256 289.187 9.89833V22.9462C289.143 23.1077 289.157 23.2731 289.227 23.4309C289.297 23.5888 289.421 23.7353 289.592 23.8602C289.762 23.9851 289.975 24.0855 290.214 24.1544C290.453 24.2232 290.714 24.2589 290.978 24.2589C291.242 24.2589 291.502 24.2232 291.742 24.1544C291.981 24.0855 292.193 23.9851 292.364 23.8602C292.534 23.7353 292.659 23.5888 292.729 23.4309C292.799 23.2731 292.813 23.1077 292.769 22.9462V9.89833C292.775 9.74013 292.727 9.58292 292.629 9.43693C292.53 9.29094 292.384 9.15945 292.198 9.05102C292.012 8.94259 291.792 8.85965 291.551 8.8076C291.31 8.75555 291.054 8.73556 290.8 8.74893C290.74 8.74714 290.681 8.74714 290.62 8.74893ZM267.68 9.9351C267.261 9.99087 266.887 10.1368 266.625 10.3472C266.362 10.5576 266.228 10.8187 266.246 11.0845V21.7601C266.203 21.9215 266.217 22.0869 266.286 22.2448C266.356 22.4026 266.481 22.5491 266.652 22.674C266.822 22.799 267.034 22.8993 267.274 22.9682C267.513 23.037 267.774 23.0727 268.038 23.0727C268.301 23.0727 268.562 23.037 268.801 22.9682C269.041 22.8993 269.253 22.799 269.424 22.674C269.594 22.5491 269.719 22.4026 269.789 22.2448C269.859 22.0869 269.872 21.9215 269.829 21.7601V11.0845C269.835 10.9263 269.787 10.7691 269.689 10.6231C269.59 10.4771 269.443 10.3456 269.258 10.2372C269.072 10.1288 268.851 10.0458 268.611 9.99377C268.37 9.94172 268.114 9.92173 267.86 9.9351C267.799 9.93332 267.741 9.93332 267.68 9.9351ZM279.15 11.1213C278.731 11.177 278.357 11.323 278.095 11.5334C277.832 11.7437 277.698 12.0049 277.716 12.2707V20.5739C277.673 20.7354 277.687 20.9008 277.757 21.0586C277.827 21.2164 277.951 21.3629 278.122 21.4878C278.292 21.6128 278.504 21.7132 278.744 21.782C278.983 21.8509 279.244 21.8865 279.508 21.8865C279.772 21.8865 280.032 21.8509 280.272 21.782C280.511 21.7132 280.723 21.6128 280.894 21.4878C281.064 21.3629 281.189 21.2164 281.259 21.0586C281.329 20.9008 281.342 20.7354 281.299 20.5739V12.2707C281.305 12.1125 281.257 11.9553 281.159 11.8093C281.06 11.6633 280.913 11.5318 280.728 11.4234C280.542 11.3149 280.322 11.232 280.081 11.1799C279.84 11.1279 279.584 11.1079 279.33 11.1213C279.269 11.1195 279.211 11.1195 279.15 11.1213ZM302.09 11.1213C301.671 11.177 301.297 11.323 301.035 11.5334C300.773 11.7437 300.639 12.0049 300.657 12.2707V20.5739C300.614 20.7351 300.629 20.9002 300.699 21.0576C300.769 21.2151 300.894 21.3611 301.065 21.4857C301.235 21.6102 301.447 21.7102 301.686 21.7788C301.925 21.8474 302.186 21.883 302.449 21.883C302.712 21.883 302.972 21.8474 303.211 21.7788C303.45 21.7102 303.663 21.6102 303.833 21.4857C304.003 21.3611 304.128 21.2151 304.199 21.0576C304.269 20.9002 304.284 20.7351 304.241 20.5739V12.2707C304.247 12.1123 304.199 11.9548 304.101 11.8087C304.002 11.6625 303.855 11.5309 303.669 11.4224C303.482 11.3139 303.262 11.2311 303.02 11.1792C302.779 11.1273 302.523 11.1076 302.268 11.1213C302.209 11.1196 302.15 11.1196 302.09 11.1213ZM284.885 13.4936C284.466 13.5494 284.092 13.6954 283.83 13.9057C283.567 14.1161 283.433 14.3773 283.451 14.643V18.2015C283.408 18.363 283.422 18.5284 283.492 18.6863C283.562 18.8441 283.686 18.9906 283.857 19.1155C284.027 19.2404 284.24 19.3408 284.479 19.4097C284.718 19.4785 284.979 19.5142 285.243 19.5142C285.507 19.5142 285.767 19.4785 286.007 19.4097C286.246 19.3408 286.458 19.2404 286.629 19.1155C286.799 18.9906 286.924 18.8441 286.994 18.6863C287.064 18.5284 287.077 18.363 287.034 18.2015V14.643C287.04 14.4848 286.992 14.3276 286.894 14.1816C286.795 14.0356 286.649 13.9041 286.463 13.7957C286.277 13.6873 286.057 13.6043 285.816 13.5523C285.575 13.5002 285.319 13.4803 285.065 13.4936C285.004 13.4918 284.946 13.4918 284.885 13.4936ZM307.826 13.4936C307.406 13.5494 307.032 13.6954 306.77 13.9057C306.508 14.1161 306.374 14.3773 306.392 14.643V18.2015C306.349 18.3628 306.364 18.5279 306.434 18.6853C306.505 18.8427 306.629 18.9888 306.8 19.1133C306.97 19.2378 307.182 19.3379 307.421 19.4065C307.66 19.4751 307.921 19.5106 308.184 19.5106C308.447 19.5106 308.707 19.4751 308.946 19.4065C309.185 19.3379 309.398 19.2378 309.568 19.1133C309.739 18.9888 309.863 18.8427 309.934 18.6853C310.004 18.5279 310.019 18.3628 309.976 18.2015V14.643C309.982 14.4846 309.934 14.3272 309.836 14.181C309.737 14.0348 309.59 13.9032 309.404 13.7948C309.218 13.6863 308.997 13.6034 308.755 13.5515C308.514 13.4996 308.258 13.4799 308.003 13.4936C307.944 13.4919 307.885 13.4919 307.826 13.4936Z" fill="#F98D00"/>
</svg>
