<svg width="120" height="68" viewBox="0 0 120 68" fill="none" xmlns="http://www.w3.org/2000/svg">
<mask id="path-1-inside-1_481_3222" fill="white">
<path d="M0 34C0 15.2223 15.2223 0 34 0H86C104.778 0 120 15.2223 120 34C120 52.7777 104.778 68 86 68H34C15.2223 68 0 52.7777 0 34Z"/>
</mask>
<path d="M-1 34C-1 14.67 14.67 -1 34 -1H86C105.33 -1 121 14.67 121 34H119C119 15.7746 104.225 1 86 1H34C15.7746 1 1 15.7746 1 34H-1ZM121 36C121 55.33 105.33 71 86 71H34C14.67 71 -1 55.33 -1 36L1 34C1 51.1208 15.7746 65 34 65H86C104.225 65 119 51.1208 119 34L121 36ZM34 71C14.67 71 -1 55.33 -1 36V34C-1 14.67 14.67 -1 34 -1V1C15.7746 1 1 15.7746 1 34C1 51.1208 15.7746 65 34 65V71ZM86 -1C105.33 -1 121 14.67 121 34V36C121 55.33 105.33 71 86 71V65C104.225 65 119 51.1208 119 34C119 15.7746 104.225 1 86 1V-1Z" fill="#E2E2E2" mask="url(#path-1-inside-1_481_3222)"/>
<path d="M16.9731 40.44C16.9731 40.1333 16.9998 39.7733 17.0531 39.36C17.1065 38.9467 17.2065 38.48 17.3531 37.96C17.4998 37.4267 17.7198 36.8333 18.0131 36.18L20.4731 37.04C20.3265 37.4533 20.1998 37.8333 20.0931 38.18C19.9865 38.5133 19.9065 38.8267 19.8531 39.12C19.7998 39.4 19.7731 39.68 19.7731 39.96C19.7731 40.4 19.8665 40.7933 20.0531 41.14C20.2531 41.5 20.5398 41.8 20.9131 42.04C21.2865 42.2933 21.7398 42.4867 22.2731 42.62C22.8198 42.7533 23.4465 42.82 24.1531 42.82C24.8865 42.82 25.5398 42.7867 26.1131 42.72C26.6998 42.6533 27.1931 42.5533 27.5931 42.42C28.0065 42.2867 28.3198 42.1133 28.5331 41.9C28.7465 41.7 28.8531 41.4667 28.8531 41.2C28.8531 41.08 28.8065 40.9667 28.7131 40.86C28.6331 40.7533 28.4931 40.64 28.2931 40.52C28.1065 40.4 27.8531 40.2733 27.5331 40.14C27.2265 40.0067 26.8531 39.86 26.4131 39.7L27.0731 36.88C27.6465 37.12 28.1865 37.3333 28.6931 37.52C29.2131 37.6933 29.7065 37.84 30.1731 37.96C30.6398 38.0667 31.0798 38.1533 31.4931 38.22C31.9065 38.2733 32.2931 38.3 32.6531 38.3C33.1598 38.3 33.5198 38.4333 33.7331 38.7C33.9465 38.9533 34.0531 39.2733 34.0531 39.66C34.0531 40.0733 33.9131 40.42 33.6331 40.7C33.3531 40.9667 32.9598 41.1 32.4531 41.1C32.3465 41.1 32.2398 41.1 32.1331 41.1C32.0398 41.1 31.9398 41.1 31.8331 41.1C31.7398 41.1 31.6398 41.1 31.5331 41.1C31.5598 41.2333 31.5731 41.3467 31.5731 41.44C31.5731 41.5467 31.5731 41.6467 31.5731 41.74C31.5731 42.18 31.4198 42.6267 31.1131 43.08C30.8198 43.5333 30.3598 43.9533 29.7331 44.34C29.1065 44.7267 28.3065 45.0333 27.3331 45.26C26.3731 45.5 25.2265 45.62 23.8931 45.62C22.4531 45.62 21.2131 45.4333 20.1731 45.06C19.1465 44.7 18.3531 44.1333 17.7931 43.36C17.2465 42.6 16.9731 41.6267 16.9731 40.44ZM25.8531 50.26C25.4665 50.26 25.1331 50.12 24.8531 49.84C24.5865 49.5733 24.4531 49.2533 24.4531 48.88C24.4531 48.4933 24.5865 48.16 24.8531 47.88C25.1331 47.6 25.4665 47.46 25.8531 47.46C26.2265 47.46 26.5465 47.6 26.8131 47.88C27.0798 48.16 27.2131 48.4933 27.2131 48.88C27.2131 49.2533 27.0798 49.5733 26.8131 49.84C26.5465 50.12 26.2265 50.26 25.8531 50.26ZM22.3931 50.26C22.0065 50.26 21.6731 50.12 21.3931 49.84C21.1265 49.5733 20.9931 49.2533 20.9931 48.88C20.9931 48.4933 21.1265 48.16 21.3931 47.88C21.6731 47.6 22.0065 47.46 22.3931 47.46C22.7665 47.46 23.0865 47.6 23.3531 47.88C23.6198 48.16 23.7531 48.4933 23.7531 48.88C23.7531 49.2533 23.6198 49.5733 23.3531 49.84C23.0865 50.12 22.7665 50.26 22.3931 50.26ZM32.3692 41.1L32.5692 38.3C33.5026 38.3 34.3426 38.24 35.0892 38.12C35.8359 37.9867 36.4892 37.8133 37.0492 37.6C37.6226 37.3867 38.0959 37.14 38.4692 36.86C38.8559 36.58 39.1426 36.2867 39.3292 35.98C39.5292 35.66 39.6292 35.3467 39.6292 35.04C39.6292 34.8667 39.5826 34.7067 39.4892 34.56C39.4092 34.4 39.2692 34.2733 39.0692 34.18C38.8692 34.0733 38.5959 34.02 38.2492 34.02C38.0759 34.02 37.8692 34.04 37.6292 34.08C37.3892 34.12 37.1492 34.18 36.9092 34.26C36.6692 34.3267 36.4426 34.42 36.2292 34.54C36.5092 34.7533 36.8159 35.0267 37.1492 35.36C37.4826 35.68 37.8159 36.02 38.1492 36.38C38.4826 36.7267 38.7692 37.0667 39.0092 37.4C39.2892 37.52 39.5959 37.64 39.9292 37.76C40.2759 37.8667 40.6492 37.96 41.0492 38.04C41.4492 38.12 41.8692 38.1867 42.3092 38.24C42.7492 38.28 43.2026 38.3 43.6692 38.3C44.1759 38.3 44.5359 38.4333 44.7492 38.7C44.9759 38.9533 45.0892 39.2733 45.0892 39.66C45.0892 40.0733 44.9492 40.42 44.6692 40.7C44.3892 40.9667 43.9892 41.1 43.4692 41.1C42.4026 41.1 41.4559 41.02 40.6292 40.86C39.8026 40.6867 39.0626 40.44 38.4092 40.12C37.7692 39.7867 37.1692 39.3867 36.6092 38.92C36.4492 38.64 36.2226 38.34 35.9292 38.02C35.6492 37.6867 35.3492 37.3667 35.0292 37.06C34.7226 36.7533 34.4426 36.5 34.1892 36.3C34.1226 36.2467 34.0426 36.1067 33.9492 35.88C33.8692 35.64 33.7959 35.3933 33.7292 35.14C33.6626 34.8733 33.6292 34.6867 33.6292 34.58C33.6292 34.2733 33.7692 33.9467 34.0492 33.6C34.3426 33.2533 34.7292 32.9333 35.2092 32.64C35.7026 32.3333 36.2426 32.0867 36.8292 31.9C37.4292 31.7 38.0359 31.6 38.6492 31.6C39.4759 31.6 40.1626 31.7267 40.7092 31.98C41.2692 32.22 41.6892 32.56 41.9692 33C42.2492 33.4267 42.3892 33.9267 42.3892 34.5C42.3892 35.14 42.2492 35.78 41.9692 36.42C41.6892 37.0467 41.2759 37.64 40.7292 38.2C40.1959 38.76 39.5226 39.26 38.7092 39.7C37.9092 40.1267 36.9759 40.4667 35.9092 40.72C34.8559 40.9733 33.6759 41.1 32.3692 41.1ZM38.4292 29.74C38.0159 29.74 37.6626 29.6 37.3692 29.32C37.0892 29.04 36.9492 28.6933 36.9492 28.28C36.9492 27.8667 37.0892 27.5133 37.3692 27.22C37.6626 26.9267 38.0159 26.78 38.4292 26.78C38.8292 26.78 39.1692 26.9267 39.4492 27.22C39.7426 27.5133 39.8892 27.8667 39.8892 28.28C39.8892 28.6933 39.7426 29.04 39.4492 29.32C39.1692 29.6 38.8292 29.74 38.4292 29.74ZM43.4844 41.1L43.6844 38.3C44.311 38.3 44.751 38.24 45.0044 38.12C45.271 37.9867 45.431 37.7467 45.4844 37.4C45.5377 37.04 45.551 36.52 45.5244 35.84L45.2044 26.36H48.0444L48.3844 35.82C48.411 36.4867 48.491 37 48.6244 37.36C48.7577 37.72 48.9777 37.9667 49.2844 38.1C49.6044 38.2333 50.031 38.3 50.5644 38.3C51.071 38.3 51.431 38.4333 51.6444 38.7C51.8577 38.9533 51.9644 39.2733 51.9644 39.66C51.9644 40.0733 51.8244 40.42 51.5444 40.7C51.2644 40.9667 50.871 41.1 50.3644 41.1C49.7777 41.1 49.231 41.0333 48.7244 40.9C48.2177 40.7667 47.7977 40.5133 47.4644 40.14C47.131 39.7667 46.911 39.2267 46.8044 38.52L47.6844 38.54C47.4577 39.2333 47.1644 39.7667 46.8044 40.14C46.4444 40.5 45.991 40.7533 45.4444 40.9C44.911 41.0333 44.2577 41.1 43.4844 41.1ZM50.3594 41.1L50.5594 38.3C51.3594 38.3 51.9727 38.26 52.3994 38.18C52.826 38.1 53.1194 37.9533 53.2794 37.74C53.4527 37.5133 53.5394 37.1933 53.5394 36.78C53.5394 36.4067 53.486 35.96 53.3794 35.44C53.286 34.92 53.1594 34.38 52.9994 33.82C52.8527 33.26 52.6927 32.7467 52.5194 32.28L55.2794 31.52C55.4527 31.9733 55.6194 32.5 55.7794 33.1C55.9394 33.7 56.0727 34.32 56.1794 34.96C56.286 35.5867 56.3394 36.1933 56.3394 36.78C56.3394 37.6867 56.1927 38.4267 55.8994 39C55.606 39.56 55.1927 39.9933 54.6594 40.3C54.1394 40.6067 53.5127 40.82 52.7794 40.94C52.046 41.0467 51.2394 41.1 50.3594 41.1ZM55.2994 45.74C54.9127 45.74 54.5794 45.6 54.2994 45.32C54.0327 45.0533 53.8994 44.7333 53.8994 44.36C53.8994 43.9733 54.0327 43.64 54.2994 43.36C54.5794 43.08 54.9127 42.94 55.2994 42.94C55.6727 42.94 55.9927 43.08 56.2594 43.36C56.526 43.64 56.6594 43.9733 56.6594 44.36C56.6594 44.7333 56.526 45.0533 56.2594 45.32C55.9927 45.6 55.6727 45.74 55.2994 45.74ZM51.8394 45.74C51.4527 45.74 51.1194 45.6 50.8394 45.32C50.5727 45.0533 50.4394 44.7333 50.4394 44.36C50.4394 43.9733 50.5727 43.64 50.8394 43.36C51.1194 43.08 51.4527 42.94 51.8394 42.94C52.2127 42.94 52.5327 43.08 52.7994 43.36C53.066 43.64 53.1994 43.9733 53.1994 44.36C53.1994 44.7333 53.066 45.0533 52.7994 45.32C52.5327 45.6 52.2127 45.74 51.8394 45.74Z" fill="#454545"/>
<path d="M86 19.375C83.1075 19.375 80.2799 20.2327 77.8748 21.8398C75.4697 23.4468 73.5952 25.7309 72.4883 28.4033C71.3813 31.0756 71.0917 34.0162 71.656 36.8532C72.2203 39.6902 73.6132 42.2961 75.6586 44.3414C77.7039 46.3868 80.3098 47.7797 83.1468 48.344C85.9838 48.9083 88.9244 48.6187 91.5968 47.5117C94.2691 46.4048 96.5532 44.5303 98.1602 42.1252C99.7673 39.7201 100.625 36.8926 100.625 34C100.621 30.1225 99.0788 26.4049 96.3369 23.6631C93.5951 20.9213 89.8775 19.3791 86 19.375ZM91.2959 37.7041C91.4005 37.8086 91.4834 37.9327 91.5399 38.0692C91.5965 38.2058 91.6256 38.3522 91.6256 38.5C91.6256 38.6478 91.5965 38.7942 91.5399 38.9308C91.4834 39.0673 91.4005 39.1914 91.2959 39.2959C91.1914 39.4005 91.0673 39.4834 90.9308 39.5399C90.7942 39.5965 90.6478 39.6256 90.5 39.6256C90.3522 39.6256 90.2058 39.5965 90.0692 39.5399C89.9327 39.4834 89.8086 39.4005 89.7041 39.2959L86 35.5905L82.2959 39.2959C82.1914 39.4005 82.0673 39.4834 81.9308 39.5399C81.7942 39.5965 81.6478 39.6256 81.5 39.6256C81.3522 39.6256 81.2058 39.5965 81.0692 39.5399C80.9327 39.4834 80.8086 39.4005 80.7041 39.2959C80.5995 39.1914 80.5166 39.0673 80.4601 38.9308C80.4035 38.7942 80.3744 38.6478 80.3744 38.5C80.3744 38.3522 80.4035 38.2058 80.4601 38.0692C80.5166 37.9327 80.5995 37.8086 80.7041 37.7041L84.4095 34L80.7041 30.2959C80.493 30.0848 80.3744 29.7985 80.3744 29.5C80.3744 29.2015 80.493 28.9152 80.7041 28.7041C80.9152 28.493 81.2015 28.3744 81.5 28.3744C81.7985 28.3744 82.0848 28.493 82.2959 28.7041L86 32.4095L89.7041 28.7041C89.8086 28.5995 89.9327 28.5166 90.0692 28.4601C90.2058 28.4035 90.3522 28.3744 90.5 28.3744C90.6478 28.3744 90.7942 28.4035 90.9308 28.4601C91.0673 28.5166 91.1914 28.5995 91.2959 28.7041C91.4005 28.8086 91.4834 28.9327 91.5399 29.0692C91.5965 29.2058 91.6256 29.3522 91.6256 29.5C91.6256 29.6478 91.5965 29.7942 91.5399 29.9308C91.4834 30.0673 91.4005 30.1914 91.2959 30.2959L87.5905 34L91.2959 37.7041Z" fill="#EF5151"/>
</svg>
