<svg width="24" height="24" viewBox="0 0 24 24" fill="none" xmlns="http://www.w3.org/2000/svg">
    <path d="M12.75 6.75V10.7869L16.1644 9.07875C16.2525 9.03468 16.3485 9.0084 16.4468 9.00141C16.5451 8.99443 16.6438 9.00687 16.7373 9.03804C16.8308 9.0692 16.9173 9.11848 16.9917 9.18305C17.0662 9.24762 17.1272 9.32623 17.1713 9.41438C17.2153 9.50253 17.2416 9.5985 17.2486 9.6968C17.2556 9.79511 17.2431 9.89383 17.212 9.98733C17.1808 10.0808 17.1315 10.1673 17.067 10.2417C17.0024 10.3162 16.9238 10.3772 16.8356 10.4213L12.3356 12.6713C12.2212 12.7285 12.0941 12.7555 11.9663 12.7498C11.8386 12.744 11.7144 12.7057 11.6056 12.6385C11.4968 12.5712 11.407 12.4772 11.3448 12.3655C11.2825 12.2537 11.2499 12.1279 11.25 12V6.75C11.25 6.55109 11.329 6.36033 11.4697 6.21967C11.6103 6.07902 11.8011 6 12 6C12.1989 6 12.3897 6.07902 12.5303 6.21967C12.671 6.36033 12.75 6.55109 12.75 6.75ZM12 20.25C10.3683 20.25 8.77326 19.7661 7.41655 18.8596C6.05984 17.9531 5.00242 16.6646 4.378 15.1571C3.75358 13.6497 3.5902 11.9909 3.90853 10.3905C4.22685 8.79017 5.01259 7.32016 6.16637 6.16637C7.32016 5.01259 8.79017 4.22685 10.3905 3.90853C11.9909 3.5902 13.6497 3.75358 15.1571 4.378C16.6646 5.00242 17.9531 6.05984 18.8596 7.41655C19.7661 8.77326 20.25 10.3683 20.25 12C20.25 12.1989 20.329 12.3897 20.4697 12.5303C20.6103 12.671 20.8011 12.75 21 12.75C21.1989 12.75 21.3897 12.671 21.5303 12.5303C21.671 12.3897 21.75 12.1989 21.75 12C21.75 10.0716 21.1782 8.18657 20.1068 6.58319C19.0355 4.97982 17.5127 3.73013 15.7312 2.99218C13.9496 2.25422 11.9892 2.06114 10.0979 2.43735C8.20656 2.81355 6.46928 3.74215 5.10571 5.10571C3.74215 6.46928 2.81355 8.20656 2.43735 10.0979C2.06114 11.9892 2.25422 13.9496 2.99218 15.7312C3.73013 17.5127 4.97982 19.0355 6.58319 20.1068C8.18657 21.1782 10.0716 21.75 12 21.75C12.1989 21.75 12.3897 21.671 12.5303 21.5303C12.671 21.3897 12.75 21.1989 12.75 21C12.75 20.8011 12.671 20.6103 12.5303 20.4697C12.3897 20.329 12.1989 20.25 12 20.25Z" fill="#4B5563"/>
</svg>
