<svg width="503" height="94" viewBox="0 0 503 94" fill="none" xmlns="http://www.w3.org/2000/svg">
<path d="M454.793 78.1743C454.793 75.3274 455.831 73.0163 457.908 71.2411C459.784 69.6334 462.363 68.8296 465.645 68.8296C468.458 68.8296 470.837 69.533 472.779 70.9397C475.693 73.0498 477.15 76.2484 477.15 80.5356C477.15 84.3874 476.212 87.6028 474.337 90.1818C472.427 92.7273 469.899 94.0001 466.75 94.0001C464.037 94.0001 461.894 92.9953 460.32 90.9857C459.114 91.9905 457.757 92.4929 456.25 92.4929H445.75V86.0119H454.039C454.274 86.0119 454.458 85.9449 454.592 85.8109C454.726 85.6434 454.793 85.476 454.793 85.3085V78.1743ZM462.53 86.0119C463.3 86.9832 464.288 87.4688 465.494 87.4688C466.7 87.4688 467.671 86.8994 468.408 85.7606C469.145 84.6219 469.514 83.1146 469.514 81.239C469.514 79.2294 469.128 77.7054 468.358 76.6671C467.621 75.7293 466.616 75.2604 465.344 75.2604C464.506 75.2604 463.803 75.5618 463.233 76.1647C462.765 76.7676 462.53 77.4542 462.53 78.2246V86.0119Z" fill="#3F3F3F"/>
<path d="M422.538 86.0119C422.236 84.5046 422.085 82.6792 422.085 80.5356C422.085 76.6504 423.358 73.6192 425.904 71.4421C427.98 69.7004 430.509 68.8296 433.49 68.8296C436.839 68.8296 439.469 69.6334 441.378 71.2411C443.454 73.0163 444.493 75.3274 444.493 78.1743V85.3085C444.493 85.5094 444.56 85.6769 444.694 85.8109C444.861 85.9449 445.062 86.0119 445.296 86.0119H446.1V92.4929H443.036C441.495 92.4929 440.122 91.9905 438.916 90.9857C437.342 92.9953 435.165 94.0001 432.385 94.0001C429.672 94.0001 427.344 92.945 425.401 90.8349H425.2L423.894 92.4929H414.399V86.0119H422.538ZM436.756 78.2246C436.756 77.4542 436.504 76.7676 436.002 76.1647C435.433 75.5618 434.662 75.2604 433.691 75.2604C432.452 75.2604 431.48 75.7628 430.777 76.7676C430.074 77.7389 429.722 79.0954 429.722 80.8371C429.722 85.2917 430.928 87.5191 433.339 87.5191C434.512 87.5191 435.65 87.0167 436.756 86.0119V78.2246Z" fill="#3F3F3F"/>
<path d="M400.082 58.3293C401.154 58.3293 402.075 58.7145 402.846 59.4849C403.616 60.2552 404.001 61.1763 404.001 62.2481C404.001 63.3199 403.616 64.241 402.846 65.0113C402.075 65.7817 401.154 66.1669 400.082 66.1669C398.977 66.1669 398.039 65.7817 397.269 65.0113C396.532 64.241 396.164 63.3199 396.164 62.2481C396.164 61.1428 396.532 60.2217 397.269 59.4849C398.039 58.7145 398.977 58.3293 400.082 58.3293ZM409.075 58.3293C410.147 58.3293 411.068 58.7145 411.839 59.4849C412.609 60.2552 412.994 61.1763 412.994 62.2481C412.994 63.3199 412.609 64.241 411.839 65.0113C411.068 65.7817 410.147 66.1669 409.075 66.1669C407.97 66.1669 407.032 65.7817 406.262 65.0113C405.525 64.241 405.157 63.3199 405.157 62.2481C405.157 61.1428 405.525 60.2217 406.262 59.4849C407.032 58.7145 407.97 58.3293 409.075 58.3293ZM412.241 69.3823V85.5597C412.241 85.6937 412.257 85.8444 412.291 86.0119H414.753V92.4929H413.195L410.985 90.1819H410.884C409.611 91.7226 407.97 92.4929 405.96 92.4929H395.46V86.0119H403.499C403.8 86.0119 404.035 85.9114 404.202 85.7104C404.403 85.543 404.503 85.3085 404.503 85.0071V69.3823H412.241Z" fill="#3F3F3F"/>
<path d="M367.854 78.7773C369.094 75.093 371.271 72.4135 374.386 70.7388C376.596 69.4995 379.158 68.8799 382.072 68.8799C384.819 68.8799 387.297 69.6167 389.508 71.0905C392.187 72.7986 394.113 75.3609 395.286 78.7773L394.683 80.3347C393.912 80.7701 392.891 81.5907 391.618 82.7965C390.412 84.0023 389.525 85.0741 388.955 86.0119H395.788V92.4929H383.982C383.178 92.4929 382.407 92.091 381.67 91.2872H381.469C380.733 92.091 379.912 92.4929 379.008 92.4929H360.871V86.0119H374.185C373.649 85.0741 372.778 84.0358 371.572 82.897C370.266 81.5907 369.228 80.7367 368.457 80.3347L367.854 78.7773ZM387.297 78.4758C386.795 77.2701 385.857 76.3992 384.484 75.8633C383.647 75.5284 382.726 75.3609 381.721 75.3609C380.414 75.3609 379.242 75.5954 378.204 76.0643C377.032 76.6002 376.244 77.404 375.843 78.4758C376.512 78.8777 377.467 79.7988 378.706 81.2391C380.113 82.8468 381.017 84.153 381.419 85.1578H381.721C382.19 83.9855 383.178 82.5956 384.685 80.9879C385.79 79.7151 386.661 78.8777 387.297 78.4758Z" fill="#3F3F3F"/>
<path d="M345.756 58.3293C346.861 58.3293 347.799 58.7145 348.57 59.4849C349.34 60.2552 349.725 61.1763 349.725 62.2481C349.725 63.3199 349.34 64.241 348.57 65.0113C347.799 65.7817 346.861 66.1669 345.756 66.1669C344.684 66.1669 343.763 65.7817 342.993 65.0113C342.223 64.241 341.837 63.3199 341.837 62.2481C341.837 61.1428 342.223 60.2217 342.993 59.4849C343.763 58.7145 344.684 58.3293 345.756 58.3293ZM354.749 58.3293C355.854 58.3293 356.792 58.7145 357.563 59.4849C358.333 60.2552 358.718 61.1763 358.718 62.2481C358.718 63.3199 358.333 64.241 357.563 65.0113C356.792 65.7817 355.854 66.1669 354.749 66.1669C353.677 66.1669 352.756 65.7817 351.986 65.0113C351.249 64.241 350.881 63.3199 350.881 62.2481C350.881 61.1428 351.249 60.2217 351.986 59.4849C352.756 58.7145 353.677 58.3293 354.749 58.3293ZM358.718 68.0258V85.3085C358.718 85.5095 358.785 85.6769 358.919 85.8109C359.053 85.9449 359.254 86.0119 359.522 86.0119H361.23V92.4929H357.261C355.553 92.4929 353.996 91.823 352.589 90.4833C350.948 92.1245 348.972 92.9451 346.66 92.9451H346.61H346.51C343.16 92.9451 340.531 91.5551 338.622 88.7751C337.081 86.598 336.311 84.0023 336.311 80.9878C336.311 77.3035 337.483 74.2556 339.828 71.8441C341.938 69.667 344.567 68.5784 347.716 68.5784C349.424 68.5784 351.115 68.9301 352.79 69.6335L354.85 68.0258H358.718ZM350.931 75.6121C350.127 75.4111 349.373 75.3107 348.67 75.3107C347.196 75.3107 346.041 75.8131 345.203 76.8179C344.366 77.8227 343.947 79.2127 343.947 80.9878C343.947 82.6625 344.4 84.0358 345.304 85.1076C346.242 86.1794 347.448 86.7153 348.921 86.7153C349.491 86.7153 350.161 86.6315 350.931 86.4641V75.6121Z" fill="#3F3F3F"/>
<path d="M463.079 1.80859C464.151 1.80859 465.072 2.19377 465.842 2.96413C466.613 3.73448 466.998 4.65556 466.998 5.72735C466.998 6.79915 466.613 7.72023 465.842 8.49058C465.072 9.26094 464.151 9.64612 463.079 9.64612C461.974 9.64612 461.036 9.26094 460.266 8.49058C459.529 7.72023 459.161 6.79915 459.161 5.72735C459.161 4.62206 459.529 3.70099 460.266 2.96413C461.036 2.19377 461.974 1.80859 463.079 1.80859ZM472.072 1.80859C473.144 1.80859 474.065 2.19377 474.836 2.96413C475.606 3.73448 475.991 4.65556 475.991 5.72735C475.991 6.79915 475.606 7.72023 474.836 8.49058C474.065 9.26094 473.144 9.64612 472.072 9.64612C470.967 9.64612 470.029 9.26094 469.259 8.49058C468.522 7.72023 468.154 6.79915 468.154 5.72735C468.154 4.62206 468.522 3.70099 469.259 2.96413C470.029 2.19377 470.967 1.80859 472.072 1.80859ZM473.237 12.8615C474.342 12.8615 475.237 13.7569 475.237 14.8615V29.7423C475.237 31.2161 474.752 32.5391 473.78 33.7113C472.508 35.2186 470.9 35.9722 468.957 35.9722H458.457V29.4911H466.747C466.948 29.4911 467.115 29.4409 467.249 29.3404C467.417 29.2064 467.5 29.0222 467.5 28.7878V14.8615C467.5 13.7569 468.396 12.8615 469.5 12.8615H473.237Z" fill="#3F3F3F"/>
<path d="M430.851 22.2565C432.09 18.5722 434.267 15.8927 437.382 14.218C439.593 12.9788 442.155 12.3591 445.069 12.3591C447.816 12.3591 450.294 13.096 452.505 14.5697C455.184 16.2779 457.11 18.8402 458.282 22.2565L457.68 23.814C456.909 24.2494 455.888 25.07 454.615 26.2758C453.409 27.4815 452.522 28.5533 451.952 29.4912H458.785V35.9722H446.978C446.174 35.9722 445.404 35.5703 444.667 34.7664H444.466C443.729 35.5703 442.909 35.9722 442.005 35.9722H423.868V29.4912H437.181C436.645 28.5533 435.775 27.515 434.569 26.3762C433.263 25.07 432.224 24.2159 431.454 23.814L430.851 22.2565ZM450.294 21.9551C449.792 20.7493 448.854 19.8785 447.481 19.3426C446.643 19.0076 445.722 18.8402 444.717 18.8402C443.411 18.8402 442.239 19.0746 441.201 19.5435C440.028 20.0794 439.241 20.8833 438.839 21.9551C439.509 22.357 440.464 23.2781 441.703 24.7183C443.11 26.326 444.014 27.6323 444.416 28.6371H444.717C445.186 27.4648 446.174 26.0748 447.682 24.4671C448.787 23.1943 449.658 22.357 450.294 21.9551Z" fill="#3F3F3F"/>
<path d="M419.71 0C420.814 0 421.71 0.895431 421.71 2V29.039C421.71 29.173 421.727 29.3237 421.76 29.4912H424.222V35.9722H422.614L420.454 33.6612H420.353C419.081 35.2019 417.439 35.9722 415.43 35.9722H404.929V29.4912H413.219C413.42 29.4912 413.571 29.441 413.671 29.3405C413.872 29.2065 413.973 29.0223 413.973 28.7878V2C413.973 0.895429 414.868 0 415.973 0H419.71Z" fill="#3F3F3F"/>
<path d="M382.802 29.4911C381.797 27.4479 381.294 25.3378 381.294 23.1607C381.294 19.8114 382.55 17.0816 385.062 14.9715C387.206 13.1629 389.751 12.2585 392.699 12.2585C395.981 12.2585 398.611 13.0959 400.587 14.7706C402.63 16.4788 403.651 18.7731 403.651 21.6535V28.7877C403.651 29.0221 403.735 29.1896 403.903 29.2901C404.037 29.4241 404.221 29.4911 404.455 29.4911H405.259V35.9721H402.194C400.955 35.9721 399.95 35.7376 399.18 35.2687C398.778 35.0343 398.242 34.5988 397.572 33.9625C397.07 34.4984 396.45 34.917 395.713 35.2185C394.575 35.7209 393.302 35.9721 391.895 35.9721H385.866C385.397 35.9721 385.163 36.2065 385.163 36.6754V50.6318C385.163 51.2415 384.885 51.818 384.407 52.1974L381.791 54.2774C381.437 54.5587 380.998 54.7118 380.546 54.7118H379.426C378.321 54.7118 377.426 53.8164 377.426 52.7118V35.6706C377.426 34.1634 377.911 32.8404 378.883 31.7016C380.156 30.2279 381.562 29.4911 383.103 29.4911H382.802ZM395.914 21.7038C395.914 20.7994 395.613 20.0626 395.01 19.4932C394.474 18.9908 393.838 18.7396 393.101 18.7396C390.321 18.7396 388.931 20.498 388.931 24.0148C388.931 25.79 389.366 27.1967 390.237 28.235C391.108 29.2398 392.297 29.7423 393.804 29.7423C394.374 29.7423 395.077 29.6585 395.914 29.4911V21.7038Z" fill="#3F3F3F"/>
<path d="M359.973 0C361.077 0 361.973 0.895431 361.973 2V33.1076C361.973 33.7119 361.7 34.2838 361.23 34.6635L358.604 36.7841C358.248 37.0715 357.805 37.2282 357.347 37.2282H356.236C355.131 37.2282 354.236 36.3328 354.236 35.2282V2C354.236 0.895429 355.131 0 356.236 0H359.973Z" fill="#3F3F3F"/>
<path d="M345.281 0C346.386 0 347.281 0.895431 347.281 2V29.7424C347.281 31.2161 346.812 32.5391 345.874 33.7114C344.602 35.2186 342.977 35.9722 341.001 35.9722H330.501V29.4912H338.79C338.991 29.4912 339.159 29.441 339.293 29.3405C339.46 29.2065 339.544 29.0223 339.544 28.7878V2C339.544 0.895429 340.439 0 341.544 0H345.281Z" fill="#3F3F3F"/>
<path d="M299.886 19.0412C304.14 14.4861 309.164 12.2085 314.958 12.2085C319.112 12.2085 322.578 13.4478 325.358 15.9263C327.937 18.2374 329.227 21.1681 329.227 24.7184V27.5319C329.227 27.9338 329.243 28.5869 329.277 29.4912H330.834V35.9723H329.88L327.971 33.6612H327.87C326.597 35.2019 324.973 35.9723 322.997 35.9723H283.106V29.4912H292.149V14.8616C292.149 13.7571 293.045 12.8616 294.149 12.8616H297.886C298.991 12.8616 299.886 13.7571 299.886 14.8616V19.0412ZM321.49 25.5725C321.456 23.3954 320.585 21.6705 318.877 20.3977C317.47 19.3594 315.846 18.8402 314.004 18.8402C309.985 18.8402 306.3 20.8164 302.951 24.7686C302.75 25.1036 302.398 25.6227 301.896 26.3261C300.958 27.6993 300.271 28.7544 299.836 29.4912H320.736C321.238 29.4912 321.49 29.2568 321.49 28.7879V25.5725Z" fill="#3F3F3F"/>
<path d="M278.948 12.8616C280.053 12.8616 280.948 13.757 280.948 14.8616V29.039C280.948 29.173 280.965 29.3237 280.998 29.4912H283.51V35.9722H281.953L279.742 33.6612H279.591C278.352 35.2019 276.728 35.9722 274.718 35.9722H264.218V29.4912H272.206C272.541 29.4912 272.792 29.3907 272.96 29.1897C273.127 29.0223 273.211 28.7878 273.211 28.4864V14.8616C273.211 13.757 274.106 12.8616 275.211 12.8616H278.948ZM267.986 38.2833C269.091 38.2833 270.029 38.6685 270.799 39.4388C271.57 40.2092 271.955 41.147 271.955 42.2523C271.955 43.3241 271.57 44.2452 270.799 45.0155C270.029 45.7859 269.091 46.1711 267.986 46.1711C266.914 46.1711 265.993 45.7859 265.223 45.0155C264.452 44.2452 264.067 43.3241 264.067 42.2523C264.067 41.147 264.452 40.2092 265.223 39.4388C265.993 38.6685 266.914 38.2833 267.986 38.2833ZM276.979 38.2833C278.084 38.2833 279.022 38.6685 279.792 39.4388C280.563 40.2092 280.948 41.147 280.948 42.2523C280.948 43.3241 280.563 44.2452 279.792 45.0155C279.022 45.7859 278.084 46.1711 276.979 46.1711C275.907 46.1711 274.986 45.7859 274.216 45.0155C273.479 44.2452 273.11 43.3241 273.11 42.2523C273.11 41.147 273.479 40.2092 274.216 39.4388C274.986 38.6685 275.907 38.2833 276.979 38.2833Z" fill="#3F3F3F"/>
<path d="M258.091 1.80859C259.196 1.80859 260.117 2.19377 260.854 2.96413C261.624 3.70099 262.01 4.62206 262.01 5.72735C262.01 6.79915 261.624 7.72023 260.854 8.49058C260.117 9.26094 259.196 9.64612 258.091 9.64612C257.019 9.64612 256.098 9.26094 255.328 8.49058C254.557 7.72023 254.172 6.79915 254.172 5.72735C254.172 4.65556 254.557 3.73448 255.328 2.96413C256.098 2.19377 257.019 1.80859 258.091 1.80859ZM260.01 12.8615C261.114 12.8615 262.01 13.7569 262.01 14.8615V29.039C262.01 29.1729 262.026 29.3237 262.06 29.4911H264.522V35.9722H262.964L260.754 33.6611H260.653C259.38 35.2018 257.739 35.9722 255.73 35.9722H245.229V29.4911H253.268C253.569 29.4911 253.804 29.3906 253.971 29.1897C254.172 29.0222 254.273 28.7878 254.273 28.4863V14.8615C254.273 13.7569 255.168 12.8615 256.273 12.8615H260.01Z" fill="#3F3F3F"/>
<path d="M241.071 12.8616C242.176 12.8616 243.071 13.757 243.071 14.8616V29.039C243.071 29.173 243.088 29.3237 243.122 29.4912H245.634V35.9722H244.076L241.866 33.6612H241.715C240.476 35.2019 238.851 35.9722 236.841 35.9722H226.341V29.4912H234.329C234.664 29.4912 234.916 29.3907 235.083 29.1897C235.251 29.0223 235.334 28.7878 235.334 28.4864V14.8616C235.334 13.757 236.23 12.8616 237.334 12.8616H241.071ZM230.109 38.2833C231.215 38.2833 232.152 38.6685 232.923 39.4388C233.693 40.2092 234.078 41.147 234.078 42.2523C234.078 43.3241 233.693 44.2452 232.923 45.0155C232.152 45.7859 231.215 46.1711 230.109 46.1711C229.037 46.1711 228.116 45.7859 227.346 45.0155C226.576 44.2452 226.19 43.3241 226.19 42.2523C226.19 41.147 226.576 40.2092 227.346 39.4388C228.116 38.6685 229.037 38.2833 230.109 38.2833ZM239.102 38.2833C240.208 38.2833 241.145 38.6685 241.916 39.4388C242.686 40.2092 243.071 41.147 243.071 42.2523C243.071 43.3241 242.686 44.2452 241.916 45.0155C241.145 45.7859 240.208 46.1711 239.102 46.1711C238.031 46.1711 237.109 45.7859 236.339 45.0155C235.602 44.2452 235.234 43.3241 235.234 42.2523C235.234 41.147 235.602 40.2092 236.339 39.4388C237.109 38.6685 238.031 38.2833 239.102 38.2833Z" fill="#3F3F3F"/>
<path d="M211.176 1.80859C212.282 1.80859 213.219 2.19377 213.99 2.96413C214.76 3.73448 215.145 4.65556 215.145 5.72735C215.145 6.79915 214.76 7.72023 213.99 8.49058C213.219 9.26094 212.282 9.64612 211.176 9.64612C210.104 9.64612 209.183 9.26094 208.413 8.49058C207.643 7.72023 207.257 6.79915 207.257 5.72735C207.257 4.62206 207.643 3.70099 208.413 2.96413C209.183 2.19377 210.104 1.80859 211.176 1.80859ZM220.169 1.80859C221.275 1.80859 222.212 2.19377 222.983 2.96413C223.753 3.73448 224.138 4.65556 224.138 5.72735C224.138 6.79915 223.753 7.72023 222.983 8.49058C222.212 9.26094 221.275 9.64612 220.169 9.64612C219.098 9.64612 218.176 9.26094 217.406 8.49058C216.669 7.72023 216.301 6.79915 216.301 5.72735C216.301 4.62206 216.669 3.70099 217.406 2.96413C218.176 2.19377 219.098 1.80859 220.169 1.80859ZM222.138 11.505C223.243 11.505 224.138 12.4004 224.138 13.505V28.7878C224.138 28.9887 224.205 29.1562 224.339 29.2902C224.473 29.4241 224.674 29.4911 224.942 29.4911H226.65V35.9722H222.681C220.973 35.9722 219.416 35.3023 218.009 33.9625C216.368 35.6037 214.392 36.4243 212.081 36.4243H212.03H211.93C208.58 36.4243 205.951 35.0343 204.042 32.2544C202.501 30.0773 201.731 27.4815 201.731 24.4671C201.731 20.7828 202.903 17.7348 205.248 15.3233C207.358 13.1462 209.987 12.0577 213.136 12.0577C214.844 12.0577 216.535 12.4093 218.21 13.1127L219.727 11.9284C220.079 11.654 220.512 11.505 220.958 11.505H222.138ZM216.351 19.0913C215.547 18.8904 214.794 18.7899 214.09 18.7899C212.616 18.7899 211.461 19.2923 210.624 20.2971C209.786 21.3019 209.368 22.6919 209.368 24.4671C209.368 26.1418 209.82 27.515 210.724 28.5868C211.662 29.6586 212.868 30.1945 214.341 30.1945C214.911 30.1945 215.581 30.1108 216.351 29.9433V19.0913Z" fill="#3F3F3F"/>
<path d="M184.256 12.8616C185.361 12.8616 186.256 13.757 186.256 14.8616V29.7424C186.256 31.2161 185.771 32.5391 184.799 33.7114C183.527 35.2186 181.919 35.9722 179.976 35.9722H169.476V29.4912H177.766C177.967 29.4912 178.134 29.441 178.268 29.3405C178.436 29.2065 178.519 29.0223 178.519 28.7878V14.8616C178.519 13.757 179.415 12.8616 180.519 12.8616H184.256ZM181.383 38.2833C182.455 38.2833 183.376 38.6685 184.146 39.4388C184.917 40.2092 185.302 41.147 185.302 42.2523C185.302 43.3241 184.917 44.2452 184.146 45.0155C183.376 45.7859 182.455 46.1711 181.383 46.1711C180.278 46.1711 179.34 45.7859 178.569 45.0155C177.833 44.2452 177.464 43.3241 177.464 42.2523C177.464 41.147 177.833 40.2092 178.569 39.4388C179.34 38.6685 180.278 38.2833 181.383 38.2833Z" fill="#3F3F3F"/>
<path d="M136.856 0C137.963 0 138.859 0.89865 138.856 2.00528L138.811 19.0412C143.031 14.486 148.039 12.2085 153.833 12.2085C158.053 12.2085 161.553 13.4477 164.333 15.9262C166.912 18.2373 168.202 21.168 168.202 24.7183V27.783C168.202 28.5534 168.202 29.1228 168.202 29.4912H169.81V35.9722H169.797C169.2 35.9722 168.635 35.7059 168.255 35.246L166.946 33.6612H166.845C165.573 35.2019 163.948 35.9722 161.972 35.9722H122.081V29.4912H131.124V2C131.124 0.895429 132.02 0 133.124 0H136.856ZM160.465 25.5724C160.431 23.3284 159.494 21.5699 157.651 20.2972C156.312 19.3259 154.754 18.8402 152.979 18.8402C150.835 18.8402 148.692 19.5101 146.548 20.8498C143.567 22.692 140.988 25.5724 138.811 29.4912H159.711C160.214 29.4912 160.465 29.2567 160.465 28.7878V25.5724Z" fill="#3F3F3F"/>
<path d="M117.914 12.8616C119.019 12.8616 119.914 13.757 119.914 14.8616V29.4912H122.426V35.9722H119.814C119.445 39.824 117.771 42.8719 114.79 45.116C112.278 46.9582 109.33 47.8792 105.947 47.8792C105.737 47.8792 105.454 47.8737 105.101 47.8628C104.522 47.8448 103.981 47.5688 103.62 47.1157L101.358 44.2793C101.142 44.0078 101.024 43.6709 101.024 43.3237V41.7596C101.024 41.483 101.302 41.2634 101.576 41.2977C102.447 41.4652 103.218 41.5489 103.888 41.5489C106.667 41.4819 108.727 40.7786 110.067 39.4388C111.44 38.0656 112.127 35.9722 112.127 33.1587V14.8616C112.127 13.757 113.022 12.8616 114.127 12.8616H117.914Z" fill="#3F3F3F"/>
<path d="M98.041 12.8616V29.7424C98.041 31.2161 97.5553 32.5391 96.584 33.7114C95.3112 35.2186 93.7035 35.9722 91.7609 35.9722H81.2606V29.4912H89.5503C89.7513 29.4912 89.9187 29.441 90.0527 29.3405C90.2202 29.2065 90.3039 29.0223 90.3039 28.7878V12.8616H98.041ZM85.3301 38.2833C86.4019 38.2833 87.323 38.6685 88.0933 39.4388C88.8637 40.2092 89.2489 41.147 89.2489 42.2523C89.2489 43.3241 88.8637 44.2452 88.0933 45.0155C87.323 45.7859 86.4019 46.1711 85.3301 46.1711C84.2248 46.1711 83.287 45.7859 82.5166 45.0155C81.7798 44.2452 81.4113 43.3241 81.4113 42.2523C81.4113 41.147 81.7798 40.2092 82.5166 39.4388C83.287 38.6685 84.2248 38.2833 85.3301 38.2833ZM94.3232 38.2833C95.395 38.2833 96.316 38.6685 97.0864 39.4388C97.8567 40.2092 98.2419 41.147 98.2419 42.2523C98.2419 43.3241 97.8567 44.2452 97.0864 45.0155C96.316 45.7859 95.395 46.1711 94.3232 46.1711C93.2179 46.1711 92.28 45.7859 91.5097 45.0155C90.7728 44.2452 90.4044 43.3241 90.4044 42.2523C90.4044 41.147 90.7728 40.2092 91.5097 39.4388C92.28 38.6685 93.2179 38.2833 94.3232 38.2833Z" fill="#3F3F3F"/>
<path d="M64.4791 1.80859C65.5844 1.80859 66.5055 2.19377 67.2423 2.96413C68.0127 3.70099 68.3979 4.62206 68.3979 5.72735C68.3979 6.79915 68.0127 7.72023 67.2423 8.49058C66.472 9.26094 65.5509 9.64612 64.4791 9.64612C63.4073 9.64612 62.4862 9.26094 61.7159 8.49058C60.9455 7.72023 60.5604 6.79915 60.5604 5.72735C60.5604 4.65556 60.9288 3.73448 61.6656 2.96413C62.436 2.19377 63.3738 1.80859 64.4791 1.80859ZM73.4722 1.80859C74.5775 1.80859 75.4985 2.19377 76.2354 2.96413C77.0058 3.70099 77.3909 4.62206 77.3909 5.72735C77.3909 6.79915 77.0058 7.72023 76.2354 8.49058C75.465 9.26094 74.544 9.64612 73.4722 9.64612C72.4004 9.64612 71.4793 9.26094 70.7089 8.49058C69.9386 7.72023 69.5534 6.79915 69.5534 5.72735C69.5534 4.65556 69.9218 3.73448 70.6587 2.96413C71.4291 2.19377 72.3669 1.80859 73.4722 1.80859ZM59.1034 29.4911C58.1321 27.5485 57.6464 25.4886 57.6464 23.3115C57.6464 21.3019 58.0986 19.4598 59.0029 17.7851C60.0077 16.0769 61.3977 14.7372 63.1729 13.7658C64.948 12.761 66.9074 12.2586 69.051 12.2586C72.2664 12.2586 74.9794 13.3304 77.19 15.474C79.3671 17.5841 80.4556 20.1966 80.4556 23.3115C80.4556 25.5221 79.9699 27.582 78.9986 29.4911H81.6614V35.9722H73.8239C71.7472 35.9722 70.1898 35.6707 69.1515 35.0678H68.85C67.8117 35.6707 66.2375 35.9722 64.1274 35.9722H49.9094V29.4911H59.1034ZM69.0008 29.3906C71.5128 28.8882 72.7688 27.0963 72.7688 24.0149C72.7353 22.4742 72.3669 21.2182 71.6635 20.2469C70.9936 19.2421 70.1061 18.7397 69.0008 18.7397C67.929 18.7397 67.0414 19.2421 66.338 20.2469C65.6346 21.2517 65.283 22.5077 65.283 24.0149C65.283 27.0628 66.5222 28.8547 69.0008 29.3906Z" fill="#3F3F3F"/>
<path d="M34.7947 1.80859C35.9 1.80859 36.8378 2.19377 37.6082 2.96413C38.3785 3.73448 38.7637 4.65556 38.7637 5.72735C38.7637 6.79915 38.3785 7.72023 37.6082 8.49058C36.8378 9.26094 35.9 9.64612 34.7947 9.64612C33.7229 9.64612 32.8018 9.26094 32.0315 8.49058C31.2611 7.72023 30.8759 6.79915 30.8759 5.72735C30.8759 4.62206 31.2611 3.70099 32.0315 2.96413C32.8018 2.19377 33.7229 1.80859 34.7947 1.80859ZM43.7878 1.80859C44.8931 1.80859 45.8309 2.19377 46.6012 2.96413C47.3716 3.73448 47.7568 4.65556 47.7568 5.72735C47.7568 6.79915 47.3716 7.72023 46.6012 8.49058C45.8309 9.26094 44.8931 9.64612 43.7878 9.64612C42.716 9.64612 41.7949 9.26094 41.0245 8.49058C40.2877 7.72023 39.9192 6.79915 39.9192 5.72735C39.9192 4.62206 40.2877 3.70099 41.0245 2.96413C41.7949 2.19377 42.716 1.80859 43.7878 1.80859ZM47.7568 11.505V28.7878C47.7568 28.9887 47.8238 29.1562 47.9577 29.2902C48.0917 29.4241 48.2927 29.4911 48.5606 29.4911H50.2688V35.9722H46.2998C44.5916 35.9722 43.0342 35.3023 41.6274 33.9625C39.9862 35.6037 38.0101 36.4243 35.699 36.4243H35.6488H35.5483C32.1989 36.4243 29.5697 35.0343 27.6606 32.2544C26.1198 30.0773 25.3495 27.4815 25.3495 24.4671C25.3495 20.7828 26.5218 17.7348 28.8663 15.3233C30.9764 13.1462 33.6057 12.0577 36.7541 12.0577C38.4623 12.0577 40.1537 12.4093 41.8284 13.1127L43.8882 11.505H47.7568ZM39.9695 19.0913C39.1656 18.8904 38.412 18.7899 37.7087 18.7899C36.2349 18.7899 35.0794 19.2923 34.2421 20.2971C33.4047 21.3019 32.986 22.6919 32.986 24.4671C32.986 26.1418 33.4382 27.515 34.3425 28.5868C35.2804 29.6586 36.4861 30.1945 37.9599 30.1945C38.5293 30.1945 39.1991 30.1108 39.9695 29.9433V19.0913Z" fill="#3F3F3F"/>
</svg>
