<svg
    width="58"
    height="142"
    viewBox="0 0 58 142"
    fill="none"
    xmlns="http://www.w3.org/2000/svg"
  >
    <path
      d="M58 104.218C58.0637 130.689 33.0041 141.521 6.79351 140.059C-25.5988 138.251 -40.7772 118.607 -42.9491 95.7637C-44.7223 77.1189 -37.5457 61.0184 -27.4091 50.8648C-28.3149 59.5027 -19.1619 67.5922 -11.624 64.9217C-6.61497 63.0525 -5.24054 56.6348 -6.54633 51.6217C-7.85211 46.6077 -10.9916 42.1692 -12.2532 37.145C-14.3018 28.9808 -11.0022 20.1838 -5.28879 13.8329C0.424648 7.48193 8.27984 3.26185 16.3262 -6.10352e-05C11.4879 5.45643 10.8465 13.9814 14.8186 20.051C18.6125 25.8493 25.5639 28.8597 30.944 33.3487C39.9938 40.9006 44.355 54.1189 39.2314 64.535C37.8488 67.3458 35.8681 69.8547 34.4846 72.6647C33.1012 75.4747 32.3527 78.8065 33.5899 81.6793C34.827 84.5522 38.6129 86.4936 41.4614 85.023C44.7553 83.3236 39.8068 80.083 37.9176 75.1744C49.119 79.2143 57.9722 92.6075 58 104.218Z"
      fill="#BE2B2B"
    />
    <path
      d="M54.8918 102.889C54.9533 129.359 28.3695 143.358 3.1207 141.896C-28.0829 140.088 -42.7044 120.444 -44.7966 97.6007C-46.5047 78.9559 -37.1738 61.0184 -27.4091 50.8648C-27.75 54.9261 -27.391 59.2397 -25.1618 62.6534C-22.9334 66.0678 -18.4261 68.2325 -14.621 66.7587C-9.79573 64.8895 -8.47174 58.4718 -9.72961 53.4587C-10.9875 48.4447 -14.0117 44.0061 -15.2271 38.982C-17.2005 30.8178 -14.022 22.0208 -8.51821 15.6699C-3.01445 9.31891 4.55251 5.09883 12.3036 1.83691C7.64286 7.29341 7.02494 15.8183 10.8513 21.888C14.506 27.6863 21.2023 30.6967 26.385 35.1856C35.1027 42.7376 39.3038 55.9559 34.3683 66.372C33.0364 69.1828 31.1283 71.6917 29.7957 74.5017C28.463 77.3117 27.742 80.6435 28.9337 83.5163C30.1255 86.3892 33.7724 88.3306 36.5164 86.86C39.6895 85.1606 39.7374 80.083 37.9176 75.1744C48.7079 79.2144 54.8651 91.278 54.8918 102.889Z"
      fill="#D54747"
    />
    <path
      d="M44.8247 113.843C40.1843 123.025 31.8383 130.111 22.3022 134.002C21.2953 134.413 20.2759 134.79 19.2459 135.133C8.86773 138.589 -2.51841 137.652 -12.0442 132.28C-19.1667 128.263 -25.7145 121.611 -29.8769 110.33C-34.1996 98.6138 -33.9431 86.8403 -27.3207 76.8488C-22.1674 87.0553 -6.69116 78.2528 -3.59584 71.5407C-1.5413 67.0029 -1.23576 61.8828 -1.27561 56.9023C-1.3144 51.9218 -1.66383 46.8986 -0.80055 41.9937C-0.0100021 37.4652 0.693058 34.896 5.83955 29.6709C1.19622 38.7246 7.19356 42.9133 11.9107 50.4182C16.6279 57.9231 22.6999 60.5389 25.8998 73.3733C28.145 82.3785 23.6115 91.0065 32.6784 93.4208C39.67 95.2824 42.9043 91.8397 42.5589 87.0918C46.3796 96.4065 46.658 104.295 44.8247 113.843Z"
      fill="#FF6011"
    />
    <path
      d="M42.6159 118.556C37.9756 127.739 29.6296 134.825 20.0935 138.716C19.0866 139.127 18.0672 139.503 17.0372 139.846C6.65902 143.302 -4.72713 142.366 -14.2529 136.993C-21.3754 132.976 -27.9232 126.324 -32.0857 115.044C-36.4083 103.327 -33.943 86.8403 -27.3206 76.8488C-27.2726 81.8293 -21.9191 85.6641 -16.957 85.1683C-11.9938 84.6736 -7.85909 80.7917 -5.80456 76.2541C-3.75002 71.7164 -3.44447 66.5962 -3.48433 61.6157C-3.52312 56.6352 -3.87255 51.612 -3.00927 46.7071C-2.14694 41.8022 0.850899 34.0685 5.83962 29.6709C1.1963 38.7246 4.98484 47.6267 9.70203 55.1316C14.4192 62.6365 20.4912 65.2523 23.6911 78.0867C25.9363 87.0919 21.4027 95.7199 30.4697 98.1342C37.4613 99.9959 42.9044 91.8397 42.559 87.0918C46.807 96.462 47.2563 109.373 42.6159 118.556Z"
      fill="#FF884D"
    />
    <g opacity="0.935821">
      <path
        d="M24.3797 129.441C20.2399 135.144 14.7164 138.32 5.32653 137.943C-4.3661 137.555 -10.152 132.094 -14.1817 124.506C-17.7533 117.78 -20.4582 113.116 -18.7722 105.904C-15.5582 111.928 -8.60718 111.032 -3.36923 111.248C-8.94258 101.412 -6.48828 87.6242 6.30347 78.3115C3.75018 82.2837 6.48526 83.5294 8.59123 87.6991C10.6972 91.8679 14.1948 95.3526 17.6095 98.7896C21.0243 102.226 24.4664 105.769 26.4212 109.994C29.3196 116.26 28.5204 123.738 24.3797 129.441Z"
        fill="#F6B600"
      />
    </g>
    <path
      d="M22.1707 133.243C18.031 138.946 12.5075 142.122 3.11762 141.745C-6.575 141.357 -12.3609 135.896 -16.3906 128.308C-19.9622 121.582 -20.4583 113.116 -18.7724 105.904C-15.6363 111.85 -11.3824 114.268 -5.57813 115.05C-11.1515 105.214 -6.48839 87.6242 6.30336 78.3115C3.75007 82.2837 4.27636 87.3313 6.38233 91.501C8.4883 95.6698 11.9859 99.1545 15.4006 102.592C18.8154 106.028 22.2575 109.571 24.2123 113.796C27.1107 120.062 26.3115 127.54 22.1707 133.243Z"
      fill="#FFCF57"
    />
    <path
      opacity="0.691045"
      d="M43.2806 110.217C42.1873 114.596 39.5241 117.703 37.3313 117.158C35.1384 116.612 34.2467 112.62 35.3402 108.241C36.4335 103.862 39.0966 100.755 41.2895 101.301C43.4823 101.846 44.374 105.838 43.2806 110.217Z"
      fill="#FFF8E1"
    />
    <path
      opacity="0.691045"
      d="M38.1708 122.36C38.3206 123.909 37.1845 125.286 35.6337 125.436C34.0826 125.586 32.7041 124.451 32.5543 122.901C32.4044 121.352 33.5403 119.976 35.0914 119.827C36.6413 119.676 38.0211 120.811 38.1708 122.36Z"
      fill="#FFF8E1"
    />
    <path
      opacity="0.691045"
      d="M27.7408 43.7237C29.203 47.2012 29.5414 50.4601 28.4963 51.0042C27.4515 51.5485 25.4187 49.1705 23.9568 45.6936C22.4946 42.2161 22.1569 38.9572 23.2014 38.413C24.2461 37.8688 26.2784 40.2462 27.7408 43.7237Z"
      fill="#FFF8E1"
    />
  </svg>