<svg
    width="85"
    height="139"
    viewBox="0 0 85 139"
    fill="none"
    xmlns="http://www.w3.org/2000/svg"
  >
    <path
      d="M56.3656 134.146C56.4544 134.113 56.5426 134.079 56.6292 134.039C65.5086 130.738 64.5483 124.611 64.5483 124.611L62.4542 116.198L58.7248 121.824L49.4507 87.1697C49.2591 86.4532 49.4512 85.6846 49.9512 85.1638L77.7654 56.197C79.5845 54.3023 80.1139 51.5655 79.1468 49.0528C78.1798 46.5401 75.9552 44.8728 73.3414 44.7025L33.3714 42.0859C32.6528 42.0391 31.9962 41.6001 31.6585 40.9416L15.3087 9.02472L21.8357 10.6649L17.7515 3.02532C17.7515 3.02532 14.8642 -2.38587 6.01308 1.26558C6.01212 1.26596 6.01404 1.2652 6.01308 1.26558C5.94602 1.29069 5.88087 1.3114 5.8134 1.33986L5.81023 1.35238C4.14591 2.01055 2.81664 3.34611 2.1548 5.14298L-13.1043 43.037C-13.3575 43.7237 -13.9554 44.2213 -14.6642 44.3352L-54.0703 50.6712C-56.0287 50.986 -57.6999 52.1646 -58.6579 53.9062C-59.6222 55.6602 -59.7678 57.8279 -59.0457 59.7039C-58.6296 60.7853 -57.9321 61.7563 -57.0291 62.5126L-25.75 88.7091C-25.4717 88.9418 -25.2556 89.2444 -25.1244 89.5855C-24.9932 89.9267 -24.9503 90.2966 -25.0007 90.6559L-30.5976 131.188C-30.7592 132.358 -30.6267 133.548 -30.2085 134.63C-29.4856 136.505 -27.9287 138.01 -26.04 138.655C-24.1652 139.295 -22.1389 139.037 -20.4806 137.945L12.9116 115.98C13.5122 115.585 14.2865 115.549 14.9337 115.886L51.0785 133.825C52.7738 134.707 54.6533 134.796 56.3273 134.154C56.3439 134.152 56.3531 134.151 56.3656 134.146Z"
      fill="#AE3234"
    />
    <path
      d="M-25.7039 131.694C-26.1087 130.643 -26.2316 129.482 -26.0595 128.339L-20.1085 88.7273C-20.0552 88.3757 -20.0961 88.0144 -20.2223 87.6831C-20.3497 87.3515 -20.5625 87.0578 -20.8373 86.8338L-51.7622 61.5578C-52.6547 60.8287 -53.3409 59.8867 -53.7455 58.8353C-54.4474 57.0116 -54.2835 54.8947 -53.3055 53.1733C-52.3348 51.4647 -50.6578 50.2981 -48.7046 49.9732L-9.38145 43.4212C-8.67418 43.3031 -8.07428 42.8116 -7.81531 42.1395L6.54684 4.76898C7.48656 2.32604 9.68538 0.718204 12.288 0.574213C14.8906 0.430223 17.2533 1.7854 18.4531 4.11067L36.806 39.6737C37.1355 40.3132 37.7856 40.7356 38.5022 40.7745L78.3042 42.9549C80.9073 43.0972 83.1083 44.7034 84.0489 47.1472C84.9892 49.5901 84.4367 52.2679 82.6066 54.1336L54.6246 82.6642C54.1215 83.1773 53.9233 83.9294 54.1074 84.6266L64.3441 123.343C65.0139 125.875 64.1725 128.476 62.1511 130.129C60.1295 131.783 57.4258 132.082 55.0956 130.909L19.4496 112.98C18.808 112.657 18.035 112.7 17.4339 113.091L-16.0424 134.84C-17.7052 135.919 -19.7264 136.192 -21.5889 135.583C-23.4622 134.973 -25.001 133.517 -25.7039 131.694Z"
      fill="#F57C7E"
    />
    <path
      d="M81.0024 52.5436L53.0203 81.0742C51.9552 82.1601 51.5402 83.7318 51.9305 85.2065L62.1665 123.924C63.1152 127.512 59.4072 130.546 56.1028 128.884L20.4568 110.955C19.0998 110.272 17.484 110.362 16.21 111.19L-17.2653 132.939C-20.3679 134.955 -24.3855 132.347 -23.8329 128.676L-17.8809 89.0644C-17.6543 87.556 -18.2381 86.0395 -19.4155 85.0769L-50.3415 59.8013C-53.2072 57.4586 -51.9812 52.8133 -48.3377 52.2057L-9.01369 45.6533C-7.51567 45.4038 -6.2615 44.3773 -5.71491 42.955L8.64724 5.5845C9.97808 2.12166 14.7534 1.85715 16.4542 5.15293L34.8067 40.715C35.5051 42.0688 36.8643 42.9508 38.3796 43.0345L78.1814 45.214C81.8709 45.4174 83.5962 49.8998 81.0024 52.5436Z"
      fill="#F14145"
    />
    <path
      opacity="0.313433"
      d="M-17.2636 132.939L16.2118 111.191C17.4868 110.362 19.102 110.273 20.4587 110.955L56.1047 128.885C59.4077 130.546 63.1171 127.512 62.1684 123.924L56.2722 101.624C12.3988 109.545 -7.37917 83.6011 -7.15572 44.8518C-7.69536 45.2553 -8.32542 45.5394 -9.01191 45.6536L-48.3359 52.206C-51.9807 52.8131 -53.2063 57.4593 -50.3399 59.8006L-19.4141 85.0762C-18.2367 86.0388 -17.653 87.5554 -17.8794 89.0638L-23.8314 128.676C-24.3836 132.347 -20.3661 134.955 -17.2636 132.939Z"
      fill="#D90E13"
    />
    <path
      d="M58.4757 55.662C53.9676 55.7913 50.262 54.0604 50.1972 51.7952C50.1322 49.53 53.7345 47.5882 58.2416 47.4592C62.7497 47.3299 66.4554 49.0608 66.5202 51.326C66.5852 53.5912 62.9839 55.5325 58.4757 55.662Z"
      fill="#FFF8E1"
    />
    <path
      d="M45.4164 54.0135C43.9662 54.5772 42.3352 53.8532 41.7743 52.3958C41.2134 50.9384 41.9343 49.3004 43.3852 48.7362C44.8353 48.1725 46.4653 48.897 47.0262 50.3542C47.5878 51.8102 46.8663 53.4497 45.4164 54.0135Z"
      fill="#FFF8E1"
    />
  </svg>