<?xml version="1.0" encoding="UTF-8" standalone="no"?>
<!-- Created with Inkscape (http://www.inkscape.org/) -->

<svg
   width="45.243225mm"
   height="45.243248mm"
   viewBox="0 0 45.243225 45.243248"
   version="1.1"
   id="svg68454"
   sodipodi:docname="card.svg"
   xml:space="preserve"
   inkscape:version="1.2.1 (9c6d41e410, 2022-07-14)"
   xmlns:inkscape="http://www.inkscape.org/namespaces/inkscape"
   xmlns:sodipodi="http://sodipodi.sourceforge.net/DTD/sodipodi-0.dtd"
   xmlns:xlink="http://www.w3.org/1999/xlink"
   xmlns="http://www.w3.org/2000/svg"
   xmlns:svg="http://www.w3.org/2000/svg"><sodipodi:namedview
     id="namedview68456"
     pagecolor="#ffffff"
     bordercolor="#000000"
     borderopacity="0.25"
     inkscape:showpageshadow="2"
     inkscape:pageopacity="0.0"
     inkscape:pagecheckerboard="0"
     inkscape:deskcolor="#d1d1d1"
     inkscape:document-units="mm"
     showgrid="false"
     inkscape:zoom="1.4503086"
     inkscape:cx="1855.1224"
     inkscape:cy="700.8853"
     inkscape:window-width="1920"
     inkscape:window-height="1001"
     inkscape:window-x="-9"
     inkscape:window-y="-9"
     inkscape:window-maximized="1"
     inkscape:current-layer="g100792" /><defs
     id="defs68451"><linearGradient
       inkscape:collect="always"
       xlink:href="#linearGradient58760"
       id="linearGradient58762"
       x1="872.24908"
       y1="-116.03741"
       x2="851.04614"
       y2="-86.507317"
       gradientUnits="userSpaceOnUse"
       gradientTransform="translate(-333.16714,195.84121)" /><linearGradient
       inkscape:collect="always"
       id="linearGradient58760"><stop
         style="stop-color:#8ecbfd;stop-opacity:1;"
         offset="0"
         id="stop58756" /><stop
         style="stop-color:#8ecbfd;stop-opacity:0;"
         offset="1"
         id="stop58758" /></linearGradient><clipPath
       clipPathUnits="userSpaceOnUse"
       id="clipPath20953"><rect
         style="opacity:0.668657;fill:#ffffff;stroke:#eaeaea;stroke-width:0.0499999;stroke-dasharray:none;stroke-opacity:1"
         id="rect20955"
         width="42.918266"
         height="42.918266"
         x="836.38367"
         y="-122.61791"
         ry="4.7590818" /></clipPath><clipPath
       clipPathUnits="userSpaceOnUse"
       id="clipPath59463"><rect
         style="opacity:1;fill:#ffffff;fill-opacity:1;stroke:none;stroke-width:0.0814615;stroke-dasharray:none;stroke-opacity:1"
         id="rect59465"
         width="6.0099926"
         height="6.0099926"
         x="685.14563"
         y="-120.74191"
         ry="1.2175404" /></clipPath><clipPath
       clipPathUnits="userSpaceOnUse"
       id="clipPath15344"><g
         id="g15353"><g
           id="g15351"><g
             id="g15349"><rect
               style="opacity:0.668657;fill:#ffffff;stroke:#eaeaea;stroke-width:0.0499999;stroke-dasharray:none;stroke-opacity:1"
               id="rect15347"
               width="42.918266"
               height="42.918266"
               x="836.38361"
               y="-122.61791"
               ry="4.7590818" /></g></g></g></clipPath><clipPath
       clipPathUnits="userSpaceOnUse"
       id="clipPath15334"><g
         id="g15342"><g
           id="g15340"><g
             id="g15338"><rect
               style="opacity:0.668657;fill:#ffffff;stroke:#eaeaea;stroke-width:0.0499999;stroke-dasharray:none;stroke-opacity:1"
               id="rect15336"
               width="42.918266"
               height="42.918266"
               x="836.38361"
               y="-122.61791"
               ry="4.7590818" /></g></g></g></clipPath><clipPath
       clipPathUnits="userSpaceOnUse"
       id="clipPath15577"><g
         id="g15589"><g
           id="g15587"><g
             id="g15585"><g
               id="g15583"><g
                 id="g15581"><rect
                   style="opacity:0.668657;fill:#ffffff;stroke:#eaeaea;stroke-width:0.0499999;stroke-dasharray:none;stroke-opacity:1"
                   id="rect15579"
                   width="42.918266"
                   height="42.918266"
                   x="836.38361"
                   y="-122.61791"
                   ry="4.7590818" /></g></g></g></g></g></clipPath><clipPath
       clipPathUnits="userSpaceOnUse"
       id="clipPath15776"><g
         id="g15792"><g
           id="g15790"><g
             id="g15788"><g
               id="g15786"><g
                 id="g15784"><g
                   id="g15782"><g
                     id="g15780"><rect
                       style="opacity:0.668657;fill:#ffffff;stroke:#eaeaea;stroke-width:0.0499999;stroke-dasharray:none;stroke-opacity:1"
                       id="rect15778"
                       width="42.918266"
                       height="42.918266"
                       x="836.38361"
                       y="-122.61791"
                       ry="4.7590818" /></g></g></g></g></g></g></g></clipPath><clipPath
       clipPathUnits="userSpaceOnUse"
       id="clipPath15758"><g
         id="g15774"><g
           id="g15772"><g
             id="g15770"><g
               id="g15768"><g
                 id="g15766"><g
                   id="g15764"><g
                     id="g15762"><rect
                       style="opacity:0.668657;fill:#ffffff;stroke:#eaeaea;stroke-width:0.0499999;stroke-dasharray:none;stroke-opacity:1"
                       id="rect15760"
                       width="42.918266"
                       height="42.918266"
                       x="836.38361"
                       y="-122.61791"
                       ry="4.7590818" /></g></g></g></g></g></g></g></clipPath><clipPath
       clipPathUnits="userSpaceOnUse"
       id="clipPath15708"><g
         id="g15722"
         transform="rotate(-176.25033)"><g
           id="g15720"><g
             id="g15718"><g
               id="g15716"><g
                 id="g15714"><g
                   id="g15712"><rect
                     style="opacity:0.668657;fill:#ffffff;stroke:#eaeaea;stroke-width:0.0499999;stroke-dasharray:none;stroke-opacity:1"
                     id="rect15710"
                     width="42.918266"
                     height="42.918266"
                     x="836.38361"
                     y="-122.61791"
                     ry="4.7590818" /></g></g></g></g></g></g></clipPath><clipPath
       clipPathUnits="userSpaceOnUse"
       id="clipPath15692"><g
         id="g15706"><g
           id="g15704"><g
             id="g15702"><g
               id="g15700"><g
                 id="g15698"><g
                   id="g15696"><rect
                     style="opacity:0.668657;fill:#ffffff;stroke:#eaeaea;stroke-width:0.0499999;stroke-dasharray:none;stroke-opacity:1"
                     id="rect15694"
                     width="42.918266"
                     height="42.918266"
                     x="836.38361"
                     y="-122.61791"
                     ry="4.7590818" /></g></g></g></g></g></g></clipPath><clipPath
       clipPathUnits="userSpaceOnUse"
       id="clipPath15660"><g
         id="g15674"><g
           id="g15672"><g
             id="g15670"><g
               id="g15668"><g
                 id="g15666"><g
                   id="g15664"><rect
                     style="opacity:0.668657;fill:#ffffff;stroke:#eaeaea;stroke-width:0.0499999;stroke-dasharray:none;stroke-opacity:1"
                     id="rect15662"
                     width="42.918266"
                     height="42.918266"
                     x="836.38361"
                     y="-122.61791"
                     ry="4.7590818" /></g></g></g></g></g></g></clipPath><clipPath
       clipPathUnits="userSpaceOnUse"
       id="clipPath15644"><g
         id="g15658"
         transform="rotate(-176.25033)"><g
           id="g15656"><g
             id="g15654"><g
               id="g15652"><g
                 id="g15650"><g
                   id="g15648"><rect
                     style="opacity:0.668657;fill:#ffffff;stroke:#eaeaea;stroke-width:0.0499999;stroke-dasharray:none;stroke-opacity:1"
                     id="rect15646"
                     width="42.918266"
                     height="42.918266"
                     x="836.38361"
                     y="-122.61791"
                     ry="4.7590818" /></g></g></g></g></g></g></clipPath><clipPath
       clipPathUnits="userSpaceOnUse"
       id="clipPath16080"><g
         id="g16098"><g
           id="g16096"><g
             id="g16094"><g
               id="g16092"><g
                 id="g16090"><g
                   id="g16088"><g
                     id="g16086"><g
                       id="g16084"><rect
                         style="opacity:0.668657;fill:#ffffff;stroke:#eaeaea;stroke-width:0.0499999;stroke-dasharray:none;stroke-opacity:1"
                         id="rect16082"
                         width="42.918266"
                         height="42.918266"
                         x="836.38361"
                         y="-122.61791"
                         ry="4.7590818" /></g></g></g></g></g></g></g></g></clipPath><clipPath
       clipPathUnits="userSpaceOnUse"
       id="clipPath16060"><g
         id="g16078"><g
           id="g16076"><g
             id="g16074"><g
               id="g16072"><g
                 id="g16070"><g
                   id="g16068"><g
                     id="g16066"><g
                       id="g16064"><rect
                         style="opacity:0.668657;fill:#ffffff;stroke:#eaeaea;stroke-width:0.0499999;stroke-dasharray:none;stroke-opacity:1"
                         id="rect16062"
                         width="42.918266"
                         height="42.918266"
                         x="836.38361"
                         y="-122.61791"
                         ry="4.7590818" /></g></g></g></g></g></g></g></g></clipPath><clipPath
       clipPathUnits="userSpaceOnUse"
       id="clipPath16040"><g
         id="g16058"><g
           id="g16056"><g
             id="g16054"><g
               id="g16052"><g
                 id="g16050"><g
                   id="g16048"><g
                     id="g16046"><g
                       id="g16044"><rect
                         style="opacity:0.668657;fill:#ffffff;stroke:#eaeaea;stroke-width:0.0499999;stroke-dasharray:none;stroke-opacity:1"
                         id="rect16042"
                         width="42.918266"
                         height="42.918266"
                         x="836.38361"
                         y="-122.61791"
                         ry="4.7590818" /></g></g></g></g></g></g></g></g></clipPath><clipPath
       clipPathUnits="userSpaceOnUse"
       id="clipPath16020"><g
         id="g16038"><g
           id="g16036"><g
             id="g16034"><g
               id="g16032"><g
                 id="g16030"><g
                   id="g16028"><g
                     id="g16026"><g
                       id="g16024"><rect
                         style="opacity:0.668657;fill:#ffffff;stroke:#eaeaea;stroke-width:0.0499999;stroke-dasharray:none;stroke-opacity:1"
                         id="rect16022"
                         width="42.918266"
                         height="42.918266"
                         x="836.38361"
                         y="-122.61791"
                         ry="4.7590818" /></g></g></g></g></g></g></g></g></clipPath><clipPath
       clipPathUnits="userSpaceOnUse"
       id="clipPath16000"><g
         id="g16018"><g
           id="g16016"><g
             id="g16014"><g
               id="g16012"><g
                 id="g16010"><g
                   id="g16008"><g
                     id="g16006"><g
                       id="g16004"><rect
                         style="opacity:0.668657;fill:#ffffff;stroke:#eaeaea;stroke-width:0.0499999;stroke-dasharray:none;stroke-opacity:1"
                         id="rect16002"
                         width="42.918266"
                         height="42.918266"
                         x="836.38361"
                         y="-122.61791"
                         ry="4.7590818" /></g></g></g></g></g></g></g></g></clipPath><clipPath
       clipPathUnits="userSpaceOnUse"
       id="clipPath15980"><g
         id="g15998"><g
           id="g15996"><g
             id="g15994"><g
               id="g15992"><g
                 id="g15990"><g
                   id="g15988"><g
                     id="g15986"><g
                       id="g15984"><rect
                         style="opacity:0.668657;fill:#ffffff;stroke:#eaeaea;stroke-width:0.0499999;stroke-dasharray:none;stroke-opacity:1"
                         id="rect15982"
                         width="42.918266"
                         height="42.918266"
                         x="836.38361"
                         y="-122.61791"
                         ry="4.7590818" /></g></g></g></g></g></g></g></g></clipPath><clipPath
       clipPathUnits="userSpaceOnUse"
       id="clipPath15936"><g
         id="g15954"><g
           id="g15952"><g
             id="g15950"><g
               id="g15948"><g
                 id="g15946"><g
                   id="g15944"><g
                     id="g15942"><g
                       id="g15940"><rect
                         style="opacity:0.668657;fill:#ffffff;stroke:#eaeaea;stroke-width:0.0499999;stroke-dasharray:none;stroke-opacity:1"
                         id="rect15938"
                         width="42.918266"
                         height="42.918266"
                         x="836.38361"
                         y="-122.61791"
                         ry="4.7590818" /></g></g></g></g></g></g></g></g></clipPath><clipPath
       clipPathUnits="userSpaceOnUse"
       id="clipPath15916"><g
         id="g15934"><g
           id="g15932"><g
             id="g15930"><g
               id="g15928"><g
                 id="g15926"><g
                   id="g15924"><g
                     id="g15922"><g
                       id="g15920"><rect
                         style="opacity:0.668657;fill:#ffffff;stroke:#eaeaea;stroke-width:0.0499999;stroke-dasharray:none;stroke-opacity:1"
                         id="rect15918"
                         width="42.918266"
                         height="42.918266"
                         x="836.38361"
                         y="-122.61791"
                         ry="4.7590818" /></g></g></g></g></g></g></g></g></clipPath><clipPath
       clipPathUnits="userSpaceOnUse"
       id="clipPath15842"><g
         id="g15858"><g
           id="g15856"><g
             id="g15854"><g
               id="g15852"><g
                 id="g15850"><g
                   id="g15848"><g
                     id="g15846"><rect
                       style="opacity:0.668657;fill:#ffffff;stroke:#eaeaea;stroke-width:0.0499999;stroke-dasharray:none;stroke-opacity:1"
                       id="rect15844"
                       width="42.918266"
                       height="42.918266"
                       x="836.38361"
                       y="-122.61791"
                       ry="4.7590818" /></g></g></g></g></g></g></g></clipPath><clipPath
       clipPathUnits="userSpaceOnUse"
       id="clipPath16140"><g
         id="g16158"><g
           id="g16156"><g
             id="g16154"><g
               id="g16152"><g
                 id="g16150"><g
                   id="g16148"><g
                     id="g16146"><g
                       id="g16144"><rect
                         style="opacity:0.668657;fill:#ffffff;stroke:#eaeaea;stroke-width:0.0499999;stroke-dasharray:none;stroke-opacity:1"
                         id="rect16142"
                         width="42.918266"
                         height="42.918266"
                         x="836.38361"
                         y="-122.61791"
                         ry="4.7590818" /></g></g></g></g></g></g></g></g></clipPath><clipPath
       clipPathUnits="userSpaceOnUse"
       id="clipPath16120"><g
         id="g16138"><g
           id="g16136"><g
             id="g16134"><g
               id="g16132"><g
                 id="g16130"><g
                   id="g16128"><g
                     id="g16126"><g
                       id="g16124"><rect
                         style="opacity:0.668657;fill:#ffffff;stroke:#eaeaea;stroke-width:0.0499999;stroke-dasharray:none;stroke-opacity:1"
                         id="rect16122"
                         width="42.918266"
                         height="42.918266"
                         x="836.38361"
                         y="-122.61791"
                         ry="4.7590818" /></g></g></g></g></g></g></g></g></clipPath><clipPath
       clipPathUnits="userSpaceOnUse"
       id="clipPath15549"><g
         id="g15561"
         transform="matrix(7.5551601,0,0,7.5551601,-6236.9306,932.40413)"><g
           id="g15559"><g
             id="g15557"><g
               id="g15555"><g
                 id="g15553"><rect
                   style="opacity:0.668657;fill:#ffffff;stroke:#eaeaea;stroke-width:0.0499999;stroke-dasharray:none;stroke-opacity:1"
                   id="rect15551"
                   width="42.918266"
                   height="42.918266"
                   x="836.38361"
                   y="-122.61791"
                   ry="4.7590818" /></g></g></g></g></g></clipPath><clipPath
       clipPathUnits="userSpaceOnUse"
       id="clipPath15535"><g
         id="g15547"><g
           id="g15545"><g
             id="g15543"><g
               id="g15541"><g
                 id="g15539"><rect
                   style="opacity:0.668657;fill:#ffffff;stroke:#eaeaea;stroke-width:0.0499999;stroke-dasharray:none;stroke-opacity:1"
                   id="rect15537"
                   width="42.918266"
                   height="42.918266"
                   x="836.38361"
                   y="-122.61791"
                   ry="4.7590818" /></g></g></g></g></g></clipPath><clipPath
       clipPathUnits="userSpaceOnUse"
       id="clipPath15521"><g
         id="g15533"><g
           id="g15531"><g
             id="g15529"><g
               id="g15527"><g
                 id="g15525"><rect
                   style="opacity:0.668657;fill:#ffffff;stroke:#eaeaea;stroke-width:0.0499999;stroke-dasharray:none;stroke-opacity:1"
                   id="rect15523"
                   width="42.918266"
                   height="42.918266"
                   x="836.38361"
                   y="-122.61791"
                   ry="4.7590818" /></g></g></g></g></g></clipPath><clipPath
       clipPathUnits="userSpaceOnUse"
       id="clipPath15507"><g
         id="g15519"
         transform="matrix(7.5551601,0,0,7.5551601,-6236.9306,932.40413)"><g
           id="g15517"><g
             id="g15515"><g
               id="g15513"><g
                 id="g15511"><rect
                   style="opacity:0.668657;fill:#ffffff;stroke:#eaeaea;stroke-width:0.0499999;stroke-dasharray:none;stroke-opacity:1"
                   id="rect15509"
                   width="42.918266"
                   height="42.918266"
                   x="836.38361"
                   y="-122.61791"
                   ry="4.7590818" /></g></g></g></g></g></clipPath><clipPath
       clipPathUnits="userSpaceOnUse"
       id="clipPath15493"><g
         id="g15505"><g
           id="g15503"><g
             id="g15501"><g
               id="g15499"><g
                 id="g15497"><rect
                   style="opacity:0.668657;fill:#ffffff;stroke:#eaeaea;stroke-width:0.0499999;stroke-dasharray:none;stroke-opacity:1"
                   id="rect15495"
                   width="42.918266"
                   height="42.918266"
                   x="836.38361"
                   y="-122.61791"
                   ry="4.7590818" /></g></g></g></g></g></clipPath><clipPath
       clipPathUnits="userSpaceOnUse"
       id="clipPath15479"><g
         id="g15491"
         transform="matrix(7.5551601,0,0,7.5551601,-6236.9306,932.40413)"><g
           id="g15489"><g
             id="g15487"><g
               id="g15485"><g
                 id="g15483"><rect
                   style="opacity:0.668657;fill:#ffffff;stroke:#eaeaea;stroke-width:0.0499999;stroke-dasharray:none;stroke-opacity:1"
                   id="rect15481"
                   width="42.918266"
                   height="42.918266"
                   x="836.38361"
                   y="-122.61791"
                   ry="4.7590818" /></g></g></g></g></g></clipPath><clipPath
       clipPathUnits="userSpaceOnUse"
       id="clipPath15422"><g
         id="g15432"><g
           id="g15430"><g
             id="g15428"><g
               id="g15426"><rect
                 style="opacity:0.668657;fill:#ffffff;stroke:#eaeaea;stroke-width:0.0499999;stroke-dasharray:none;stroke-opacity:1"
                 id="rect15424"
                 width="42.918266"
                 height="42.918266"
                 x="836.38361"
                 y="-122.61791"
                 ry="4.7590818" /></g></g></g></g></clipPath><clipPath
       clipPathUnits="userSpaceOnUse"
       id="clipPath15676"><g
         id="g15690"><g
           id="g15688"><g
             id="g15686"><g
               id="g15684"><g
                 id="g15682"><g
                   id="g15680"><rect
                     style="opacity:0.668657;fill:#ffffff;stroke:#eaeaea;stroke-width:0.0499999;stroke-dasharray:none;stroke-opacity:1"
                     id="rect15678"
                     width="42.918266"
                     height="42.918266"
                     x="836.38361"
                     y="-122.61791"
                     ry="4.7590818" /></g></g></g></g></g></g></clipPath></defs><g
     inkscape:label="Layer 1"
     inkscape:groupmode="layer"
     id="layer1"
     transform="translate(-502.05403,-72.060812)"><g
       id="g104932"><rect
         style="fill:#ffffff;stroke-width:0.258842"
         id="rect640"
         width="45.243244"
         height="45.243244"
         x="502.05405"
         y="72.060814"
         ry="5.016892" /><rect
         style="fill:url(#linearGradient58762);fill-opacity:1;stroke:#eaeaea;stroke-width:0.05;stroke-dasharray:none;stroke-opacity:1"
         id="rect17197"
         width="42.918266"
         height="42.918266"
         x="503.21652"
         y="73.223305"
         ry="4.7590818" /><rect
         style="opacity:0.668657;fill:#ffffff;stroke:#eaeaea;stroke-width:0.05;stroke-dasharray:none;stroke-opacity:1"
         id="rect22030"
         width="42.918266"
         height="42.918266"
         x="503.21652"
         y="73.223305"
         ry="4.7590818" /><g
         id="g20949"
         clip-path="url(#clipPath20953)"
         transform="translate(-333.16714,195.84121)"><circle
           style="opacity:0.671642;fill:#fefdc7;fill-opacity:1;stroke-width:0.355622"
           id="circle20944"
           cx="852.58423"
           cy="-90.671402"
           r="20.077814" /><circle
           style="opacity:0.289552;fill:#fdfca0;fill-opacity:1;stroke-width:0.311525"
           id="circle20942"
           cx="850.0946"
           cy="-88.181755"
           r="17.588165" /><circle
           style="opacity:0.671642;fill:#fdfca3;fill-opacity:1;stroke-width:0.264583"
           id="path20940"
           cx="847.44434"
           cy="-85.531487"
           r="14.937894" /></g><g
         id="g17205"
         transform="translate(-179.92392,195.84121)"><g
           id="g17203"><rect
             style="opacity:1;fill:#ffffff;fill-opacity:1;stroke:none;stroke-width:0.0814615;stroke-dasharray:none;stroke-opacity:1"
             id="rect17199"
             width="6.0099926"
             height="6.0099926"
             x="685.14563"
             y="-120.74191"
             ry="1.2175404" /><rect
             style="opacity:0.101493;fill:none;fill-opacity:1;stroke:#1a1a1a;stroke-width:0.181;stroke-dasharray:none;stroke-opacity:1"
             id="rect17201"
             width="6.0099926"
             height="6.0099926"
             x="685.14563"
             y="-120.74191"
             ry="1.2175404"
             clip-path="url(#clipPath59463)" /></g></g><g
         id="g70073"
         transform="matrix(0.09121694,0,0,-0.10960701,514.2156,130.04909)">
		<path
   style="fill:#e9e9e9;fill-opacity:1"
   d="m 305.833,396.364 c -0.629,-2.721 -1.678,-5.359 -2.937,-7.846 -1.244,-2.455 -2.895,-4.657 -4.572,-6.825 -1.562,-2.021 -3.324,-3.886 -5.242,-5.57 -2.074,-1.82 -4.363,-3.309 -6.844,-4.505 -2.559,-1.233 -5.231,-2.207 -7.974,-2.935 -2.757,-0.733 -5.608,-1.125 -8.441,-1.419 -1.822,-0.189 -3.663,-0.279 -5.5,-0.279 -0.83,0 -1.659,0.018 -2.486,0.053 -1.505,0.065 -3,0.266 -4.487,0.493 -1.375,0.21 -2.734,0.525 -4.068,0.92 -1.426,0.42 -2.797,1.011 -4.159,1.602 -1.225,0.531 -2.419,1.122 -3.584,1.775 -0.971,0.545 -1.914,1.134 -2.858,1.726 -2.105,-0.869 -4.231,-1.684 -6.384,-2.429 -2.492,-0.862 -5.015,-1.675 -7.56,-2.364 -1.21,-0.327 -2.438,-0.586 -3.667,-0.83 -1.449,-0.288 -2.92,-0.501 -4.393,-0.597 -2.706,-0.176 -5.478,0.152 -8.129,0.68 -1.229,0.245 -2.433,0.614 -3.621,1.009 -1.443,0.479 -2.85,1.037 -4.243,1.642 -2.243,0.973 -4.416,2.095 -6.613,3.166 -0.822,0.401 -1.65,0.793 -2.488,1.163 -1.296,0.52 -2.612,0.943 -3.987,1.187 -1.335,0.115 -2.669,0.073 -4,-0.078 -2.452,-0.362 -4.887,-0.844 -7.336,-1.235 -2.815,-0.45 -5.714,-0.792 -8.562,-0.499 -1.523,0.156 -3.042,0.391 -4.533,0.739 -1.315,0.307 -2.592,0.751 -3.838,1.269 -1.4,0.582 -2.766,1.206 -4.093,1.939 -1.153,0.637 -2.238,1.384 -3.286,2.179 -1.183,0.898 -2.344,1.82 -3.427,2.839 -0.104,0.098 -0.205,0.201 -0.307,0.3 -0.337,-0.71 -0.674,-1.42 -1.01,-2.131 -0.296,-0.625 -0.591,-1.25 -0.888,-1.874 -0.898,-2.214 -1.775,-4.437 -2.665,-6.655 -0.352,-0.878 -0.638,-1.788 -0.953,-2.679 -0.525,-1.478 -1.048,-2.957 -1.572,-4.435 -0.312,-0.88 -0.611,-1.765 -0.912,-2.648 -0.338,-0.992 -0.725,-1.962 -1.149,-2.921 -0.363,-0.82 -0.865,-1.533 -1.343,-2.287 -0.564,-0.89 -1.481,-1.465 -2.553,-1.465 -1.049,0 -2.02,0.568 -2.554,1.465 -0.092,0.154 -0.188,0.305 -0.283,0.456 -0.204,0.321 -0.327,0.668 -0.475,1.023 -0.151,0.364 -0.225,0.747 -0.285,1.135 -0.137,0.881 -0.195,1.767 -0.307,2.65 -0.083,0.641 -0.164,1.282 -0.245,1.924 -0.095,0.742 -0.189,1.485 -0.283,2.226 -0.053,0.409 -0.077,0.822 -0.112,1.232 -0.08,0.928 -0.156,1.856 -0.212,2.785 -0.224,3.715 0.164,7.436 0.701,11.108 0.503,3.433 1.359,6.779 2.536,10.041 0.819,2.27 1.756,4.495 2.702,6.715 -0.506,0.443 -0.994,0.906 -1.451,1.399 -0.547,0.59 -1.037,1.247 -1.522,1.887 -0.345,0.456 -0.672,0.923 -0.981,1.405 -0.812,1.263 -1.4,2.654 -1.953,4.046 -0.443,1.116 -0.766,2.278 -1.027,3.449 -0.34,1.529 -0.538,3.109 -0.61,4.674 -0.066,1.466 0.075,2.911 0.274,4.361 0.177,1.295 0.505,2.54 0.971,3.762 0.503,1.321 1.097,2.604 1.85,3.802 0.779,1.242 1.735,2.396 2.734,3.466 1.855,1.988 4.1,3.61 6.436,4.985 1.047,0.615 2.145,1.134 3.262,1.606 1.431,0.605 2.866,1.163 4.359,1.599 1.182,0.346 2.388,0.6 3.603,0.792 1.536,0.243 3.082,0.414 4.637,0.452 0.936,0.023 1.873,-0.04 2.805,-0.129 1.159,-0.111 2.321,-0.274 3.467,-0.479 1.387,-0.248 2.765,-0.625 4.099,-1.077 1.395,-0.47 2.786,-0.944 4.133,-1.533 0.007,0.008 0.013,0.015 0.019,0.022 0.305,0.345 0.61,0.686 0.899,1.04 0.681,0.903 1.351,1.812 2.102,2.659 0.835,0.941 1.688,1.865 2.618,2.714 1,0.913 2.115,1.718 3.241,2.47 1.094,0.731 2.253,1.362 3.445,1.917 2.528,1.177 5.181,1.954 7.899,2.548 2.746,0.6 5.56,0.967 8.369,1.068 2.64,0.095 5.291,-0.121 7.911,-0.413 2.857,-0.318 5.697,-0.778 8.47,-1.537 2.704,-0.74 5.329,-1.77 7.856,-2.977 1.137,-0.543 2.25,-1.139 3.324,-1.797 0.838,-0.512 1.68,-1.052 2.465,-1.646 1.338,-1.01 2.667,-2.027 3.982,-3.064 0.09,0.059 0.179,0.119 0.268,0.18 0.282,0.233 0.562,0.469 0.846,0.701 0.613,0.5 1.257,0.965 1.895,1.433 0.953,0.7 1.925,1.345 2.975,1.893 1.291,0.673 2.656,1.238 4.04,1.688 1.515,0.493 3.07,0.737 4.646,0.936 1.214,0.153 2.443,0.095 3.656,-0.036 1.564,-0.17 3.113,-0.438 4.635,-0.835 1.393,-0.363 2.722,-0.893 4.044,-1.456 1.183,-0.504 2.313,-1.09 3.398,-1.783 1.202,-0.768 2.332,-1.663 3.436,-2.563 1.017,-0.828 1.951,-1.747 2.84,-2.711 0.996,-1.082 1.911,-2.24 2.768,-3.436 0.533,-0.745 1.056,-1.512 1.517,-2.305 0.478,-0.82 0.977,-1.631 1.434,-2.463 0.245,-0.446 0.492,-0.893 0.736,-1.339 0.423,0.086 0.851,0.155 1.274,0.225 1.525,0.254 3.051,0.366 4.595,0.267 1.391,-0.09 2.806,-0.326 4.147,-0.711 0.77,-0.221 1.501,-0.559 2.236,-0.872 0.62,-0.264 1.213,-0.588 1.79,-0.936 0.682,-0.411 1.324,-0.911 1.942,-1.41 0.451,-0.364 0.879,-0.751 1.294,-1.158 1.068,-1.046 1.987,-2.258 2.855,-3.47 0.704,-0.982 1.3,-2.033 1.841,-3.113 0.692,-1.382 1.28,-2.83 1.797,-4.286 0.937,-2.638 1.408,-5.443 1.629,-8.226 0.228,-2.885 -0.089,-5.804 -0.739,-8.62 z"
   id="path70061" />
		<path
   style="fill:#fcfcfc;stroke:#f24638;stroke-opacity:1"
   d="m 300.923,391.455 c -0.629,-2.721 -1.678,-5.36 -2.937,-7.846 -1.244,-2.455 -2.895,-4.657 -4.572,-6.825 -1.562,-2.021 -3.324,-3.886 -5.242,-5.57 -2.074,-1.82 -4.363,-3.309 -6.844,-4.505 -2.559,-1.233 -5.231,-2.207 -7.974,-2.935 -2.757,-0.733 -5.608,-1.125 -8.441,-1.419 -1.822,-0.19 -3.663,-0.279 -5.5,-0.279 -0.83,0 -1.659,0.018 -2.486,0.053 -1.505,0.065 -3,0.266 -4.487,0.493 -1.375,0.21 -2.734,0.525 -4.068,0.92 -1.426,0.42 -2.797,1.011 -4.159,1.602 -1.225,0.531 -2.419,1.122 -3.584,1.775 -0.971,0.545 -1.915,1.134 -2.858,1.726 -2.105,-0.869 -4.231,-1.684 -6.384,-2.429 -2.492,-0.862 -5.015,-1.675 -7.56,-2.364 -1.21,-0.327 -2.438,-0.586 -3.667,-0.83 -1.449,-0.288 -2.92,-0.501 -4.393,-0.597 -2.706,-0.176 -5.478,0.152 -8.129,0.68 -1.229,0.246 -2.433,0.614 -3.621,1.009 -1.443,0.479 -2.85,1.037 -4.243,1.642 -2.243,0.973 -4.417,2.095 -6.613,3.166 -0.823,0.401 -1.65,0.793 -2.488,1.164 -1.296,0.52 -2.612,0.943 -3.987,1.187 -1.335,0.115 -2.669,0.073 -4,-0.078 -2.452,-0.362 -4.888,-0.844 -7.336,-1.235 -2.814,-0.45 -5.714,-0.791 -8.562,-0.499 -1.523,0.156 -3.042,0.391 -4.533,0.739 -1.315,0.307 -2.592,0.751 -3.838,1.269 -1.4,0.582 -2.766,1.206 -4.094,1.939 -1.153,0.637 -2.238,1.384 -3.286,2.179 -1.183,0.898 -2.344,1.82 -3.427,2.839 -0.104,0.098 -0.205,0.2 -0.307,0.3 -0.337,-0.71 -0.674,-1.42 -1.01,-2.131 -0.296,-0.624 -0.591,-1.25 -0.888,-1.874 -0.897,-2.214 -1.775,-4.437 -2.665,-6.655 -0.352,-0.878 -0.638,-1.788 -0.953,-2.679 -0.525,-1.478 -1.048,-2.957 -1.572,-4.435 -0.312,-0.88 -0.611,-1.765 -0.912,-2.648 -0.339,-0.992 -0.725,-1.962 -1.149,-2.921 -0.363,-0.82 -0.865,-1.533 -1.343,-2.287 -0.564,-0.89 -1.481,-1.465 -2.553,-1.465 -1.049,0 -2.02,0.568 -2.554,1.465 -0.092,0.154 -0.188,0.305 -0.283,0.457 -0.204,0.321 -0.327,0.668 -0.475,1.023 -0.151,0.364 -0.225,0.747 -0.285,1.135 -0.137,0.881 -0.195,1.767 -0.307,2.65 -0.083,0.641 -0.164,1.282 -0.245,1.924 -0.095,0.742 -0.189,1.485 -0.283,2.226 -0.053,0.409 -0.077,0.822 -0.112,1.232 -0.08,0.928 -0.156,1.856 -0.212,2.785 -0.224,3.715 0.164,7.436 0.701,11.108 0.503,3.433 1.359,6.779 2.536,10.041 0.819,2.27 1.756,4.495 2.702,6.715 -0.506,0.443 -0.994,0.906 -1.451,1.399 -0.547,0.59 -1.037,1.247 -1.522,1.887 -0.345,0.457 -0.672,0.923 -0.981,1.405 -0.812,1.263 -1.4,2.654 -1.953,4.046 -0.443,1.116 -0.766,2.278 -1.027,3.448 -0.34,1.53 -0.538,3.109 -0.61,4.674 -0.066,1.466 0.075,2.911 0.274,4.361 0.178,1.295 0.506,2.54 0.971,3.762 0.503,1.321 1.097,2.604 1.85,3.802 0.778,1.242 1.734,2.396 2.733,3.466 1.855,1.988 4.1,3.61 6.436,4.985 1.046,0.615 2.145,1.134 3.262,1.606 1.431,0.605 2.866,1.163 4.359,1.599 1.182,0.346 2.388,0.6 3.603,0.792 1.536,0.243 3.082,0.414 4.637,0.452 0.936,0.023 1.873,-0.04 2.805,-0.129 1.159,-0.111 2.321,-0.274 3.467,-0.479 1.387,-0.248 2.765,-0.625 4.1,-1.077 1.395,-0.47 2.786,-0.944 4.133,-1.533 0.007,0.008 0.013,0.015 0.019,0.022 0.305,0.345 0.61,0.686 0.899,1.04 0.681,0.903 1.351,1.812 2.102,2.659 0.835,0.941 1.688,1.865 2.618,2.714 1,0.913 2.115,1.718 3.241,2.47 1.094,0.731 2.253,1.362 3.445,1.917 2.528,1.177 5.181,1.954 7.899,2.548 2.746,0.6 5.56,0.967 8.369,1.068 2.64,0.095 5.291,-0.121 7.911,-0.413 2.857,-0.318 5.697,-0.778 8.47,-1.537 2.703,-0.74 5.329,-1.77 7.856,-2.977 1.137,-0.543 2.25,-1.139 3.324,-1.797 0.838,-0.512 1.68,-1.052 2.465,-1.646 1.338,-1.01 2.667,-2.027 3.982,-3.064 0.09,0.059 0.179,0.119 0.268,0.18 0.283,0.233 0.562,0.469 0.846,0.701 0.613,0.5 1.257,0.965 1.895,1.433 0.953,0.7 1.925,1.345 2.975,1.893 1.291,0.673 2.656,1.238 4.04,1.688 1.515,0.493 3.07,0.737 4.645,0.936 1.214,0.153 2.443,0.095 3.656,-0.036 1.564,-0.17 3.113,-0.438 4.635,-0.835 1.393,-0.363 2.722,-0.893 4.044,-1.456 1.183,-0.504 2.313,-1.09 3.398,-1.783 1.202,-0.768 2.332,-1.663 3.436,-2.563 1.017,-0.829 1.951,-1.748 2.84,-2.711 0.996,-1.082 1.911,-2.24 2.768,-3.436 0.533,-0.745 1.056,-1.512 1.517,-2.305 0.478,-0.82 0.977,-1.631 1.434,-2.463 0.245,-0.446 0.492,-0.893 0.736,-1.339 0.423,0.086 0.851,0.155 1.274,0.225 1.525,0.254 3.051,0.366 4.595,0.267 1.391,-0.09 2.806,-0.326 4.147,-0.711 0.77,-0.221 1.501,-0.559 2.236,-0.872 0.62,-0.264 1.213,-0.588 1.79,-0.936 0.682,-0.411 1.324,-0.911 1.942,-1.41 0.451,-0.364 0.879,-0.751 1.294,-1.158 1.068,-1.046 1.987,-2.258 2.855,-3.47 0.704,-0.982 1.3,-2.033 1.84,-3.113 0.692,-1.382 1.28,-2.83 1.797,-4.286 0.937,-2.638 1.408,-5.443 1.629,-8.226 0.232,-2.887 -0.086,-5.806 -0.736,-8.621 z"
   id="path70063" />
		
		
	</g><path
         style="fill:#ffe3b1;fill-opacity:1;stroke-width:0.13236"
         d="m 863.16193,-91.664334 c 0,0 -0.78136,-1.305188 -0.24288,-2.401924 0.5385,-1.096737 1.06658,-1.255978 1.18027,-0.878891 0.11368,0.377085 -0.20343,1.180486 -0.20343,1.180486 0,0 0.92376,-0.481071 1.0989,-1.739125 0.0335,-0.240229 0.25755,-0.406096 0.49646,-0.364968 v 0 c 0.21815,0.03758 0.37224,0.234728 0.35438,0.455381 -0.045,0.553713 -0.24112,1.550047 -1.05011,2.029117 0,0 0.94875,-0.192532 1.39692,-1.957947 0.0556,-0.218816 0.26928,-0.359382 0.49177,-0.321098 l 0.01,0.0017 c 0.22949,0.03958 0.38992,0.245705 0.36977,0.475642 -0.0507,0.57597 -0.29508,1.611261 -1.35892,2.127156 0,0 1.01841,0.267214 1.632,-1.650069 0.0733,-0.229061 0.32629,-0.347511 0.5508,-0.261453 v 0 c 0.20258,0.07753 0.31447,0.295999 0.25594,0.504946 -0.16694,0.595506 -0.41829,1.686704 -1.52176,1.911924 0,0 0.87589,-0.04249 1.38797,-0.797656 0.0984,-0.14513 0.30297,-0.168411 0.43162,-0.04935 v 0 c 0.0881,0.08158 0.117,0.208852 0.0709,0.319591 -0.24122,0.579772 -1.13717,2.295604 -3.28399,2.257278 z"
         id="path66007"
         inkscape:transform-center-x="-0.1116568"
         inkscape:transform-center-y="-0.21568021"
         clip-path="url(#clipPath15344)"
         transform="translate(-333.16714,195.84121)" /><path
         style="fill:#c00000;fill-opacity:1;stroke-width:0.13236"
         d="m 854.90851,-91.25553 c 0,0 5.15012,3.873379 7.23254,-1.939734 l 4.5913,2.291943 c 0,0 -5.59975,8.536683 -12.29783,1.165297"
         id="path65818"
         clip-path="url(#clipPath15334)"
         transform="translate(-333.16714,195.84121)" /><path
         style="fill:#c00000;fill-opacity:1;stroke-width:0.13236"
         d="m 842.91352,-78.463081 h 14.08482 l -0.23018,-0.734333 c -0.97523,-3.111515 -1.55099,-6.334346 -1.71313,-9.590928 l -0.12243,-2.457394 h -9.95333 l -0.6442,2.311533 c -0.87291,3.131899 -1.34517,6.361745 -1.40553,9.612503 z"
         id="path65820"
         clip-path="url(#clipPath15577)"
         transform="translate(-333.16714,195.84121)" /><path
         style="fill:#ffd68e;fill-opacity:1;stroke-width:0.13236"
         d="m 855.06853,-100.3918 c 0.0777,1.185545 1.10176,2.083607 2.28731,2.005911 1.18555,-0.07769 2.08361,-1.101763 2.00591,-2.287311 -0.0777,-1.18555 -1.10176,-2.08361 -2.28731,-2.00591 -1.18568,0.0776 -2.08374,1.10163 -2.00591,2.28731 z"
         id="path65824"
         clip-path="url(#clipPath15776)"
         transform="translate(-333.16714,195.84121)" /><path
         style="fill:#ffd68e;fill-opacity:1;stroke-width:0.13236"
         d="m 839.38825,-99.364028 c 0.0777,1.185547 1.10177,2.083609 2.28731,2.005914 1.18555,-0.0777 2.08361,-1.101764 2.00592,-2.287311 -0.0777,-1.185545 -1.10177,-2.083605 -2.28731,-2.005915 -1.18555,0.0777 -2.08361,1.10176 -2.00592,2.287312 z"
         id="path65826"
         clip-path="url(#clipPath15758)"
         transform="translate(-333.16714,195.84121)" /><rect
         x="-856.09393"
         y="33.801414"
         transform="rotate(176.25033,-169.78887,92.467706)"
         style="fill:#ffe3b1;fill-opacity:1;stroke-width:0.132365"
         width="3.993063"
         height="3.1678979"
         id="rect65836"
         clip-path="url(#clipPath15708)" /><path
         style="fill:#ffe3b1;fill-opacity:1;stroke-width:0.13236"
         d="m 847.37974,-92.582173 4.94431,-0.324149 c 2.70146,-0.177098 4.74788,-2.510602 4.57078,-5.212067 l -0.69039,-10.532141 -14.72715,0.96543 0.69039,10.532143 c 0.17709,2.701465 2.5106,4.747881 5.21206,4.570784 z"
         id="path65830"
         clip-path="url(#clipPath15692)"
         transform="translate(-333.16714,195.84121)" /><path
         style="fill:#1c3d67;stroke-width:0.13236"
         d="m 841.07531,-110.28888 c 0,0 -0.29728,-1.33088 -0.933,-0.7019 -0.77074,0.76279 0.933,0.7019 0.933,0.7019 z"
         id="path65834"
         clip-path="url(#clipPath15660)"
         transform="translate(-333.16714,195.84121)" /><path
         id="path16160"
         clip-path="url(#clipPath15692)"
         style="opacity:0.671642;fill:#ffd68e;fill-opacity:1;stroke-width:0.13236"
         d="m 845.07762,-107.92106 -3.6003,0.23616 0.6904,10.532174 c 0.17709,2.701462 2.51062,4.747877 5.21208,4.57078 l 4.9444,-0.324528 c 0.97448,-0.06388 1.86274,-0.409206 2.59313,-0.950329 a 9.235795,9.235795 0 0 1 -2.13217,0.254248 9.235795,9.235795 0 0 1 -9.23562,-9.236125 9.235795,9.235795 0 0 1 1.52808,-5.08238 z"
         transform="translate(-333.16714,195.84121)" /><rect
         x="-856.09381"
         y="36.46479"
         transform="rotate(176.25033,-169.78887,92.467706)"
         style="fill:#ffd68e;fill-opacity:1;stroke-width:0.132365"
         width="3.993063"
         height="0.50431162"
         id="rect65838"
         clip-path="url(#clipPath15644)" /><path
         style="fill:#ffffff;fill-opacity:1;stroke-width:0.236927"
         d="m 848.18718,-100.84811 c 0.0391,0.77736 -0.55962,1.439335 -1.33698,1.478191 -0.77736,0.03909 -1.43933,-0.559621 -1.47819,-1.336981 -0.0391,-0.77735 0.55962,-1.43933 1.33698,-1.47818 0.77736,-0.0389 1.43933,0.55962 1.47819,1.33697 z"
         id="path65840"
         clip-path="url(#clipPath16080)"
         transform="translate(-333.16714,195.84121)" /><path
         style="fill:#000000;fill-opacity:1;stroke-width:0.166879"
         d="m 848.16578,-100.89302 c 0.0275,0.54753 -0.39417,1.013788 -0.9417,1.041156 -0.54753,0.02754 -1.01379,-0.394166 -1.04116,-0.941696 -0.0275,-0.54753 0.39417,-1.01379 0.9417,-1.04116 0.54753,-0.0274 1.01379,0.39417 1.04116,0.9417 z"
         id="path67233"
         clip-path="url(#clipPath16060)"
         transform="translate(-333.16714,195.84121)" /><circle
         style="fill:#ffffff;fill-opacity:1;stroke:none;stroke-width:0.2796;stroke-dasharray:none;stroke-opacity:1"
         id="path67125"
         cx="846.30072"
         cy="-101.18793"
         r="0.44971973"
         clip-path="url(#clipPath16040)"
         transform="translate(-333.16714,195.84121)" /><path
         style="fill:#ffffff;fill-opacity:1;stroke-width:0.236927"
         d="m 855.40248,-101.30866 c 0.0391,0.77736 -0.55962,1.439333 -1.33697,1.478189 -0.77736,0.03909 -1.43933,-0.559619 -1.47819,-1.336979 -0.0391,-0.77736 0.55962,-1.43933 1.33698,-1.47819 0.77735,-0.0388 1.43933,0.55963 1.47818,1.33698 z"
         id="path67235"
         clip-path="url(#clipPath16020)"
         transform="translate(-333.16714,195.84121)" /><path
         style="fill:#000000;fill-opacity:1;stroke-width:0.166879"
         d="m 855.38109,-101.35357 c 0.0275,0.54753 -0.39417,1.01379 -0.9417,1.04115 -0.54753,0.0275 -1.01379,-0.39416 -1.04116,-0.94169 -0.0275,-0.54753 0.39417,-1.01379 0.9417,-1.04116 0.54753,-0.0274 1.01379,0.39417 1.04116,0.9417 z"
         id="path67237"
         clip-path="url(#clipPath16000)"
         transform="translate(-333.16714,195.84121)" /><circle
         style="fill:#ffffff;fill-opacity:1;stroke:none;stroke-width:0.2796;stroke-dasharray:none;stroke-opacity:1"
         id="circle67239"
         cx="853.51599"
         cy="-101.64848"
         r="0.44971973"
         clip-path="url(#clipPath15980)"
         transform="translate(-333.16714,195.84121)" /><path
         style="fill:#050c13;fill-opacity:1;stroke-width:0.13236"
         d="m 844.98602,-102.65542 c 0.43374,-0.44499 1.2136,-0.94452 2.43648,-0.73063 0.14387,0.0251 0.27491,-0.0872 0.2675,-0.23308 l -0.0499,-0.99416 c -0.006,-0.12733 -0.11542,-0.22435 -0.24249,-0.21455 -0.64883,0.0504 -2.46083,0.33791 -2.79941,1.9756 -0.0459,0.2217 0.22978,0.35896 0.38782,0.19682 z"
         id="path65846"
         clip-path="url(#clipPath15936)"
         transform="translate(-333.16714,195.84121)" /><path
         style="fill:#050c13;fill-opacity:1;stroke-width:0.13236"
         d="m 854.46484,-103.13125 c -0.4761,-0.39933 -1.30216,-0.81825 -2.49737,-0.48299 -0.14057,0.0395 -0.28219,-0.0592 -0.2896,-0.20515 l -0.0499,-0.99416 c -0.006,-0.1272 0.0925,-0.23481 0.21985,-0.23772 0.65054,-0.0148 2.48241,0.0897 2.98326,1.68521 0.0678,0.21614 -0.19272,0.3804 -0.36624,0.23481 z"
         id="path65848"
         clip-path="url(#clipPath15916)"
         transform="translate(-333.16714,195.84121)" /><path
         style="fill:#ffcd74;fill-opacity:1;stroke-width:0.13236"
         d="m 850.21661,-98.71798 -0.48615,0.02435 c -0.3816,0.01919 -0.69384,-0.299928 -0.66644,-0.680992 l 0.14348,-1.996378 c 0.023,-0.32059 0.28166,-0.57365 0.60264,-0.5898 v 0 c 0.32097,-0.0161 0.60369,0.20979 0.65862,0.5264 l 0.34268,1.971891 c 0.0655,0.376564 -0.21323,0.725465 -0.59483,0.744524 z"
         id="path65852"
         clip-path="url(#clipPath15842)"
         transform="translate(-333.16714,195.84121)" /><path
         style="fill:#1c3d67;stroke-width:0.13236"
         d="m 852.19672,-97.985103 c 0.0281,0.55975 -0.15381,1.083233 -0.47809,1.491034 -0.38238,0.483908 -0.96464,0.806733 -1.63027,0.84022 -0.66432,0.03336 -1.27582,-0.229644 -1.7048,-0.672785 -0.36346,-0.373387 -0.59827,-0.875825 -0.62633,-1.435575 z"
         id="path65854"
         clip-path="url(#clipPath16140)"
         transform="translate(-333.16714,195.84121)" /><path
         style="fill:#f76563;stroke-width:0.13236"
         d="m 851.71863,-96.494069 c -0.38238,0.483908 -0.96464,0.806733 -1.63027,0.84022 -0.66432,0.03336 -1.27582,-0.229644 -1.7048,-0.672785 0.38239,-0.483908 0.96464,-0.80541 1.62895,-0.838764 0.66564,-0.03336 1.27714,0.22832 1.70612,0.671329 z"
         id="path65856"
         clip-path="url(#clipPath16120)"
         transform="translate(-333.16714,195.84121)" /><polygon
         style="fill:#fdfbfc"
         points="184.333,326.098 161.748,243.028 207.493,243.028 "
         id="polygon65822"
         transform="matrix(0.13235987,0,0,0.13235987,492.35218,72.428325)"
         clip-path="url(#clipPath15549)" /><path
         style="fill:#f1f1f1;fill-opacity:1;stroke-width:0.13236"
         d="m 851.95198,-91.996613 -1.99651,0.750877 0.73724,1.118044 c 0.14163,0.21482 0.4348,0.266176 0.64102,0.112374 l 1.64947,-1.230418 z"
         id="path65864"
         clip-path="url(#clipPath15535)"
         transform="translate(-333.16714,195.84121)" /><path
         style="fill:#f1f1f1;fill-opacity:1;stroke-width:0.13236"
         d="m 847.95948,-91.996613 1.99638,0.750877 -0.73724,1.118044 c -0.14163,0.21482 -0.4348,0.266176 -0.64102,0.112374 l -1.64934,-1.230418 z"
         id="path65866"
         clip-path="url(#clipPath15521)"
         transform="translate(-333.16714,195.84121)" /><polygon
         style="fill:#f76563"
         points="190.979,252.673 184.622,258.378 178.266,252.673 184.622,243.028 "
         id="polygon65868"
         transform="matrix(0.13235987,0,0,0.13235987,492.35218,72.428325)"
         clip-path="url(#clipPath15507)" /><path
         style="fill:#f76563;stroke-width:0.13236"
         d="m 849.91788,-82.776689 -0.78715,-1.1829 c -0.18557,-0.27875 -0.25691,-0.618121 -0.19946,-0.947962 l 0.98608,-5.661031 h 0.0381 l 0.98608,5.661031 c 0.0574,0.329841 -0.0139,0.669212 -0.19947,0.947962 l -0.78714,1.1829 2.6e-4,0.05612 -0.0188,-0.02833 -0.0188,0.02833 z"
         id="path65870"
         clip-path="url(#clipPath15493)"
         transform="translate(-333.16714,195.84121)" /><g
         id="g65880"
         transform="matrix(0.13235987,0,0,0.13235987,492.35218,72.428325)"
         clip-path="url(#clipPath15479)">
					<polyline
   style="fill:none;stroke:#fdfbfc;stroke-miterlimit:10"
   points="174.441,326.098 158.652,286.369 163.004,280.951        152.703,275.082 149.737,248.145      "
   id="polyline65876" />
					<polyline
   style="fill:none;stroke:#fdfbfc;stroke-miterlimit:10"
   points="194.797,326.098 210.586,286.369 206.234,280.951        216.535,275.082 219.501,248.145      "
   id="polyline65878" />
				</g><path
         style="fill:#c00000;fill-opacity:1;stroke-width:0.13236"
         d="m 844.97927,-91.228926 -0.37776,2.33774 c 0,0 -4.42352,4.55952 -1.94536,10.263088 l -3.91177,2.268913 c -0.71429,-7.81224 1.09427,-13.645329 6.23489,-14.869741 z"
         id="path65888"
         sodipodi:nodetypes="ccccc"
         clip-path="url(#clipPath15422)"
         transform="translate(-333.16714,195.84121)" /><path
         style="fill:#050c13;fill-opacity:1;stroke-width:0.13236"
         d="m 839.78745,-104.6755 c 0.29146,1.44286 0.85266,2.92754 1.86627,4.23459 0.24844,0.32097 0.74744,0.27452 0.93592,-0.0858 0.42196,-0.80289 0.93234,-2.42351 0.58027,-5.2801 -0.12985,-1.04908 0.65081,-1.99148 1.70532,-2.06058 l 7.93656,-0.52017 c 1.05451,-0.0691 1.95152,0.76332 1.95986,1.82035 0.0238,2.87816 0.74134,4.41817 1.26443,5.15912 0.23242,0.33275 0.73473,0.31356 0.93922,-0.0372 0.83268,-1.42804 1.1968,-2.97347 1.29594,-4.44187 0.13977,-2.05873 -0.81335,-3.90991 -2.33271,-5.04185 0,0 0.64247,-0.18557 0.94201,-0.76226 0.2712,-0.51991 -0.30417,-1.07728 -0.82156,-0.80078 l -0.21522,0.11634 c 0,0 0.63321,-1.49275 -1.11791,-2.78352 -0.30787,-0.227 -0.7473,-0.10973 -0.90296,0.2393 -0.47623,1.06894 -1.65635,3.04163 -3.7352,2.61636 -2.82297,-0.57801 -7.96607,-0.69873 -8.6108,2.29353 -1.38184,1.32056 -2.09936,3.2951 -1.68944,5.3345 z"
         id="path65832"
         clip-path="url(#clipPath15676)"
         transform="translate(-333.16714,195.84121)" /><g
         id="g82893"
         transform="matrix(0.13637623,0,0,0.13637623,441.97806,64.670301)"><g
           id="g82441"
           transform="matrix(0.26458333,0,0,0.26458333,458.42923,61.095729)">
					<g
   id="g82439">
						<g
   id="g82423">
							<path
   style="fill:#8d8382"
   d="m 104.724,201.125 12.333,-3.504 c 2.922,-0.83 4.618,-3.872 3.788,-6.794 l -4.633,-16.308 c -0.83,-2.922 -3.872,-4.618 -6.794,-3.788 l -12.333,3.504 c -2.922,0.83 -4.618,3.872 -3.788,6.794 l 4.633,16.308 c 0.831,2.922 3.872,4.618 6.794,3.788 z"
   id="path82421" />
						</g>
						<path
   style="fill:#ffc50c"
   d="m 56.725,140.347 c 2.275,8.007 7.288,15.014 14.116,19.731 l 2.528,1.735 c 8.2,5.609 13.15,8.995 16.41,17.477 0.727,1.882 2.731,2.884 4.662,2.335 l 21.111,-5.997 c 1.931,-0.548 3.108,-2.455 2.738,-4.435 -1.674,-8.858 0.718,-14.279 4.682,-23.262 0.438,-0.993 0.894,-2.027 1.365,-3.109 3.707,-8.56 3.953,-18.116 0.691,-26.909 -6.136,-16.538 -23.788,-26.263 -41.059,-22.62 -9.895,2.088 -18.224,7.987 -23.431,16.613 -5.14,8.513 -6.529,18.879 -3.813,28.441 z"
   id="path82425" />
						<path
   style="fill:#ffffff"
   d="m 98.579,103.597 c 3.984,-1.191 7.842,1.497 10.804,3.859 3.003,2.394 5.527,5.361 7.374,8.735 4.185,7.641 4.096,16.214 0.449,23.999 -0.319,0.681 -1.209,0.153 -1.116,-0.471 1.07,-7.169 -0.759,-15.199 -4.783,-21.231 -1.674,-2.509 -3.901,-4.793 -6.349,-6.553 -2.561,-1.841 -5.601,-2.97 -7.486,-5.619 -0.716,-1.006 0.05,-2.403 1.107,-2.719 z"
   id="path82427" />
						<g
   id="g82437">
							<g
   id="g82435">
								<path
   style="fill:#504742"
   d="m 94.292,183.86 22.563,-6.41 c 0.936,-0.266 1.886,0.19 2.121,1.018 v 0.001 c 0.235,0.828 -0.333,1.715 -1.269,1.981 l -22.563,6.41 c -0.936,0.266 -1.886,-0.19 -2.122,-1.018 v -0.001 c -0.235,-0.828 0.333,-1.715 1.27,-1.981 z"
   id="path82429" />
								<path
   style="fill:#504742"
   d="m 95.901,189.525 22.563,-6.41 c 0.936,-0.266 1.886,0.19 2.122,1.018 v 0 c 0.235,0.828 -0.333,1.715 -1.269,1.981 l -22.563,6.41 c -0.936,0.266 -1.886,-0.19 -2.121,-1.018 v 0 c -0.237,-0.828 0.332,-1.715 1.268,-1.981 z"
   id="path82431" />
								<path
   style="fill:#504742"
   d="m 97.827,196.305 22.563,-6.41 c 0.936,-0.266 1.886,0.19 2.121,1.018 v 0 c 0.235,0.828 -0.333,1.715 -1.269,1.982 l -22.563,6.41 c -0.936,0.266 -1.886,-0.19 -2.122,-1.018 v 0 c -0.235,-0.829 0.334,-1.716 1.27,-1.982 z"
   id="path82433" />
							</g>
						</g>
					</g>
				</g><g
           id="g82463"
           transform="matrix(0.26458333,0,0,0.26458333,458.42922,61.095728)">
				<polygon
   style="fill:#ffc50c"
   points="151.371,97.164 148.057,91.701 129.601,99.8 "
   id="polygon82457" />
				<polygon
   style="fill:#ffc50c"
   points="133.853,90.134 127.364,86.969 126.172,98.344 "
   id="polygon82459" />
				<polygon
   style="fill:#ffc50c"
   points="119.547,81.457 113.951,83.779 121.994,96.584 "
   id="polygon82461" />
			</g><g
           id="g85860"
           transform="matrix(-0.70215002,0,0,-0.70215002,747.87162,259.40518)"
           style="fill:#f24638;fill-opacity:1">
				<polygon
   style="fill:#f24638;fill-opacity:1"
   points="129.601,99.8 151.371,97.164 148.057,91.701 "
   id="polygon85854" />
				<polygon
   style="fill:#f24638;fill-opacity:1"
   points="126.172,98.344 133.853,90.134 127.364,86.969 "
   id="polygon85856" />
				<polygon
   style="fill:#f24638;fill-opacity:1"
   points="121.994,96.584 119.547,81.457 113.951,83.779 "
   id="polygon85858" />
			</g><g
           id="g86006"
           transform="matrix(0.70215002,0,0,0.70215002,631.47134,62.240005)"
           style="fill:#f24638;fill-opacity:1">
				<polygon
   style="fill:#f24638;fill-opacity:1"
   points="151.371,97.164 148.057,91.701 129.601,99.8 "
   id="polygon86000" />
				<polygon
   style="fill:#f24638;fill-opacity:1"
   points="133.853,90.134 127.364,86.969 126.172,98.344 "
   id="polygon86002" />
				<polygon
   style="fill:#f24638;fill-opacity:1"
   points="119.547,81.457 113.951,83.779 121.994,96.584 "
   id="polygon86004" />
			</g></g><path
         style="fill:#f24638;fill-opacity:1;stroke-width:0.0482319"
         d="m 530.00557,87.367544 c 0.008,-0.636685 0.0121,-1.15759 0.008,-1.157567 -0.004,2.6e-5 -0.067,0.08874 -0.14208,0.197146 -0.1302,0.187878 -0.13844,0.192073 -0.17633,0.08969 -0.0219,-0.05907 -0.0734,-0.178247 -0.11445,-0.264826 -0.0743,-0.156524 -0.0735,-0.159127 0.14834,-0.460368 0.25023,-0.339915 0.40854,-0.661802 0.56133,-1.141314 0.057,-0.178993 0.10635,-0.329336 0.10973,-0.334093 0.004,-0.0047 0.10889,0.01327 0.23452,0.04007 0.17059,0.03639 0.22849,0.0709 0.22849,0.136205 0,0.04811 -0.0868,0.303864 -0.19292,0.568345 l -0.19294,0.480875 v 1.501723 1.501721 h -0.2436 -0.24359 z m 1.54586,1.126262 c -0.0753,-0.01638 -0.10852,-0.05852 -0.10852,-0.137676 0,-0.06274 -0.0193,-0.164909 -0.0429,-0.227025 -0.0428,-0.112656 -0.0422,-0.112898 0.28939,-0.09417 l 0.33233,0.01878 v -1.331821 -1.331823 h -0.26178 -0.26179 l -0.17154,0.277336 c -0.0944,0.152532 -0.21259,0.329659 -0.26277,0.393614 l -0.0912,0.116282 -0.1933,-0.162283 -0.1933,-0.162286 0.1363,-0.171039 c 0.24375,-0.305911 0.48144,-0.743026 0.57998,-1.066617 l 0.0964,-0.316794 0.23912,0.04898 c 0.13152,0.02694 0.23913,0.06368 0.23913,0.08162 0,0.01796 -0.0325,0.124919 -0.0724,0.2377 -0.0398,0.112776 -0.0724,0.224031 -0.0724,0.247224 0,0.02319 0.40861,0.04216 0.90801,0.04216 0.89532,0 0.90951,0.0017 1.01641,0.115411 l 0.10841,0.115411 -0.14878,0.354854 c -0.21416,0.510831 -0.19428,0.491479 -0.42951,0.418068 -0.2155,-0.06725 -0.23738,-0.109091 -0.13468,-0.257469 0.0363,-0.05233 0.0811,-0.143972 0.0997,-0.203659 0.0329,-0.105502 0.0244,-0.108523 -0.307,-0.108523 h -0.34087 v 1.438553 c 0,1.431066 -5.6e-4,1.439082 -0.10889,1.540883 -0.0804,0.07554 -0.19091,0.108294 -0.42203,0.125108 -0.17221,0.01252 -0.36193,0.01216 -0.42162,-7.3e-4 z m 2.75513,-0.181771 -0.15083,-0.207151 0.1403,-0.08288 c 0.14706,-0.08687 0.668,-0.591442 0.66756,-0.646578 -1.8e-4,-0.02663 -0.18744,-0.170097 -0.6083,-0.466118 -0.058,-0.04081 -0.0458,-0.115665 0.0788,-0.48232 0.0811,-0.238704 0.16605,-0.515402 0.18879,-0.614879 l 0.0413,-0.180871 h -0.21191 -0.21192 l -5e-5,-0.229101 -5e-5,-0.229101 0.26135,0.0163 0.26134,0.0163 0.0347,-0.281567 c 0.0191,-0.15486 0.0408,-0.314122 0.0486,-0.353913 0.007,-0.03979 0.0155,-0.110335 0.0175,-0.156754 0.004,-0.06974 0.0499,-0.0844 0.26989,-0.0844 0.25094,0 0.26483,0.0062 0.24244,0.108523 -0.0365,0.166617 -0.12282,0.675548 -0.12282,0.723953 0,0.02367 0.17602,0.03596 0.39115,0.02731 l 0.39114,-0.01573 -0.0321,0.385857 c -0.0369,0.442143 -0.16982,1.049683 -0.31117,1.421714 l -0.097,0.255488 0.23904,0.214914 c 0.13147,0.118203 0.23903,0.236563 0.23903,0.263025 0,0.02647 -0.0597,0.131802 -0.13263,0.234088 l -0.13264,0.185972 -0.22221,-0.217892 -0.22221,-0.217892 -0.41341,0.413424 c -0.22739,0.227382 -0.43125,0.412079 -0.45304,0.410437 -0.0217,-0.0017 -0.10756,-0.0962 -0.19046,-0.210136 z m 1.00974,-1.607634 c 0.0871,-0.24296 0.22409,-0.845387 0.22549,-0.991528 7.3e-4,-0.07252 -0.0327,-0.08469 -0.19844,-0.07235 l -0.19929,0.01484 -0.14111,0.505416 -0.14112,0.505417 0.15954,0.13236 c 0.0877,0.0728 0.17151,0.132944 0.18616,0.133657 0.0146,7.29e-4 0.0636,-0.101804 0.10877,-0.227804 z m 1.16169,1.790606 c -0.0673,-0.01521 -0.12024,-0.0851 -0.15675,-0.206998 -0.0868,-0.289717 -0.0852,-0.291391 0.27043,-0.279853 l 0.32557,0.01051 0.0134,-0.669005 0.0134,-0.669004 -0.4596,0.0201 -0.4596,0.0201 -1e-4,-0.243388 -10e-5,-0.24339 0.45831,0.01537 0.45831,0.01537 v -0.316817 c 0,-0.275062 0.0121,-0.316818 0.0885,-0.316818 0.0915,0 0.37927,-0.260692 0.54831,-0.496727 l 0.0967,-0.134988 -0.77674,0.01441 -0.77673,0.0144 5e-5,-0.24116 4e-5,-0.24116 1.00083,0.0085 1.00082,0.0085 0.10973,0.141797 0.10973,0.141793 -0.27208,0.356181 c -0.14964,0.195899 -0.35808,0.445568 -0.46319,0.554821 -0.14874,0.154614 -0.1876,0.229446 -0.17523,0.337625 l 0.0158,0.13898 h 0.5185 0.51852 v 0.241161 0.24116 h -0.51852 -0.5185 l -0.0132,0.801439 c -0.0157,0.957049 -0.0141,0.953883 -0.52372,0.981888 -0.18219,0.01003 -0.37698,0.0079 -0.43287,-0.0048 z m -5.51466,-0.569829 c -0.063,-0.06701 -0.15324,-0.134148 -0.20062,-0.149191 -0.0783,-0.02486 -0.073,-0.04962 0.0583,-0.272375 0.16108,-0.273191 0.3587,-0.826581 0.43063,-1.205883 0.026,-0.137038 0.0557,-0.257668 0.0662,-0.268065 0.0448,-0.04491 0.41449,0.0934 0.41449,0.155109 0,0.269519 -0.25548,1.070763 -0.48931,1.53459 l -0.16519,0.327657 z m 2.29055,-0.204441 c -0.14717,-0.321453 -0.39656,-1.111991 -0.44009,-1.39505 l -0.0305,-0.197844 0.1975,-0.05013 0.19751,-0.05013 0.0525,0.199743 c 0.1165,0.443517 0.34264,1.064991 0.4613,1.267462 0.0693,0.118131 0.11783,0.220932 0.10792,0.228442 -0.21645,0.164964 -0.37045,0.271378 -0.39273,0.271378 -0.0155,0 -0.0845,-0.12324 -0.15347,-0.273868 z"
         id="path82907" /></g></g></svg>
