<?xml version="1.0" encoding="UTF-8" standalone="no"?>
<!-- Created with Inkscape (http://www.inkscape.org/) -->

<svg
   width="185.79646mm"
   height="268.15182mm"
   viewBox="0 0 185.79646 268.15182"
   version="1.1"
   id="svg5"
   xml:space="preserve"
   sodipodi:docname="Rework.svg"
   inkscape:version="1.2.1 (9c6d41e410, 2022-07-14)"
   inkscape:export-filename="svgsep\char1.svg"
   inkscape:export-xdpi="96"
   inkscape:export-ydpi="96"
   xmlns:inkscape="http://www.inkscape.org/namespaces/inkscape"
   xmlns:sodipodi="http://sodipodi.sourceforge.net/DTD/sodipodi-0.dtd"
   xmlns="http://www.w3.org/2000/svg"
   xmlns:svg="http://www.w3.org/2000/svg"><sodipodi:namedview
     id="namedview7"
     pagecolor="#ffffff"
     bordercolor="#000000"
     borderopacity="0.25"
     inkscape:showpageshadow="2"
     inkscape:pageopacity="0.0"
     inkscape:pagecheckerboard="0"
     inkscape:deskcolor="#d1d1d1"
     inkscape:document-units="mm"
     showgrid="false"
     inkscape:zoom="0.090644294"
     inkscape:cx="-623.31557"
     inkscape:cy="-667.44411"
     inkscape:window-width="1920"
     inkscape:window-height="1001"
     inkscape:window-x="-9"
     inkscape:window-y="-9"
     inkscape:window-maximized="1"
     inkscape:current-layer="layer1" /><defs
     id="defs2" /><g
     inkscape:label="Layer 1"
     inkscape:groupmode="layer"
     id="layer1"
     transform="translate(244.08698,-34.133945)"><g
       id="g120736"
       transform="matrix(5.2539757,0,0,5.2539757,-2429.9657,-868.62364)"><path
         style="fill:#ed5738;fill-opacity:1;stroke-width:0.199908"
         d="m 445.85674,201.30422 v 19.91068 c 0,1.30221 -1.44173,2.08425 -2.53783,1.38397 l -4.87617,-3.13456 -4.11831,-2.64779 -4.11932,2.64798 -4.87617,3.13457 c -1.0951,0.70028 -2.53683,-0.0818 -2.53683,-1.38396 v -19.91069 h 23.06463 z"
         id="path21977" /><polygon
         style="fill:#ebf2f2"
         points="133.05,302.136 112.45,288.89 91.844,302.136 91.844,211.293 133.05,211.293 "
         id="polygon21979"
         transform="matrix(0.19990847,0,0,0.19990847,411.84472,159.06496)" /><path
         style="fill:#c6123d;stroke-width:0.215273"
         d="m 445.84074,202.50368 v 2.56623 c -1.83762,1.0929 -4.84521,2.58382 -8.59765,3.37005 v -5.93628 z"
         id="path21981" /><path
         style="fill:#c3dbda;stroke-width:0.199908"
         d="m 438.44254,202.50368 v 5.93628 c -1.35898,0.33165 -2.8323,0.53776 -4.39099,0.53776 -1.35998,0 -2.64698,-0.16033 -3.84664,-0.42421 v -6.04983 z"
         id="path21983" /><path
         style="fill:#c6123d;stroke-width:0.199908"
         d="m 430.20511,202.10386 v 6.04983 c -3.19114,-0.70568 -5.76176,-2.15082 -7.413,-3.29369 v -2.75594 h 7.413 z"
         id="path21985" /><circle
         style="fill:#ce9313;fill-opacity:1;stroke-width:0.199908"
         cx="434.32404"
         cy="190.10495"
         r="17.081779"
         id="circle22597" /><circle
         style="fill:#f9b906;stroke-width:0.199908"
         cx="433.12457"
         cy="188.90549"
         r="17.081779"
         id="circle21987" /><circle
         style="fill:#e8a615;stroke-width:0.199908"
         cx="433.12457"
         cy="188.90549"
         r="15.562875"
         id="circle21989" /><path
         style="fill:#f9b906;stroke-width:0.199908"
         d="m 447.73509,188.9053 c 0,8.05651 -6.55361,14.61131 -14.61012,14.61131 -2.28495,0 -4.44876,-0.52676 -6.37588,-1.46573 -2.01108,-0.97936 -3.76487,-2.4059 -5.13145,-4.1509 -0.62391,-0.79624 -1.16706,-1.65884 -1.61745,-2.57602 -0.95097,-1.93812 -1.48652,-4.11712 -1.48652,-6.41846 0,-1.70682 0.29446,-3.34507 0.83442,-4.86857 1.62605,-4.58951 5.48488,-8.13068 10.2629,-9.31414 1.12548,-0.27927 2.30334,-0.4276 3.51398,-0.4276 2.69497,0 5.22082,0.73286 7.39022,2.01007 0.96736,0.57034 1.86395,1.24764 2.67318,2.01768 1.5257,1.45174 2.73854,3.22832 3.52599,5.21861 0.65869,1.66104 1.02073,3.47042 1.02073,5.36375 z"
         id="path21991" /><path
         id="circle32746"
         style="opacity:0.323881;fill:#cf9413;fill-opacity:1;stroke-width:0.219071"
         d="m 443.17634,175.14721 a 17.054658,17.054658 0 0 1 3.24499,10.00096 17.054658,17.054658 0 0 1 -17.05467,17.05467 17.054658,17.054658 0 0 1 -9.97416,-3.27139 17.054658,17.054658 0 0 0 13.78287,7.0801 17.054658,17.054658 0 0 0 17.05467,-17.05467 17.054658,17.054658 0 0 0 -7.0537,-13.80967 z" /><rect
         style="opacity:0.192537;fill:#fdedc0;fill-opacity:1;stroke:none;stroke-width:0.439205;stroke-linecap:round;stroke-linejoin:round;stroke-dasharray:none;stroke-opacity:1"
         id="rect87629"
         width="14.15743"
         height="3.4782743"
         x="95.382698"
         y="450.46713"
         ry="1.7391372"
         transform="rotate(-54.135444)" /><circle
         style="opacity:0.192537;fill:#fdedc0;fill-opacity:1;stroke:none;stroke-width:0.784271;stroke-linecap:round;stroke-linejoin:round;stroke-dasharray:none;stroke-opacity:1"
         id="path87858"
         cx="421.27158"
         cy="190.44545"
         r="1.6540627" /><text
         xml:space="preserve"
         style="font-style:normal;font-variant:normal;font-weight:normal;font-stretch:normal;font-size:20.914px;font-family:'Janna LT';-inkscape-font-specification:'Janna LT, Normal';font-variant-ligatures:normal;font-variant-caps:normal;font-variant-numeric:normal;font-variant-east-asian:normal;fill:#9f710f;fill-opacity:1;stroke:#9e720f;stroke-width:1.74283;stroke-opacity:1"
         x="428.34573"
         y="196.30904"
         id="text114582"><tspan
           sodipodi:role="line"
           id="tspan114580"
           style="font-style:normal;font-variant:normal;font-weight:normal;font-stretch:normal;font-size:20.914px;font-family:'Janna LT';-inkscape-font-specification:'Janna LT, Normal';font-variant-ligatures:normal;font-variant-caps:normal;font-variant-numeric:normal;font-variant-east-asian:normal;fill:#9f710f;fill-opacity:1;stroke:#9e720f;stroke-width:1.74283;stroke-opacity:1"
           x="428.34573"
           y="196.30904">1</tspan></text></g></g></svg>
