<?xml version="1.0" encoding="UTF-8" standalone="no"?>
<!-- Created with Inkscape (http://www.inkscape.org/) -->

<svg
   width="185.7963mm"
   height="266.0502mm"
   viewBox="0 0 185.7963 266.0502"
   version="1.1"
   id="svg5"
   xml:space="preserve"
   sodipodi:docname="Rework.svg"
   inkscape:version="1.2.1 (9c6d41e410, 2022-07-14)"
   inkscape:export-filename="svgsep\char1.svg"
   inkscape:export-xdpi="96"
   inkscape:export-ydpi="96"
   xmlns:inkscape="http://www.inkscape.org/namespaces/inkscape"
   xmlns:sodipodi="http://sodipodi.sourceforge.net/DTD/sodipodi-0.dtd"
   xmlns="http://www.w3.org/2000/svg"
   xmlns:svg="http://www.w3.org/2000/svg"><sodipodi:namedview
     id="namedview7"
     pagecolor="#ffffff"
     bordercolor="#000000"
     borderopacity="0.25"
     inkscape:showpageshadow="2"
     inkscape:pageopacity="0.0"
     inkscape:pagecheckerboard="0"
     inkscape:deskcolor="#d1d1d1"
     inkscape:document-units="mm"
     showgrid="false"
     inkscape:zoom="0.090644294"
     inkscape:cx="-623.31557"
     inkscape:cy="-667.44411"
     inkscape:window-width="1920"
     inkscape:window-height="1001"
     inkscape:window-x="-9"
     inkscape:window-y="-9"
     inkscape:window-maximized="1"
     inkscape:current-layer="layer1" /><defs
     id="defs2"><filter
       inkscape:collect="always"
       style="color-interpolation-filters:sRGB"
       id="filter87196"
       x="-0.0010804693"
       y="-0.001079531"
       width="1.0021609"
       height="1.0021591"><feGaussianBlur
         inkscape:collect="always"
         stdDeviation="0.0694464"
         id="feGaussianBlur87198" /></filter></defs><g
     inkscape:label="Layer 1"
     inkscape:groupmode="layer"
     id="layer1"
     transform="translate(41.072419,393.12233)"><g
       id="g120752"
       transform="matrix(5.2539757,0,0,5.2539757,-2423.9398,-1295.8799)"><path
         style="fill:#ed5738;fill-opacity:1;stroke-width:0.199908"
         d="m 483.34998,200.9044 v 19.91069 c 0,1.3022 -1.44174,2.08424 -2.53784,1.38397 l -4.87616,-3.13457 -4.11832,-2.64799 -4.11931,2.64799 -4.87617,3.13457 c -1.0951,0.70027 -2.53684,-0.0818 -2.53684,-1.38397 V 200.9044 Z"
         id="path22003" /><polygon
         style="fill:#ebf2f2"
         points="300.002,288.89 279.395,302.136 279.395,211.293 320.602,211.293 320.602,302.136 "
         id="polygon22005"
         transform="matrix(0.19990847,0,0,0.19990847,411.84472,158.66514)" /><path
         style="fill:#c6123d;fill-opacity:1;stroke-width:0.19688"
         d="m 483.33008,202.10386 v 2.56623 c -1.53702,1.0929 -4.05265,2.58382 -7.19126,3.37005 v -5.93628 z"
         id="path22007" /><path
         style="fill:#c3dbda;stroke-width:0.198739"
         d="m 475.78741,202.10386 v 5.93628 c -1.34312,0.33165 -2.79926,0.53776 -4.33976,0.53776 -1.34411,0 -2.61611,-0.16033 -3.80175,-0.42421 v -6.04983 z"
         id="path22009" /><path
         style="fill:#c6123d;fill-opacity:1;stroke-width:0.19953"
         d="m 467.47517,202.10386 v 6.04983 c -3.17907,-0.70567 -5.73996,-2.15081 -7.38496,-3.29369 v -2.75594 h 7.38496 z"
         id="path22011" /><circle
         style="fill:#adc8c8;fill-opacity:1;stroke-width:0.199908"
         cx="471.81726"
         cy="190.10495"
         r="17.081779"
         id="circle23021" /><circle
         style="fill:#ebf2f2;stroke-width:0.199908"
         cx="470.61783"
         cy="188.90549"
         id="circle22013"
         r="17.081779" /><circle
         style="fill:#c3dbda;stroke-width:0.199908"
         cx="470.61783"
         cy="188.90549"
         r="15.562875"
         id="circle22015" /><path
         style="fill:#ebf2f2;stroke-width:0.199908"
         d="m 485.22832,188.9053 c 0,8.05651 -6.5536,14.61131 -14.61011,14.61131 -2.28495,0 -4.44876,-0.52676 -6.37588,-1.46573 -2.01108,-0.97936 -3.76487,-2.4059 -5.13145,-4.1509 -0.62392,-0.79624 -1.16706,-1.65884 -1.61746,-2.57602 -0.95096,-1.93812 -1.48652,-4.11712 -1.48652,-6.41846 0,-1.70682 0.29447,-3.34507 0.83442,-4.86857 1.62605,-4.58951 5.48488,-8.13068 10.2629,-9.31414 1.12548,-0.27927 2.30335,-0.4276 3.51399,-0.4276 2.69496,0 5.22081,0.73286 7.39022,2.01007 0.96735,0.57034 1.86395,1.24764 2.67317,2.01768 1.5259,1.45174 2.73855,3.22832 3.52599,5.21861 0.6587,1.66104 1.02073,3.47042 1.02073,5.36375 z"
         id="path22017" /><path
         id="path87103"
         style="opacity:0.18209;fill:#86afaf;fill-opacity:1;stroke-width:1.09586;filter:url(#filter87196)"
         d="m 200.91066,69.915463 a 85.312329,85.312329 0 0 1 16.2324,50.027707 85.312329,85.312329 0 0 1 -85.3124,85.31238 85.312329,85.312329 0 0 1 -49.893624,-16.36441 85.312329,85.312329 0 0 0 68.945914,35.4167 85.312329,85.312329 0 0 0 85.31238,-85.31238 85.312329,85.312329 0 0 0 -35.28467,-69.079997 z"
         transform="matrix(0.19990847,0,0,0.19990847,440.4184,161.14624)" /><rect
         style="opacity:0.192537;fill:#bed8d7;fill-opacity:1;stroke:none;stroke-width:0.439205;stroke-linecap:round;stroke-linejoin:round;stroke-dasharray:none;stroke-opacity:1"
         id="rect87860"
         width="14.15743"
         height="3.4782743"
         x="116.56097"
         y="483.29099"
         ry="1.7391372"
         transform="rotate(-54.135444)" /><circle
         style="opacity:0.192537;fill:#bed8d7;fill-opacity:1;stroke:none;stroke-width:0.784271;stroke-linecap:round;stroke-linejoin:round;stroke-dasharray:none;stroke-opacity:1"
         id="circle87862"
         cx="460.27991"
         cy="192.51303"
         r="1.6540627" /><text
         xml:space="preserve"
         style="font-style:normal;font-variant:normal;font-weight:normal;font-stretch:normal;font-size:20.914px;font-family:'Janna LT';-inkscape-font-specification:'Janna LT, Normal';font-variant-ligatures:normal;font-variant-caps:normal;font-variant-numeric:normal;font-variant-east-asian:normal;fill:#8eb3b3;fill-opacity:1;stroke:#8eb3b3;stroke-width:1.74283;stroke-opacity:1"
         x="464.80374"
         y="196.43452"
         id="text115683"><tspan
           sodipodi:role="line"
           id="tspan115681"
           style="font-style:normal;font-variant:normal;font-weight:normal;font-stretch:normal;font-size:20.914px;font-family:'Janna LT';-inkscape-font-specification:'Janna LT, Normal';font-variant-ligatures:normal;font-variant-caps:normal;font-variant-numeric:normal;font-variant-east-asian:normal;fill:#8eb3b3;fill-opacity:1;stroke:#8eb3b3;stroke-width:1.74283;stroke-opacity:1"
           x="464.80374"
           y="196.43452">2</tspan></text></g></g></svg>
