<?xml version="1.0" encoding="UTF-8" standalone="no"?>
<!-- Created with Inkscape (http://www.inkscape.org/) -->

<svg
   width="186.19522mm"
   height="266.05023mm"
   viewBox="0 0 186.19522 266.05023"
   version="1.1"
   id="svg5"
   xml:space="preserve"
   sodipodi:docname="Rework.svg"
   inkscape:version="1.2.1 (9c6d41e410, 2022-07-14)"
   inkscape:export-filename="svgsep\char1.svg"
   inkscape:export-xdpi="96"
   inkscape:export-ydpi="96"
   xmlns:inkscape="http://www.inkscape.org/namespaces/inkscape"
   xmlns:sodipodi="http://sodipodi.sourceforge.net/DTD/sodipodi-0.dtd"
   xmlns="http://www.w3.org/2000/svg"
   xmlns:svg="http://www.w3.org/2000/svg"><sodipodi:namedview
     id="namedview7"
     pagecolor="#ffffff"
     bordercolor="#000000"
     borderopacity="0.25"
     inkscape:showpageshadow="2"
     inkscape:pageopacity="0.0"
     inkscape:pagecheckerboard="0"
     inkscape:deskcolor="#d1d1d1"
     inkscape:document-units="mm"
     showgrid="false"
     inkscape:zoom="0.090644294"
     inkscape:cx="-623.31557"
     inkscape:cy="-667.44411"
     inkscape:window-width="1920"
     inkscape:window-height="1001"
     inkscape:window-x="-9"
     inkscape:window-y="-9"
     inkscape:window-maximized="1"
     inkscape:current-layer="layer1" /><defs
     id="defs2"><filter
       inkscape:collect="always"
       style="color-interpolation-filters:sRGB"
       id="filter87196-7"
       x="-0.0010804693"
       y="-0.001079531"
       width="1.0021609"
       height="1.0021591"><feGaussianBlur
         inkscape:collect="always"
         stdDeviation="0.0694464"
         id="feGaussianBlur87198-2" /></filter></defs><g
     inkscape:label="Layer 1"
     inkscape:groupmode="layer"
     id="layer1"
     transform="translate(82.005793,827.09495)"><g
       id="g134436"
       transform="matrix(5.2539757,0,0,5.2539757,-2661.8615,-1729.8525)"><path
         style="fill:#ed5738;fill-opacity:1;stroke-width:0.199908"
         d="m 520.84322,200.9044 v 19.91069 c 0,1.3022 -1.44174,2.08424 -2.53784,1.38397 l -4.87617,-3.13457 -4.11831,-2.64799 -4.11932,2.64799 -4.87616,3.13457 c -1.0951,0.70027 -2.53685,-0.0818 -2.53685,-1.38397 V 200.9044 Z"
         id="path134408" /><polygon
         style="fill:#ebf2f2"
         points="508.154,211.293 508.154,302.136 487.553,288.89 466.947,302.136 466.947,211.293 "
         id="polygon134410"
         transform="matrix(0.19990847,0,0,0.19990847,411.84472,158.66514)" /><path
         style="fill:#c6123d;fill-opacity:1;stroke-width:0.199908"
         d="m 520.84322,202.10385 v 2.56623 c -1.58468,1.0929 -4.17829,2.58382 -7.41421,3.37005 v -5.93628 z"
         id="path134412" /><path
         style="fill:#a4c9c7;fill-opacity:1;stroke-width:0.199908"
         d="m 513.42901,202.50367 v 5.93628 c -1.35897,0.33165 -2.8323,0.53776 -4.39099,0.53776 -1.35998,0 -2.64699,-0.16033 -3.84664,-0.42421 v -6.04983 z"
         id="path134414" /><path
         style="fill:#c6123d;fill-opacity:1;stroke-width:0.199908"
         d="m 505.19138,202.10385 v 6.04984 c -3.19113,-0.70568 -5.76176,-2.15082 -7.413,-3.2937 v -2.75593 h 7.413 z"
         id="path134416" /><circle
         style="fill:#a75b15;fill-opacity:1;stroke-width:0.199908"
         cx="509.38638"
         cy="190.10495"
         r="17.081779"
         id="circle134418" /><circle
         style="fill:#e37f22;stroke-width:0.199908"
         cx="508.11102"
         cy="188.90549"
         r="17.081779"
         id="circle134420" /><circle
         style="fill:#ba6017;stroke-width:0.199908"
         cx="508.11102"
         cy="188.90549"
         r="15.562875"
         id="circle134422" /><path
         style="fill:#e37f22;stroke-width:0.199908"
         d="m 522.72156,188.9053 c 0,8.05651 -6.5536,14.61131 -14.61011,14.61131 -2.28496,0 -4.44877,-0.52676 -6.37588,-1.46573 -2.01108,-0.97936 -3.76488,-2.4059 -5.13145,-4.1509 -0.62392,-0.79624 -1.16707,-1.65884 -1.61747,-2.57602 -0.95096,-1.93812 -1.48652,-4.11712 -1.48652,-6.41846 0,-1.70682 0.29447,-3.34507 0.83442,-4.86857 1.62606,-4.58951 5.48489,-8.13068 10.2629,-9.31414 1.12549,-0.27927 2.30335,-0.4276 3.514,-0.4276 2.69496,0 5.22081,0.73286 7.39021,2.01007 0.96736,0.57034 1.86395,1.24764 2.67318,2.01768 1.5259,1.45174 2.73854,3.22832 3.52598,5.21861 0.6585,1.66104 1.02074,3.47042 1.02074,5.36375 z"
         id="path134424" /><path
         id="path134426"
         style="opacity:0.192537;fill:#7c4410;fill-opacity:1;stroke-width:1.09586;filter:url(#filter87196-7)"
         d="m 389.42056,70.401181 a 85.312329,85.312329 0 0 1 16.2324,50.027709 85.312329,85.312329 0 0 1 -85.3124,85.31238 85.312329,85.312329 0 0 1 -49.89362,-16.36441 85.312329,85.312329 0 0 0 68.94591,35.4167 85.312329,85.312329 0 0 0 85.31238,-85.31238 85.312329,85.312329 0 0 0 -35.28467,-69.079999 z"
         transform="matrix(0.19990847,0,0,0.19990847,440.4184,161.14624)" /><rect
         style="opacity:0.192537;fill:#f8dfc8;fill-opacity:1;stroke:none;stroke-width:0.439205;stroke-linecap:round;stroke-linejoin:round;stroke-dasharray:none;stroke-opacity:1"
         id="rect134428"
         width="14.15743"
         height="3.4782743"
         x="138.8858"
         y="512.05426"
         ry="1.7391372"
         transform="rotate(-54.135444)" /><circle
         style="opacity:0.192537;fill:#f8dfc8;fill-opacity:1;stroke:none;stroke-width:0.784271;stroke-linecap:round;stroke-linejoin:round;stroke-dasharray:none;stroke-opacity:1"
         id="circle134430"
         cx="496.66928"
         cy="191.27246"
         r="1.6540627" /><text
         xml:space="preserve"
         style="font-style:normal;font-variant:normal;font-weight:normal;font-stretch:normal;font-size:20.914px;font-family:'Janna LT';-inkscape-font-specification:'Janna LT, Normal';font-variant-ligatures:normal;font-variant-caps:normal;font-variant-numeric:normal;font-variant-east-asian:normal;fill:#7b420f;fill-opacity:1;stroke:#7b430f;stroke-width:1.74283;stroke-opacity:1"
         x="502.50589"
         y="196.30945"
         id="text134434"><tspan
           sodipodi:role="line"
           id="tspan134432"
           style="font-style:normal;font-variant:normal;font-weight:normal;font-stretch:normal;font-size:20.914px;font-family:'Janna LT';-inkscape-font-specification:'Janna LT, Normal';font-variant-ligatures:normal;font-variant-caps:normal;font-variant-numeric:normal;font-variant-east-asian:normal;fill:#7b420f;fill-opacity:1;stroke:#7b430f;stroke-width:1.74283;stroke-opacity:1"
           x="502.50589"
           y="196.30945">3</tspan></text></g></g></svg>
